<svg width="411" height="91" viewBox="0 0 411 91" fill="none" xmlns="http://www.w3.org/2000/svg">
<path d="M353.135 42.4839V6.93066H362.305L377.262 33.5588V6.93066H384.225V42.4839H375.104L360.098 15.8067V42.4839H353.135Z" fill="#0C75FF"/>
<path d="M314.549 42.4839L327.887 6.93066H335.832L349.268 42.4839H341.52L339.166 35.6675H324.406L322.052 42.4839H314.549ZM326.465 29.7828H337.107L331.762 14.4336L326.465 29.7828Z" fill="#0C75FF"/>
<path d="M306.832 29.9305H313.845C312.472 38.022 305.999 43.122 297.466 43.122C286.726 43.122 280.302 35.8643 280.302 24.6834C280.302 13.5025 287.07 6.34277 297.76 6.34277C306.146 6.34277 312.276 11.5899 313.6 19.4852H306.636C305.606 14.8265 302.125 12.2275 297.515 12.2275C292.023 12.2275 287.756 16.69 287.756 24.6834C287.756 32.7258 291.974 37.1883 297.613 37.1883C301.977 37.1883 305.803 35.0306 306.832 29.9305Z" fill="#0C75FF"/>
<path d="M267.46 42.4839V6.93066H274.62V42.4839H267.46Z" fill="#0C75FF"/>
<path d="M232.501 42.4839V6.93066H245.3C254.323 6.93066 260.943 8.94126 260.943 17.6702C260.943 22.5251 258.639 25.6145 253.98 27.3309L262.513 42.4839H254.323L246.575 28.5078H239.661V42.4839H232.501ZM239.661 22.5251H245.594C250.008 22.5251 253.441 21.8876 253.441 17.7683C253.441 13.649 250.008 12.9625 245.594 12.9625H239.661V22.5251Z" fill="#0C75FF"/>
<path d="M200.127 42.4839V6.93066H226.216V13.2077H207.287V21.0539H225.186V27.3309H207.287V36.207H226.216V42.4839H200.127Z" fill="#0C75FF"/>
<path d="M154.489 42.4839V6.93066H165.964L173.565 33.9512L181.313 6.93066H192.69V42.4839H185.677V13.0605L177.096 42.4839H170.132L161.452 13.1096V42.4839H154.489Z" fill="#0C75FF"/>
<path d="M115.902 42.4839L129.241 6.93066H137.185L150.622 42.4839H142.874L140.52 35.6675H125.759L123.405 42.4839H115.902ZM127.819 29.7828H138.46L133.115 14.4336L127.819 29.7828Z" fill="#0C75FF"/>
<path d="M352.067 75.2027H358.99C358.99 78.0489 361.298 79.3566 370.067 79.3566C377.337 79.3566 379.529 78.5489 379.529 76.4335C379.529 74.2027 377.99 73.8181 369.26 73.395C357.529 72.8565 352.875 71.0104 352.875 64.9718C352.875 59.0487 358.913 57.1641 368.99 57.1641C379.144 57.1641 385.298 59.7026 385.298 66.3565H378.375C378.375 63.3949 375.413 62.6641 368.221 62.6641C361.413 62.6641 359.798 63.318 359.798 65.318C359.798 67.3949 361.413 67.7796 369.26 68.2411C379.875 68.818 386.452 69.395 386.452 76.2027C386.452 83.3951 379.644 84.8567 369.683 84.8567C358.644 84.8567 352.067 82.972 352.067 75.2027Z" fill="#F2172B"/>
<path d="M315.783 75.2027H322.707C322.707 78.0489 325.014 79.3566 333.784 79.3566C341.053 79.3566 343.245 78.5489 343.245 76.4335C343.245 74.2027 341.707 73.8181 332.976 73.395C321.245 72.8565 316.591 71.0104 316.591 64.9718C316.591 59.0487 322.63 57.1641 332.707 57.1641C342.861 57.1641 349.015 59.7026 349.015 66.3565H342.091C342.091 63.3949 339.13 62.6641 331.937 62.6641C325.13 62.6641 323.514 63.318 323.514 65.318C323.514 67.3949 325.13 67.7796 332.976 68.2411C343.591 68.818 350.168 69.395 350.168 76.2027C350.168 83.3951 343.361 84.8567 333.399 84.8567C322.36 84.8567 315.783 82.972 315.783 75.2027Z" fill="#F2172B"/>
<path d="M313.642 63.0484H292.104V68.51H313.642V73.5101H292.104V78.9717H313.642V84.4717H285.181V57.5483H313.642V63.0484Z" fill="#F2172B"/>
<path d="M282.913 67.4331C282.913 71.8177 280.682 75.0485 277.067 76.4716L282.029 84.4717H273.875L269.528 77.2793H258.374V84.4717H251.451V57.5483H272.605C278.721 57.5483 282.913 61.433 282.913 67.4331ZM258.374 63.3561V71.4716H270.682C272.759 71.4716 275.99 71.4716 275.99 67.4331C275.99 63.3561 272.759 63.3561 270.682 63.3561H258.374Z" fill="#F2172B"/>
<path d="M249.175 57.5483V63.3561H236.098V84.4717H229.175V63.3561H216.098V57.5483H249.175Z" fill="#F2172B"/>
<path d="M214.703 67.4331C214.703 71.8177 212.472 75.0485 208.857 76.4716L213.819 84.4717H205.665L201.318 77.2793H190.164V84.4717H183.241V57.5483H204.395C210.511 57.5483 214.703 61.433 214.703 67.4331ZM190.164 63.3561V71.4716H202.472C204.549 71.4716 207.78 71.4716 207.78 67.4331C207.78 63.3561 204.549 63.3561 202.472 63.3561H190.164Z" fill="#F2172B"/>
<path d="M163.797 84.8567C151.951 84.8567 146.874 79.9335 146.874 70.9719C146.874 62.0487 151.951 57.1641 163.797 57.1641C175.605 57.1641 180.72 62.0872 180.72 70.9719C180.72 79.8951 175.605 84.8567 163.797 84.8567ZM163.797 79.0489C170.989 79.0489 173.797 76.472 173.797 70.9719C173.797 65.5103 171.028 62.9718 163.797 62.9718C156.566 62.9718 153.797 65.4718 153.797 70.9719C153.797 76.5104 156.605 79.0489 163.797 79.0489Z" fill="#F2172B"/>
<path d="M145.822 63.3561H124.283V70.2023H143.514V76.0485H124.283V84.4717H117.36V57.5483H145.822V63.3561Z" fill="#F2172B"/>
<path d="M397.517 82.9395H394.876V82.1108H401.051V82.9395H398.41V90.0547H397.522V82.9395H397.517Z" fill="#F2172B"/>
<path d="M402.726 82.1108H403.627L406.494 86.4459L409.36 82.1108H410.261V90.0547H409.373V83.6212L406.507 87.876H406.463L403.596 83.6346V90.0547H402.73V82.1108H402.726Z" fill="#F2172B"/>
<path fill-rule="evenodd" clip-rule="evenodd" d="M42.6625 88.791L29.3562 80.1252V63.0581H13.8549V70.2595L0 61.1937V31.9966H42.6625V88.791ZM13.7179 55.1516H29.3562V39.8226H13.7179V55.1516Z" fill="#F2172B"/>
<path d="M48.5284 31.9966V90.2575L62.7814 81.1917V59.9448H88.5518V51.8439H62.7814V40.0165H78.4739V44.391H93.5907V31.9966H48.5284Z" fill="#F2172B"/>
<path d="M0 0H93.5908V25.9189H0V0Z" fill="#0C75FF"/>
<path d="M44.1129 10.3289L45.3131 7.03064C45.9678 5.21392 46.5618 3.73242 46.6103 3.73242C46.6709 3.73242 46.7194 3.7973 46.7194 3.873C46.7194 3.93788 47.2529 5.43019 49.0835 10.3289L57.8609 10.3829L56.5637 11.2372C55.8484 11.713 54.3451 12.7079 53.2055 13.4432C52.078 14.1786 51.0596 14.8274 50.9627 14.8707C50.8051 14.9464 50.9869 15.5411 52.1023 18.569C52.8297 20.5479 53.4601 22.2349 53.4965 22.3214C53.5328 22.4079 52.0174 21.4238 50.114 20.137C48.2106 18.8501 46.5861 17.8228 46.5133 17.8445C46.4285 17.8769 45.6041 18.4068 44.6948 19.034C43.7734 19.6612 42.2822 20.6777 41.3851 21.2941C40.488 21.9105 39.7363 22.4079 39.7242 22.3971C39.712 22.3971 40.3182 20.7209 42.4762 14.9788L41.8458 14.6111C41.4942 14.4165 39.9666 13.4324 38.4512 12.4267C36.9479 11.421 35.6022 10.5451 35.4809 10.4694C35.3112 10.3721 36.2205 10.3397 44.1129 10.3289Z" fill="#FDFAF4"/>
</svg>
