<svg width="1237" height="955" viewBox="0 0 1237 955" fill="none" xmlns="http://www.w3.org/2000/svg">
<path d="M128.893 401.829C112.703 413.653 99.4646 429.083 82.3203 439.847C78.2552 442.392 76.6291 447.782 75.657 452.767C74.3668 453.403 72.5464 457.362 72.0691 452.484C71.698 448.596 74.137 445.308 75.7277 441.897C83.2216 425.778 95.1696 412.186 102.186 395.802C103.052 393.787 105.35 392.161 104.272 389.492C103.936 383.836 105.916 379.665 111.66 377.845C114.735 373.939 116.998 369.555 118.906 364.995C123.254 364.465 124.297 360.259 126.984 357.89C129.37 355.787 131.879 350.803 135.626 356.635C136.068 363.811 132.092 369.644 129.175 375.6C126.241 381.609 122.618 387.336 119.808 393.504C123.767 384.844 127.956 376.342 135.079 369.732C138.348 366.692 138.207 366.586 145.63 365.066C146.956 364.801 146.143 363.175 146.461 362.203C147.574 358.792 148.829 354.638 152.788 354.709C156.694 354.797 156.535 359.269 157.419 362.273C157.543 366.02 156.394 369.308 153.99 372.171C147.716 377.686 146.054 385.392 143.863 392.921C142.59 397.287 142.679 402.235 139.002 405.7C137.076 406.848 135.768 406.141 135.096 404.197C133.947 400.874 131.508 401.14 128.875 401.847L128.893 401.829Z" fill="#EADAA2"/>
<path d="M134.814 355.539C129.088 357.147 126.861 362.485 123.467 366.497C120.109 370.456 120.374 365.543 118.907 364.995C119.261 363.139 119.614 361.301 119.95 359.445C120.48 358.879 121.028 358.332 121.558 357.766C128.787 352.464 129.918 343.679 133.683 336.415C135.15 333.57 135.45 330.211 137.077 327.419C138.225 325.457 139.233 322.912 142.343 324.98C144.57 334.277 142.22 343.184 139.781 352.004C139.251 353.895 138.013 356.546 134.832 355.557L134.814 355.539Z" fill="#8D2F3C"/>
<path d="M57.859 505.365L57.205 505.294L56.6394 505.63C55.579 497.959 59.0255 491.331 61.5707 484.527C64.54 476.573 67.7213 468.708 70.8673 460.825C70.9734 460.542 70.9027 457.343 72.0162 460.542C72.2106 461.09 72.299 461.674 72.4404 462.239C71.7688 474.116 66.0069 484.191 61.1111 494.619C59.5381 497.977 58.9194 501.777 57.8767 505.365H57.859Z" fill="#D2B792"/>
<path d="M134.814 355.538C141.017 345.552 139.161 333.958 141.229 323.141C135.485 320.437 137.535 315.099 137.023 310.645C137.164 303.593 136.864 296.558 134.92 289.718C134.531 288.976 134.195 288.198 133.912 287.421C134.177 278.548 127.938 271.956 125.676 263.967C125.64 263.578 125.587 263.171 125.552 262.783C111.872 223.651 74.1546 199.702 33.4327 204.315C31.5061 204.669 30.7815 203.361 30.1099 201.947C29.668 186.888 40.3788 177.433 56.3388 178.723C63.3909 179.288 70.39 180.808 77.018 182.7C92.0943 186.994 107.948 185.934 122.919 190.3C126.736 191.696 130.695 192.58 134.548 193.799C137.341 194.683 141.212 194.63 141.848 198.854C138.613 203.396 133.877 201.876 129.759 201.381C117.846 199.967 106.022 197.988 94.1798 196.061C90.6803 195.496 87.2868 195.673 84.724 196.114C92.5361 191.784 95.8413 202.654 103.406 203.007C110.847 203.361 118.288 205.977 125.499 208.487C133.099 211.88 141.618 213.276 148.175 218.95C147.91 218.331 148.423 220.205 149.041 218.702C151.162 213.435 152.93 213.63 162.12 217.766C167.812 220.735 174.351 221.513 179.936 224.765C183.966 227.115 188.208 229.183 189.887 234.026C190.011 234.945 189.834 235.794 189.357 236.571C186.494 238.816 183.666 237.137 180.944 236.518C184.797 239.523 184.39 244.596 187.095 248.254C188.791 250.552 185.451 252.125 183.719 251.347C175.677 247.706 165.284 250.446 160 242.881C161.926 244.101 164.118 246.982 167.281 248.572C168.589 249.721 169.685 251.153 171.4 251.754C186.953 257.321 200.156 266.812 213.094 276.728C219.068 280.811 225.537 284.204 230.804 289.206C233.844 292.069 237.909 294.544 237.237 299.775C233.561 302.709 230.715 299.899 227.711 298.361C224.794 296.859 222.55 293.2 218.431 297.071C217.017 298.414 214.242 295.905 212.387 294.455C209.629 291.309 205.6 289.948 202.401 287.35C203.072 292.794 209.064 297.124 205.67 303.363C201.57 306.704 198.282 305.696 195.402 301.578C192.803 297.884 190.417 294.066 187.978 290.797C191.637 296.558 196.762 301.967 198.618 309.249C199.184 311.476 200.103 314.18 197.505 315.559C195.048 316.866 193.051 314.905 191.46 313.225C187.413 308.984 184.108 304.176 182.022 300.27C186.352 307.269 187.784 316.354 187.519 325.827C186.423 331.236 183.577 331.289 180.343 327.754C177.161 324.29 175.801 319.747 174.298 315.647C174.793 319.429 174.935 323.53 174.228 327.56C173.786 330.034 173.52 333.551 170.056 333.074C167.511 332.72 166.963 329.716 167.476 327.277C168.678 321.426 167.069 315.735 166.928 311.264C168.642 317.821 167.352 325.721 167.122 333.587C167.016 337.245 166.292 340.639 163.481 343.148C161.537 344.88 160.353 343.944 159.841 340.974C161.343 348.804 162.067 355.821 155.316 361.07C154.697 359.25 154.079 357.412 153.23 354.955C149.642 361.247 146.373 366.974 143.085 372.7C142.785 372.594 142.484 372.506 142.184 372.4C142.873 369.855 143.562 367.292 144.269 364.694C133.099 374.75 123.078 385.62 117.351 399.901C121.293 384.295 129.034 370.279 134.778 355.468L134.814 355.538Z" fill="#101C41"/>
<path d="M109.977 113.328C125.124 111.649 140.13 108.167 155.525 109.175C156.143 109.811 156.391 110.589 156.355 111.472C154.482 115.873 150.328 115.361 146.723 115.767C137.726 116.739 129.119 119.073 120.847 122.713C118.196 123.88 115.05 124.605 116.535 128.723C117.737 130.95 118.691 133.212 118.002 135.828C116.853 138.514 114.555 139.186 112.187 138.232C105.258 135.492 97.7644 135.757 90.677 133.742C80.0369 130.702 79.4537 131.286 77.3151 141.731C76.8555 142.473 76.2016 142.951 75.3532 143.198C69.4853 140.406 65.7383 133.406 56.9188 136.712C46.2434 140.706 36.3986 145.036 30.2479 155.234C27.2079 160.289 25.4935 165.874 23.4433 171.336C22.3121 174.358 22.1177 178.6 17.1158 178.194C11.1242 173.086 13.8107 166.723 15.3307 161.102C19.3605 146.221 28.8163 135.51 42.6201 128.617L42.461 128.705C48.3113 125.612 54.6917 124.357 61.1429 123.279C64.0061 123.951 66.8518 124.145 69.7151 123.279C79.2946 124.587 88.9095 124.923 98.383 124.251C97.1281 123.244 94.5123 125.382 93.5402 122.749C97.0928 116.28 104.534 116.545 109.96 113.328H109.977Z" fill="#F8F6EA"/>
<path d="M42.6208 128.599C36.5938 134.007 29.5947 138.373 24.7696 145.089C17.6291 155.057 13.5285 165.644 17.6113 178.034C20.0151 179.519 21.6766 181.764 21.8003 184.45C22.2598 193.941 27.5798 202.195 28.1984 210.308C27.898 207.922 26.1658 203.839 31.6979 202.372C32.2635 203.008 32.8292 203.662 33.3947 204.298V228.177C25.7417 222.397 22.5603 215.84 19.4496 209.442C8.15557 186.2 6.8653 163.364 23.7267 141.89C28.6226 135.669 34.3137 130.172 42.6031 128.581L42.6208 128.599Z" fill="#46243B"/>
<path d="M124.015 353.277C123.467 346.791 127.09 341.453 129.282 335.85C137.536 314.676 136.069 294.103 127.125 273.565C125.729 270.349 121.876 266.955 125.552 262.784L125.464 262.66C130.289 270.419 134.036 278.62 136.175 287.528L136.104 287.387C138.101 296.79 137.889 306.334 137.889 315.86C137.589 329.929 134.496 342.973 124.032 353.295L124.015 353.277Z" fill="#182145"/>
<path d="M124.014 353.277C130.289 341.629 135.061 329.452 136.881 316.249C137.765 314.216 135.414 311.035 139.108 309.992C139.833 314.375 138.702 319.042 141.229 323.124C136.245 335.514 133.559 348.964 124.368 359.392C120.515 363.758 122.512 358.244 121.558 357.731C122.653 356.405 124.209 355.31 124.014 353.259V353.277Z" fill="#F0DCB2"/>
<path d="M93.5606 122.73C96.9364 124.021 101.125 121.847 104.448 125.364C92.4824 126.318 81.0118 126.142 69.7178 123.243C77.6713 123.597 85.6248 123.703 93.5606 122.73Z" fill="#46243B"/>
<path d="M61.1457 123.261C54.9243 125.064 48.6853 126.884 42.4639 128.687C47.8016 123.826 54.4647 123.491 61.1457 123.261Z" fill="#46243B"/>
<path d="M113.213 130.172C108.759 125.187 113.779 123.367 116.571 121.723C125.974 116.138 136.384 113.504 147.254 112.656C150.1 112.426 153.157 113.292 155.543 110.906C166.007 108.856 175.798 111.79 185.714 114.706C180.924 118.383 175.18 116.969 170.231 118.842C202.063 110.871 231.685 119.461 260.777 131.338C264.1 132.699 269.932 134.466 268.289 138.461C266.168 143.639 261.166 139.574 257.525 138.39C255.086 137.595 252.7 136.534 250.349 135.403C259.116 139.627 268.359 142.544 277.603 145.495C285.645 148.058 293.121 152.989 302.135 151.787C322.055 164.813 341.267 178.688 356.272 197.494C358.8 200.657 361.804 203.591 362.67 207.815C365.463 211.722 356.361 204.934 360.567 210.166C361.31 211.103 361.946 212.676 361.203 213.418C354.947 219.781 361.203 222.821 364.615 226.515C375.184 238.039 383.915 250.747 389.606 265.417C390.879 268.704 391.816 272.345 396.729 270.86C403.622 274.024 402.827 282.048 406.963 286.962C408.872 292.777 412.99 298.185 410.533 304.866C400.37 305.414 401.925 295.834 398.019 291.522C398.161 312.943 412.565 330.017 419.211 349.83C427.43 364.729 433.457 380.725 442.046 395.43C443.531 397.569 445.21 399.937 442.206 401.934C440.049 403.348 438.512 402.341 438.335 399.672C428.154 391.471 417.974 383.252 407.175 374.556C406.698 380.636 410.763 384.843 409.808 390.658C402.031 383.358 397.507 374.45 391.038 364.782C390.278 370.721 389.712 375.14 388.882 381.591C383.827 372.718 381.759 364.747 379.019 357.059C378.03 354.301 377.146 352.64 374.618 355.768C369.97 352.428 369.334 346.896 367.177 342.194C366.488 340.056 366.276 337.617 363.66 336.291C364.137 338.836 365.869 340.657 366.47 342.937C368.927 350.13 371.048 357.359 368.927 365.065C369.369 371.11 370.801 377.225 367.672 383.04C366.099 382.368 364.155 378.215 363.218 383.464C362.9 385.214 362.582 386.875 361.044 388.024C363.802 397.127 366.559 406.229 369.669 416.569C363.112 412.238 359.86 406.865 356.537 401.916C353.975 398.081 352.03 397.692 348.619 399.831C340.966 397.003 337.255 390.251 333.26 383.977C327.763 375.334 322.055 366.921 314.649 359.763C314.03 359.144 313.288 357.872 312.828 357.995C303.054 360.558 301.694 352.534 298.795 346.772C294.306 337.847 287.925 330.176 282.959 321.604C283.878 320.897 282.446 321.886 282.676 320.773C282.853 319.96 282.128 319.713 282.199 319.995C282.764 322.47 282.234 325.121 284.461 327.295C291.301 334.011 294.659 342.919 299.007 351.208C301.216 355.415 302.259 359.674 302.065 364.641C301.782 371.941 303.39 379.152 306.112 386.08C310.319 396.809 309.187 398.594 297.257 401.192C297.452 400.043 297.116 401.598 296.533 400.697C296.091 400.008 295.755 400.202 296.038 400.821C298.282 405.84 301.146 410.789 298.353 416.569C297.522 425.211 294.8 433.412 292.52 443.487C286.564 435.816 281.509 429.312 276.189 422.472C273.786 426.749 274.775 430.655 274.121 434.296C273.838 435.904 274.599 438.414 272.531 438.679C271.382 438.838 269.95 436.788 268.642 435.728C265.814 433.571 265.567 430.337 264.931 427.191C262.916 417.24 260.441 407.396 256.076 398.169C255.846 394.882 255.722 390.552 260.141 391.259C265.885 392.178 265.372 398.169 266.574 402.517C263.835 388.961 260.371 375.723 250.862 364.994C249.925 363.863 248.829 362.856 247.875 361.106C247.009 364.482 244.428 366.815 244.693 370.279C244.941 373.496 245.436 376.748 244.994 379.947C244.322 384.702 244.87 391.329 236.545 387.07C234.23 385.886 233.399 387.247 232.622 388.979C232.021 390.322 231.384 391.648 230.819 393.009C225.693 405.487 225.587 405.504 216.962 395.412C215.106 397.445 215.548 399.955 216.255 401.987C219.949 412.663 214.947 422.843 214.647 433.271C214.558 436.028 213.25 438.379 210.263 439.263C206.534 451.122 202.787 462.982 198.881 475.372C195.611 468.426 196.407 461.214 194.286 454.657C192.235 452.589 192.165 450.433 194.003 448.188C194.675 442.267 195.169 435.339 192.342 430.885C186.226 421.27 190.415 411.196 188.789 399.884C184.388 407.289 183.08 414.766 177.301 420.316C176.717 416.003 179.616 412.362 178.396 408.491C178.361 408.368 177.849 408.244 177.654 408.332C177.177 408.562 176.735 408.898 176.293 409.198C168.587 405.381 173.412 398.452 172.157 394.316C172.104 395.041 171.486 396.968 170.726 398.806C169.188 402.482 168.481 407.961 163.515 407.537C159.025 407.166 159.75 401.616 157.982 397.462C154.518 408.845 151.743 419.803 146.936 430.019C144.62 434.95 143.153 440.606 137.621 443.328C137.02 443.734 136.419 444.158 135.819 444.565C131.064 443.133 132.796 439.881 133.786 436.965C137.091 427.297 139.919 417.505 142.252 407.537C143.489 402.288 143.684 397.25 143.171 392.019C144.249 383.995 147.448 376.854 152.273 370.403C154.2 367.628 155.243 364.553 155.314 361.159C157.152 352.675 159.52 344.28 159.326 335.089C162.012 337.316 159.997 340.48 162.03 342.76C165.724 329.699 167.12 316.743 164.928 303.452C169.577 312.13 169.382 321.763 170.461 332.367C171.892 322.063 172.122 313.067 169.877 304.018C176.611 311.547 179.174 321.321 184.282 329.681C186.297 328.055 185.007 326.217 185.342 324.626C188.365 320.172 190.698 322.876 192.677 325.527C194.639 328.126 195.063 331.448 196.106 334.471C196.725 336.256 196.654 338.377 199.288 339.137C206.905 341.328 206.87 341.452 206.852 349.812C206.569 350.961 208.355 350.201 207.188 350.183C206.835 350.183 206.605 349.759 206.976 349.37C213.975 341.929 208.655 334.453 207.329 326.871C206.357 321.268 201.568 315.382 207.559 309.797C209.663 309.373 211.607 309.638 213.215 311.229C213.869 311.512 213.94 311.282 213.516 310.469C211.854 307.252 210.529 303.947 213.074 300.606C214.417 298.857 216.308 299.387 217.828 300.306C221.663 302.639 223.802 306.015 222.636 310.61C222.035 312.961 221.451 315.135 222.406 316.761C221.611 313.827 221.01 310.186 226.648 312.59C230.536 314.251 232.869 317.715 234.495 321.657C236.157 325.704 237.959 329.699 239.356 333.463C238.472 330.494 236.846 327.454 235.715 324.202C234.902 321.851 234.389 319.288 236.669 317.821C239.55 315.966 241.583 318.387 243.315 320.313C245.489 322.753 246.638 325.793 247.804 328.815C248.829 331.484 249.236 334.488 252.293 336.927C249.589 329.787 246.726 323.495 243.35 317.415C241.547 314.163 239.25 310.787 241.724 306.775C245.524 305.432 247.309 308.083 249.236 310.504C250.65 313.314 253.318 314.516 256.341 315.789C250.208 307.782 244.234 300.023 237.023 293.342C230.589 289.118 226.17 282.543 219.578 278.496C211.571 271.532 203.936 264.162 195.629 257.551C196.742 252.868 200.118 253.557 203.088 254.9C207.17 256.738 211.377 258.435 213.657 260.22C203.141 254.9 191.281 248.643 181.914 238.746C180.535 237.296 178.608 236.165 179.245 233.673C182.497 234.539 185.749 235.423 189.019 236.289C192.094 235.105 195.116 235.07 198.103 236.607C200.719 237.933 203.388 238.976 206.11 236.819C215.318 235.564 224.35 234.592 233.417 238.481C238.896 240.831 244.905 242.687 251.109 240.283C254.22 239.683 256.606 241.591 259.31 242.457C248.971 239.594 238.631 236.731 228.892 232.118C223.873 230.651 218.553 231.376 213.516 229.979C213.197 229.891 211.695 228.088 212.049 230.244C212.985 235.971 208.266 235.653 205.12 237.067C199.27 239.311 194.71 233.479 189.054 234.522C181.101 226.957 170.514 224.535 160.969 220.046C162.861 213.86 169.453 215.857 173.271 212.959C180.376 212.517 186.986 215.274 193.915 216.034C203.742 217.112 212.897 213.507 222.423 212.552C225.905 212.481 228.733 214.302 231.703 215.734C224.774 212.499 217.81 209.424 210.087 208.593C209.256 208.434 208.478 208.151 207.718 207.798C205.721 206.278 203.423 205.341 201.09 204.457C195.594 200.869 189.266 199.703 183.062 198.041C177.76 196.61 172.034 195.832 167.915 191.537C166.272 187.313 169.064 185.775 172.193 186.094C177.141 186.588 180.482 183.849 184.229 181.675C187.357 180.986 190.168 182.647 193.155 182.93C201.762 184.962 210.281 185.422 218.588 181.675C223.837 179.307 224.686 172.449 230.147 170.293C236.033 171.424 241.759 167.5 247.698 169.674C252.117 172.131 252.788 178.14 256.005 180.349C259.063 182.453 265.302 179.041 269.526 180.72C280.007 184.874 291.425 185.245 301.835 189.257C312.758 193.464 322.249 200.905 332.217 202.814C334.939 204.104 335.169 202.849 334.709 203.927C334.25 205.005 335.045 203.998 333.932 203.627C324.882 200.64 316.434 196.751 310.566 188.727C309.364 187.083 307.243 186.359 305.387 185.457C290.824 178.423 275.889 172.166 261.732 164.319C258.197 162.357 254.626 161.72 250.72 162.321C237.252 156.188 223.183 151.734 209.168 147.051C206.923 146.414 204.696 145.301 202.381 145.46C189.231 146.432 176.311 143.145 163.232 143.622C154.253 142.685 145.133 146.326 136.225 143.039C130.905 141.077 124.507 139.928 125.868 131.709C126.062 130.543 124.86 131.303 124.348 131.055C120.76 129.341 117.013 129.252 113.195 130.242L113.213 130.172Z" fill="#F1E8C2"/>
<path d="M210.301 439.192C211.344 426.784 217.141 414.677 212.811 401.934C211.149 397.02 214.543 392.885 213.889 387.211C219.739 390.746 222.143 395.5 224.652 400.82C225.801 393.061 231.51 387.193 232.076 379.045C236.335 380.071 236.335 386.221 242.009 386.363C242.009 381.785 241.585 377.172 242.15 372.683C242.557 369.448 235.858 364.128 244.96 362.661C246.339 362.431 241.938 355.927 245.579 351.721C248.018 355.715 250.351 359.533 252.684 363.333C254.575 368.211 256.855 372.965 257.492 378.232C257.951 382.05 258.534 385.921 253.692 387.724C249.909 389.12 250.987 392.354 251.129 395.182C251.306 398.841 252.879 402.8 248.849 405.539C247.028 413.811 245.226 422.083 243.052 431.998C238.88 422.454 238.951 413.581 237.148 404.833C227.816 422.419 223.663 441.808 216.487 462.257C215.338 455.717 214.702 451.051 213.659 446.474C213.058 443.893 214.189 440.323 210.301 439.192Z" fill="#EBD99D"/>
<path d="M297.31 400.398C306.766 396.81 305.528 391.508 302.17 383.236C299.537 376.785 296.073 368.973 299.767 361.037C300.314 359.853 299.254 357.661 298.476 356.159C293.227 346.102 289.48 335.144 280.908 327.119C276.79 323.266 282.622 317.646 278.08 313.811C281.721 315.154 284.125 317.239 284.496 321.057C291.212 332.581 299.608 343.185 304.185 355.876C305.493 359.517 309.311 359.464 311.131 362.044C317.07 370.546 321.842 379.524 320.463 390.341C320.004 394.035 321.983 391.508 322.955 391.861C325.112 392.674 325.907 394.724 325.872 396.792C325.713 406.283 325.978 415.881 319.933 424.099C317.883 432.3 321.877 440.201 321.029 450.452C312.316 439.14 304.539 429.278 300.509 416.941C298.476 411.621 296.002 406.389 297.31 400.415V400.398Z" fill="#EBD99E"/>
<path d="M137.658 443.273C146.531 426.146 151.356 407.411 157.984 389.401C158.62 389.454 159.256 389.507 159.893 389.56C161.006 394.986 162.12 400.412 163.463 407.005C168.748 399.634 168.889 391.045 173.785 383.232C176.666 392.565 172.972 401.26 176.33 409.143C174.085 414.711 169.967 418.723 165.708 422.629C163.534 421.144 165.407 418.369 162.862 416.991C159.698 425.457 156.552 433.887 152.646 444.333C152.257 438.907 152.01 435.443 151.692 431.113C146.107 437.157 144.428 445.234 137.641 450.996V443.273H137.658Z" fill="#EBDAA0"/>
<path d="M319.933 424.082C320.357 414.113 326.26 404.64 322.354 394.212C321.912 395.166 321.7 396.686 321.011 396.934C319.067 397.641 319.509 395.573 319.438 394.813C318.271 383.059 314.047 372.278 309.169 361.673C309.016 359.352 311.378 358.15 316.257 358.067C323.662 364.413 329.919 371.73 334.214 380.496C337.819 387.884 344.324 393.01 348.672 399.779C347.876 401.334 348.919 405.771 344.818 402.218C343.511 401.087 342.044 400.133 340.647 399.09C332.888 394.477 331.951 403.19 327.816 405.647C326.684 413.919 325.571 422.208 324.404 430.745C321.135 429.189 321.471 426.026 319.915 424.046L319.933 424.082Z" fill="#E02025"/>
<path d="M248.849 405.558C248.513 400.309 248.336 395.042 247.788 389.828C247.046 382.581 249.573 381.397 255.459 386.046C255.618 377.968 251.253 371.005 252.684 363.369C267.142 376.961 267.937 395.13 269.563 413.052C265.021 408.033 264.774 401.21 261.804 395.537C261.115 394.211 262.087 391.454 259.383 392.126C257.386 392.62 257.969 395.024 257.81 396.686C257.951 404.374 260.037 412.345 254.664 419.274C251.836 420.157 251.412 418.337 251.023 416.216C250.369 412.663 249.573 409.128 248.849 405.576V405.558Z" fill="#E32227"/>
<path d="M254.681 419.238C254.77 411.585 254.028 403.809 257.828 396.65C265.127 408.634 268.662 421.66 268.697 435.658C265.869 442.675 268.132 450.734 263.094 458.829C260.161 444.972 257.421 432.088 254.699 419.221L254.681 419.238Z" fill="#EBDAA0"/>
<path d="M194.039 448.154C194.128 450.31 194.234 452.467 194.322 454.623C193.509 455.418 192.307 456.072 191.919 457.044C190.363 461.004 186.705 460.403 183.877 460.35C179.882 460.279 183.417 455.86 181.208 454.393C178.415 456.355 178.521 460.084 175.711 463.16C174.88 459.855 174.81 456.638 173.325 454.323C169.896 449.003 171.964 446.493 176.984 444.549C181.243 442.887 183.435 438.999 185.061 434.739C190.699 438.327 189.479 445.096 194.039 448.154Z" fill="#DB1C24"/>
<path d="M144.887 391.613C148.28 404.533 143.438 416.304 139.956 428.323C138.418 433.661 132.957 438.062 135.838 444.513C133.805 448.932 130.341 451.936 125.127 455.259C127.849 445.609 132.091 437.62 133.416 428.8C134.53 420.794 132.851 412.151 138.736 405.223C141.741 401.122 139.107 394.459 144.887 391.613Z" fill="#EBDAA0"/>
<path d="M230.415 475.036C229.849 472.402 229.602 470.352 228.93 468.443C227.534 464.467 227.834 461.533 232.712 460.631C235.204 460.172 236.724 458.457 238.068 456.425C239.976 453.491 242.097 449.355 245.88 453.827C248.796 457.273 253.056 460.861 247.541 466.499C244.201 469.893 239.022 468.108 236.229 472.102C235.894 472.579 235.929 468.567 234.162 467.401C231.44 468.903 232.695 472.208 230.415 475.036Z" fill="#D41D26"/>
<path d="M325.82 476.82C322.232 475.724 319.387 475 316.647 473.975C315.021 473.374 312.9 472.384 312.953 470.563C313.059 467.258 315.781 468.655 317.654 468.619C321.172 468.549 321.985 466.392 321.843 463.299C321.773 461.655 321.295 459.411 323.558 458.881C325.502 458.439 326.527 460.383 327.782 461.549C328.63 462.345 329.302 463.441 330.274 463.988C333.544 465.827 334.905 468.655 333.95 472.119C332.696 476.608 327.605 473.939 325.82 476.82Z" fill="#CC1E29"/>
<path d="M369.107 340.657C372.359 345.182 374.622 350.06 374.639 355.769V366.886C371.546 368.901 371.9 362.679 368.966 365.048C367.269 357.465 365.555 349.865 363.858 342.283C363.045 340.993 362.727 339.543 364.194 338.695C366.456 337.405 367.693 339.42 369.125 340.639L369.107 340.657Z" fill="#DF2B2D"/>
<path d="M327.817 405.681C327.976 403.966 327.994 402.234 328.33 400.555C328.825 398.116 327.163 394.015 331.936 394.475C335.294 394.793 339.907 393.591 340.649 399.123C339.235 403.277 339.589 407.908 336.725 412.485C333.685 410.152 330.751 407.925 327.817 405.681Z" fill="#ECDDAA"/>
<path d="M139.214 405.877C137.287 413.512 135.36 421.148 133.416 428.801C132.285 421.66 132.197 414.52 133.469 407.415C133.876 405.135 133.346 404.198 131.066 404.251L130.659 403.915C130.076 403.226 129.475 402.537 128.892 401.847C130.429 399.019 132.232 396.456 135.484 395.484C139.938 397.941 133.947 402.925 138.082 405.329C138.825 404.799 139.196 405.029 139.214 405.912V405.877Z" fill="#B63435"/>
<path d="M293.158 459.235C290.559 459.235 288.562 459.023 286.618 459.288C284.108 459.624 280.927 461.48 280.008 457.698C278.912 453.208 284.02 453.474 286.141 451.441C288.951 448.754 290.047 451.936 291.072 453.933C291.832 455.435 292.327 457.079 293.175 459.218L293.158 459.235Z" fill="#9A1D34"/>
<path d="M361.081 388.006C359.226 382.598 360.516 378.656 365.482 374.909C366.843 377.454 368.01 380.035 367.709 383.022C365.217 384.312 367.232 391.594 361.081 388.006Z" fill="#C35D58"/>
<path d="M297.31 400.397C298.335 405.911 301.039 411.108 300.509 416.922C299.802 416.799 299.095 416.657 298.37 416.534C296.674 409.464 294.959 402.376 293.139 394.776C296.426 395.978 296.461 398.453 297.31 400.397Z" fill="#E56552"/>
<path d="M131.065 404.232C129.421 409.676 127.778 415.138 126.134 420.581C125.462 420.334 124.808 420.104 124.137 419.857C124.349 413.83 127.353 408.81 130.659 403.879L131.065 404.215V404.232Z" fill="#B63435"/>
<path d="M107.029 397.375C110.352 388.255 114.117 379.612 124.12 373.903C120.904 384.543 113.622 390.8 107.029 397.375Z" fill="#883A42"/>
<path d="M139.213 405.874C138.789 405.751 138.418 405.574 138.082 405.291C140.132 397.514 141.847 389.614 144.392 381.996C145.876 377.542 147.078 372.434 152.328 370.349C149.765 377.401 145.983 384.011 144.922 391.593C143.031 396.348 141.14 401.12 139.248 405.874H139.213Z" fill="#595459"/>
<path d="M168.094 189.877C176.153 192.458 184.16 195.162 192.272 197.583C196.231 198.767 199.872 200.287 202.824 203.221C204.963 205.519 203.177 206.491 201.392 207.446C188.508 205.431 175.906 202.09 163.127 199.492C159.292 198.714 155.739 198.149 152.045 199.598C144.374 200.871 138.595 194.738 131.26 194.349C128.149 194.19 125.162 192.387 121.875 193.253C105.968 189.913 89.7779 188.658 73.7472 186.272C68.9751 185.565 64.3798 183.32 59.4486 182.507C43.029 179.838 34.6159 185.794 31.7526 202.355C28.9954 207.357 30.9397 213.066 29.2076 219.765C24.1174 205.219 18.6559 192.263 17.6484 178C20.5117 175.101 20.2643 171.072 21.2894 167.537C26.1852 150.799 36.8076 139.699 53.51 134.538C66.6598 130.473 68.4272 131.127 76.1333 142.527C78.4663 145.161 79.4914 148.501 81.1528 151.488C82.6551 154.228 84.8998 156.596 86.3845 159.053C85.4124 155.147 79.6859 153.291 80.8878 147.936C87.4273 146.027 89.3714 152.619 93.8608 154.723C89.8486 151.506 86.5082 147.564 81.8068 145.338C79.3677 145.532 77.3352 144.86 76.0273 142.616C75.9919 141.75 76.098 140.848 75.9212 140.017C73.871 129.784 76.6635 126.161 86.4728 129.643C95.7166 132.93 106.321 130.137 114.611 136.73C115.759 137.649 116.519 136.094 117.014 135.051C124.173 136.377 125.304 141.396 124.667 147.511C124.19 151.948 122.193 155.96 121.15 160.237C119.012 169.092 120.037 171.266 128.662 173.899C138.524 176.886 148.21 180.351 158.054 183.391C161.943 184.593 166.114 185.6 168.129 189.842L168.094 189.877Z" fill="#F7A13C"/>
<path d="M208.356 310.666C206.306 317.877 210.336 324.117 211.644 330.78C212.492 335.075 214.454 339.157 215.302 343.452C215.709 345.503 216.893 348.79 211.485 347.482C206.483 346.263 210.071 352.502 207.667 354.304C203.973 350.522 206.2 344.548 202.895 340.465C200.562 341.667 201.693 346.351 197.681 345.167C194.924 344.336 194.765 341.879 194.199 339.564C193.245 335.57 191.972 331.663 190.982 327.669C190.187 324.47 188.667 322.985 185.344 324.594C184.832 312.345 180.13 301.316 175.252 290.182C183.418 297.128 188.967 306.124 196.196 313.724C194.146 302.271 187.483 293.098 183.117 282.511C186.228 286.364 189.374 290.181 192.467 294.07C195.914 298.4 198.229 304.18 205.228 303.844C208.303 304.586 209.417 306.636 209.081 309.641C208.833 309.995 208.568 310.33 208.303 310.684L208.356 310.666Z" fill="#EAD89E"/>
<path d="M242.274 306.122C243.635 315.702 251.129 322.507 253.71 331.591C254.717 335.126 256.962 338.29 257.103 342.214C249.768 341.507 246.375 337.636 245.296 330.602C244.607 326.112 242.486 321.747 237.414 317.894C237.803 327.067 242.663 334.03 242.981 343.911C235.682 333.111 234.568 320.156 223.663 313.175C223.256 318.283 226.296 321.835 227.41 326.236C222.037 321.34 221.33 319.785 220.923 312.362C220.664 307.684 218.443 303.984 214.26 301.262C213.306 307.059 217.194 312.008 216.646 318.883C213.924 315.013 212.033 311.761 208.357 310.647L208.763 310.029C208.604 305.999 208.286 301.863 206.713 298.222C203.744 291.294 206.766 290.18 212.705 291.223C215.055 292.902 217.406 294.599 220.199 296.596C220.552 293.061 217.088 292.23 216.841 289.208C224.282 291.4 229.725 297.002 236.442 300.184C240.383 300.184 242.363 302.146 242.274 306.122Z" fill="#EAD89E"/>
<path d="M201.269 206.473C202.577 205.766 203.036 204.67 202.806 203.239C205.74 202.267 207.26 204.052 208.586 206.208C213.305 214.957 212.298 216.282 202.382 216.901C188.331 217.767 175.464 212.641 162.155 209.796C154.202 208.099 146.407 205.448 138.153 205.607C132.904 205.36 130.041 210.379 125.375 211.44C114.487 209.071 103.918 205.165 92.7828 203.999C85.9958 203.292 91.2982 200.287 91.5633 197.671H76.7344C90.5205 192.811 104.413 193.553 118.305 196.328C126.364 197.936 134.406 199.668 142.696 199.138C152.452 196.469 161.165 201.825 170.444 202.726C176.684 203.327 182.622 206.915 189.144 204.741C193.386 203.893 197.009 207.304 201.251 206.473H201.269Z" fill="#E47730"/>
<path d="M179.299 233.604C187.977 241.964 198.44 247.832 208.302 254.549C212.385 257.324 216.291 260.364 221.894 264.464C214.1 263.404 209.504 259.427 204.025 258.031C201.427 257.359 199.059 254.319 195.983 256.899C193.933 261.053 193.933 261.018 189.196 259.657C181.154 257.341 174.208 252.145 165.795 250.837C160.811 246.418 155.827 242 150.86 237.599C161.5 245.075 174.703 244.792 187.199 250.431C180.253 244.686 180.165 235.195 169.807 232.403C174.933 230.9 177.019 232.738 179.316 233.64L179.299 233.604Z" fill="#D72129"/>
<path d="M125.392 211.439C129.139 209.07 127.901 201.223 135.095 202.655C144.975 204.546 154.696 207.056 164.364 209.777C167.28 210.59 170.886 210.52 171.504 214.709C169.984 220.364 163.816 216.847 161.023 219.993C157.17 220.188 154.66 215.804 150.295 216.989C149.694 219.781 153.441 219.569 153.759 222.591C144.056 218.774 134.724 215.115 125.392 211.457V211.439Z" fill="#C5C0A8"/>
<path d="M165.797 250.835C172.442 247.141 177.232 253.132 182.977 254.069C187.377 254.776 190.683 260.485 195.985 256.915C203.32 259.265 209.435 263.154 213.978 269.623C215.745 272.15 218.591 273.918 220.941 276.038C222.391 279.609 219.845 279.874 217.618 279.573C215.745 279.326 214.013 277.983 211.945 278.813C206.342 275.526 200.138 273.493 196.374 267.131C194.624 264.161 189.534 263.012 185.787 261.422C178.805 258.47 171.736 255.766 165.815 250.835H165.797Z" fill="#8D1F31"/>
<path d="M211.926 278.815C212.474 275.705 214.011 275.28 216.504 277.012C218.253 278.214 220.021 278.939 220.922 276.04C228.045 279.558 231.845 286.946 238.455 291.064C240.24 296.401 244.005 300.396 247.593 304.496C249.502 306.688 251.499 308.933 248.972 311.973C248.865 312.096 248.494 312.114 248.3 312.026C248.052 311.92 247.84 311.672 247.628 311.495C245.843 309.71 244.058 307.907 242.255 306.122C241.124 303.347 238.349 302.199 236.423 300.184C230.29 290.728 220.498 285.461 211.908 278.798L211.926 278.815Z" fill="#DF2D30"/>
<path d="M189.162 206.438C190.258 211.369 186.988 209.125 185.185 208.718C172.99 205.961 160.618 203.946 148.67 200.146C146.778 199.545 144.71 199.457 142.713 199.139C135.767 197.177 128.803 195.233 121.857 193.271C126.806 190.407 131.402 193.412 136.068 194.26C141.405 195.233 146.531 197.46 152.098 197.3C165.089 197.778 177.603 200.199 189.162 206.456V206.438Z" fill="#E9C47E"/>
<path d="M212.705 291.22C212.988 292.333 213.766 294.207 213.447 294.419C210.814 296.169 210.125 292.28 207.385 292.333C208.746 298.184 212.599 303.928 208.764 310.026C207.597 307.958 206.431 305.89 205.264 303.822C204.504 295.815 199.378 289.488 196.056 280.792C203.037 283.567 207.845 287.438 212.705 291.22Z" fill="#D6232B"/>
<path d="M205.511 237.934C206.359 240.851 205.511 242.371 202.382 241.151C197.964 239.454 193.881 236.892 189.073 236.238C189.073 235.654 189.091 235.053 189.109 234.47C190.54 233.869 188.419 228.92 192.608 231.625C196.214 233.958 199.908 236.132 204.468 235.884C205.334 236.291 205.723 236.962 205.528 237.917L205.511 237.934Z" fill="#706869"/>
<path d="M139.091 310.011C138.348 312.097 137.606 314.182 136.864 316.268C135.326 306.671 136.811 297.003 136.068 287.388C138.79 294.705 139.815 302.252 139.073 310.029L139.091 310.011Z" fill="#DD1E21"/>
<path d="M136.156 287.512C131.631 279.629 128.75 271.057 125.445 262.644C131.896 269.696 136.457 277.561 136.156 287.512Z" fill="#DD1E21"/>
<path d="M302.155 151.787C299.963 154.103 297.754 151.151 295.191 151.911C295.544 155.145 300.21 154.368 300.599 158.291C282.412 148.942 262.016 145.725 245.702 132.681C252.631 134.784 259.577 136.87 266.505 138.973C234.497 119.514 199.607 115.148 163.092 119.355C169.861 117.039 176.648 116.102 183.594 114.901C174.368 112.444 165.054 111.03 155.545 110.853C155.545 110.288 155.545 109.704 155.545 109.139C208.179 110.411 258.587 119.355 302.172 151.77L302.155 151.787Z" fill="#FAF9F3"/>
<path d="M366.49 213.154C372.676 232.19 384.889 248.061 393.974 265.577C396.448 267.079 396.148 269.341 395.618 271.657C393.603 275.086 391.252 277.878 389.166 271.922C382.468 252.78 371.457 236.555 356.716 222.769C356.08 222.168 355.514 221.497 354.949 220.825C353.323 218.863 352.845 216.389 353.658 214.215C354.949 210.804 357.741 216.212 359.721 213.137C358.713 209.036 353.605 206.703 353.305 201.684C357.458 202.461 358.678 207.286 362.708 207.834C364.758 209.054 365.536 211.175 366.49 213.154Z" fill="#F8F5EC"/>
<path d="M122.032 146.205C123.323 141.15 119.593 138.375 116.977 135.105C116.536 132.843 115.387 131.128 113.23 130.174C115.192 123.811 122.103 130.174 124.79 125.667C123.446 132.33 128.254 128.901 130.94 128.937C129.915 131.093 125.956 132.436 127.017 132.984C129.791 134.416 127.706 138.976 132.036 139.047C138.028 139.17 143.489 143.96 150.223 139.754C152.645 138.251 157.47 140.62 161.199 141.203C177.866 145.038 194.834 143.182 211.66 143.978C223.166 149.952 236.952 150.305 247.556 158.542C248.458 159.249 249.43 159.849 250.367 160.486C262.456 162.059 271.859 168.952 281.05 176.145C282.587 177.347 283.93 179.45 282.41 181.571C281.067 183.445 278.84 183.657 276.79 183.021C266.928 179.963 255.651 179.839 249.023 169.924C241.954 166.99 236.209 161.069 228.15 160.503C226.259 163.862 230.43 168.192 226.489 171.179C224.421 171.921 223.272 170.154 221.734 169.517C208.584 187.316 198.262 189.189 177.159 177.736C169.647 170.507 160.386 166.283 151.16 161.758C141.298 156.915 132.054 150.818 122.032 146.187V146.205Z" fill="#101C41"/>
<path d="M368.327 275.316C362.706 270.367 357.086 265.419 350.422 259.515C351.766 265.966 356.255 269.961 356.803 276.2C349.379 267.893 347.329 256.051 333.932 251.933C343.794 266.567 348.284 281.82 355.371 298.046C325.643 278.003 300.244 254.761 268.66 240.798C276.331 240.02 282.552 243.856 289.816 246.825C290.382 243.838 285.575 241.841 288.031 239.455C290.948 236.627 294.359 239.048 297.045 240.162C302.648 242.477 307.915 245.623 314.649 247.143C309.948 243.308 305.246 239.472 300.403 235.513C303.408 233.127 304.804 234.135 306.183 234.099C309.877 234.011 315.215 236.804 316.841 233.481C318.962 229.151 311.362 230.034 310.142 225.916C313.164 226.499 315.957 227.03 320.411 227.878C314.543 220.879 307.031 218.935 300.227 214.074C312.899 211.688 320.464 218.988 326.332 225.828C332.553 233.057 339.128 239.525 346.534 245.323C356.573 253.188 362.635 264.022 369.705 274.097C369.228 274.503 368.751 274.927 368.273 275.334L368.327 275.316Z" fill="#E01E24"/>
<path d="M122.307 146.571C128.811 145.422 134.732 147.932 139.486 151.467C146.061 156.345 153.06 159.933 160.625 162.708C167.907 165.376 173.793 169.901 178.688 175.804C180.138 178.438 184.379 179.074 183.92 183.069C183.973 188.106 181.817 189.803 176.567 189.449C174.058 189.272 170.558 185.543 168.349 190.227C153.237 185.437 138.161 180.488 122.978 175.928C118.136 174.479 116.421 171.951 116.969 166.967C117.747 159.862 120.186 153.269 122.307 146.553V146.571Z" fill="#C5C0A2"/>
<path d="M249.698 167.588C257.156 176.125 267.566 178.423 277.888 180.88C278.949 181.127 280.08 181.127 282.607 181.375C272.303 171.954 261.345 166.21 250.369 160.483C253.886 158.168 257.103 158.504 260.956 160.413C277.005 168.384 293.265 175.948 309.42 183.743C311.647 184.821 313.591 185.599 314.704 188.798C316.542 194.047 322.463 195.461 327.076 197.9C332.715 200.887 339.272 202.213 343.708 207.639C332.379 203.697 319.759 204.245 309.667 195.815C306.079 192.81 300.6 191.378 295.775 190.707C284.004 189.063 273.205 182.824 261.045 183.354C257.863 183.495 254.699 184.061 251.483 184.45C257.421 177.221 247.117 175.666 246.746 170.664C246.711 168.649 247.948 167.871 249.698 167.571V167.588Z" fill="#DD1E24"/>
<path d="M264.863 271.94C271.898 267.945 275.804 273.177 280.24 276.5C282.255 278.02 284.376 279.222 286.638 277.737C288.812 276.323 285.543 274.061 287.098 271.498C295.546 280.423 301.945 290.692 311.878 297.992C314.175 295.606 310.022 293.573 311.241 291.222C319.725 298.787 331.62 322.984 338.283 347.127C332.433 336.929 325.151 327.844 317.498 319.007C309.81 310.117 301.98 301.491 292.824 293.997C283.669 286.486 271.474 282.774 264.846 271.94H264.863Z" fill="#E32125"/>
<path d="M418.028 348.558C417.657 349.371 417.268 350.184 416.897 350.997C409.986 335.832 403.075 320.668 396.165 305.503C393.178 298.946 396.889 292.565 395.952 285.23C403.146 291.01 403.34 300.324 409.968 305.132C411.418 306.351 411.347 308.137 411.647 309.78C412.072 318.07 418.399 323.761 421.121 331.043C422.517 334.772 425.433 337.989 424.444 342.407C424.727 343.592 425.009 344.793 425.292 345.978C423.047 347.356 420.096 346.72 418.01 348.558H418.028Z" fill="#EBD39B"/>
<path d="M171.488 214.707C159.345 210.695 147.22 206.683 135.078 202.653C149.288 203.113 162.915 206.524 176.33 210.978C183.312 213.311 190.417 215.008 197.822 215.326C209.205 215.785 209.205 215.856 208.586 206.206L208.498 206.171C210.619 208.132 213.394 207.708 215.903 208.291C217.211 208.61 219.014 208.698 219.12 210.607C219.226 212.728 216.469 211.915 215.621 212.728C218.82 213.064 222.39 208.592 224.175 214.866C206.589 220.469 189.038 218.878 171.488 214.707Z" fill="#252544"/>
<path d="M205.511 237.933C205.157 237.262 204.804 236.572 204.45 235.901C206.783 234.752 209.099 233.603 211.396 232.454C211.06 229.061 207.384 229.043 205.634 225.084C213.871 228.955 221.966 226.463 229.424 229.432C231.51 234.08 236.282 234.398 240.153 236.29C243.44 237.898 247.929 237.527 249.821 241.663C250.156 242.582 251.659 243.996 250.245 244.349C248.407 244.809 246.162 244.402 244.288 243.801C231.669 239.736 218.66 238.428 205.528 237.916L205.511 237.933Z" fill="#E52B2D"/>
<path d="M247.647 311.495C247.152 304.532 241.266 301.12 237.36 296.56C234.656 293.414 236.741 292.601 238.456 291.046C247.77 300.095 256.484 309.586 261.539 321.976C259.347 315.101 247.169 321.711 247.647 311.495Z" fill="#EAD89E"/>
<path d="M399.08 346.172V353.949C390.455 335.02 379.691 317.115 373.646 297.02C381.123 312.661 390.861 327.066 398.249 342.743C401.13 343.274 400.812 344.564 399.08 346.19V346.172Z" fill="#E24E43"/>
<path d="M183.646 182.719C182.161 180.121 178.626 178.972 178.414 175.455C184.812 179.661 191.21 183.726 199.482 182.489C211.236 180.739 217.563 174.076 219.207 161.421C222.07 160.979 222.3 163.295 223.024 165.08C224.739 177.664 221.999 181.835 209.822 184.84C203.83 186.324 197.785 186.519 191.741 185.176C188.718 185.423 186.385 183.408 183.646 182.737V182.719Z" fill="#E1854A"/>
<path d="M191.741 185.158C199.642 185.53 207.1 184.893 214.206 180.386C220.18 176.604 223.962 172.415 223.025 165.062C223.962 166.954 224.916 168.827 225.853 170.718C228.045 171.036 229.07 162.429 232.181 169.888C231.968 170.206 231.756 170.506 231.544 170.824C226.578 175.703 225.871 184.398 216.715 185.653C208.267 186.802 199.995 188.994 191.724 185.158H191.741Z" fill="#7E6D60"/>
<path d="M316.259 358.1C314.474 358.56 314.562 364.516 310.798 359.762C309.737 358.418 309.684 360.946 309.172 361.706C307.369 362.077 305.69 362.024 304.859 360.009C299.645 347.407 291.868 336.219 285.205 324.413C284.675 323.476 284.728 322.186 284.516 321.072C293.017 329.803 298.973 340.161 304.081 351.101C305 353.081 304.541 358.33 309.843 354.053C312.848 351.649 314.527 355.962 316.259 358.1Z" fill="#E4654F"/>
<path d="M276.65 296.753C265.763 288.093 256.095 280.404 245.49 271.956C250.81 270.878 253.143 273.794 255.989 275.491C258.234 276.834 259.736 279.485 263.518 277.011C266.593 274.996 269.74 280.422 269.351 281.217C265.586 289.118 274.883 290.125 276.65 296.753Z" fill="#E57C6E"/>
<path d="M249.801 241.68C244.092 240.867 238.808 238.693 233.576 236.413C230.624 235.123 227.69 233.62 229.405 229.449C241.282 234.027 253.159 238.605 265.037 243.165C259.381 245.957 255.086 240.213 249.783 241.68H249.801Z" fill="#E78E85"/>
<path d="M249.696 167.588C248.706 168.613 247.734 169.656 246.745 170.681C242.609 171.847 238.473 173.049 234.302 174.163C231.05 175.046 231.014 173.138 231.545 170.822L231.438 170.964C233.895 168.542 233.524 166.527 230.855 164.424C229.07 163.01 227.108 161.455 227.709 158.627C234.355 156.594 238.879 161.084 243.917 163.947C245.896 165.078 247.77 166.351 249.696 167.57V167.588Z" fill="#756567"/>
<path d="M211.662 143.993C198.123 143.816 184.602 147.916 171.046 144.275C167.723 143.392 164.1 143.445 161.201 141.218C178.027 142.172 194.995 140.369 211.662 143.993Z" fill="#C82329"/>
<path d="M224.173 214.85C221.116 212.164 217.174 213.648 213.038 212.694C214.93 211.987 216.149 211.527 218.164 210.767C215.142 208.098 209.362 211.598 208.496 206.172C219.825 205.553 228.239 212.199 237.924 217.872C232.357 218.933 228.716 214.832 224.191 214.868L224.173 214.85Z" fill="#E47730"/>
<path d="M399.08 346.173C399.292 344.901 399.275 343.699 398.25 342.727C397.472 340.835 397.03 338.927 398.126 336.275C403.199 341.825 404.294 347.958 404.4 354.975C399.664 353.208 401.678 348.4 399.08 346.173Z" fill="#E2604E"/>
<path d="M369.106 340.656C368.046 343.413 364.299 337.616 363.839 342.3C361.577 339.03 359.703 335.601 358.396 330.688C363.238 333.71 369.866 333.056 369.106 340.656Z" fill="#E39373"/>
<path d="M248.865 285.566C255.794 287.334 257.19 288.553 262.139 297.444C257.72 293.485 253.284 289.525 248.865 285.566Z" fill="#E5836E"/>
<path d="M189.162 206.437L152.099 197.282C152.629 196.115 153.583 195.391 154.82 195.621C170.445 198.608 186.493 199.827 201.287 206.455C197.239 210.273 193.21 205.607 189.162 206.42V206.437Z" fill="#3F232E"/>
<path d="M81.4368 141.447C89.0545 146.591 96.3894 152.034 101.055 160.288C91.794 160.129 87.4461 152.883 81.755 147.651C79.2629 145.707 80.0405 143.586 81.4191 141.447H81.4368Z" fill="#1D193B"/>
<path d="M81.4358 141.447C80.7642 143.551 80.8349 145.636 81.7717 147.651C82.7084 154.968 90.4498 158.963 91.4572 167.34C84.4758 159.475 78.8554 151.911 76.1158 142.578L76.0098 142.685C78.4312 144.929 79.8805 142.95 81.4535 141.447H81.4358Z" fill="#F8F6EA"/>
<path d="M205.986 153.429C215.318 158.519 216.891 165.094 210.794 172.553C205.668 178.845 199.076 181.337 191.175 179.357C185.201 177.855 181.649 173.702 180.623 167.657C180.305 165.819 179.404 163.274 182.037 162.302C184.583 161.365 186.262 162.337 187.393 165.147C189.284 169.884 192.713 173.154 198.28 171.704C204.077 170.202 205.757 165.695 205.615 160.145C205.562 157.954 205.827 155.762 205.969 153.394L205.986 153.429Z" fill="#EDE4BE"/>
<path d="M227.709 158.645C230.767 161.155 233.825 163.665 237.13 166.369C235.345 167.871 234.567 170.734 231.421 170.964C229.954 162.339 227.533 174.322 225.836 170.699C227.798 165.202 223.521 161.031 222.442 155.693C224.457 156.807 226.066 157.726 227.692 158.627L227.709 158.645Z" fill="#F1E8C2"/>
<path d="M199.784 159.371C197.875 159.371 196.709 158.47 196.391 156.95C195.949 154.917 196.939 153.379 199.042 153.291C200.65 153.22 201.622 154.475 201.764 156.136C201.887 157.78 201.198 158.929 199.784 159.389V159.371Z" fill="#C6C4CC"/>
<path d="M418.028 348.558C419.07 346.473 417.939 344.352 417.462 342.019C420.891 342.761 421.987 346.508 425.309 345.978C428.703 352.959 432.521 359.764 433.245 368.354C428.173 361.743 423.1 355.151 418.028 348.54V348.558Z" fill="#D31D25"/>
<path d="M324.76 234.221C335.824 237.19 342.47 245.179 349.645 252.549C349.257 253.026 348.85 253.521 348.461 253.998C340.561 247.406 332.66 240.813 324.76 234.221Z" fill="#EEB190"/>
<ellipse cx="195" cy="163" rx="15" ry="14" fill="#EDE4BE"/>
</svg>
