<svg width="54" height="65" viewBox="0 0 54 65" fill="none" xmlns="http://www.w3.org/2000/svg">
<path d="M44.9923 61.9759C41.5032 65.3582 37.6936 64.8241 34.0265 63.222C30.1457 61.5842 26.5854 61.513 22.491 63.222C17.3641 65.4294 14.6582 64.7885 11.5963 61.9759C-5.77816 44.0673 -3.21471 16.7951 16.5096 15.7982C21.3161 16.0474 24.6628 18.4329 27.4754 18.6465C31.6767 17.792 35.6998 15.3354 40.1859 15.6558C45.562 16.083 49.6208 18.2192 52.291 22.0644C41.1828 28.7222 43.8174 43.3553 54 47.4497C51.9706 52.7902 49.336 58.0951 44.9567 62.0115L44.9923 61.9759ZM27.1194 15.5846C26.5854 7.64502 33.0296 1.09399 40.4351 0.453125C41.4676 9.63881 32.1039 16.4747 27.1194 15.5846Z" fill="white"/>
</svg>
