<svg xmlns="http://www.w3.org/2000/svg" viewBox="0 0 297.04 73.75"><defs><style>.cls-1,.cls-2{fill:#fff;}.cls-2{stroke:#fff;stroke-width:2px;}</style></defs><g id="Layer_2" data-name="Layer 2"><g id="Layer_1-2" data-name="Layer 1"><path class="cls-1" d="M22.77,22.51v1.38H17.41V22.22c0-4.57-1.74-7.25-5.81-7.25s-5.8,2.68-5.8,7.18c0,11.38,17.05,12.47,17.05,26.76,0,7.69-3.7,12.69-11.46,12.69S0,56.6,0,48.91V46H5.29V49.2c0,4.57,1.89,7.25,6,7.25s6-2.68,6-7.25c0-11.32-17-12.4-17-26.69,0-7.83,3.62-12.69,11.24-12.69S22.77,14.82,22.77,22.51Z"/><path class="cls-1" d="M78.84,34v5.15H67.17v22H61.51V10.33H81.67v5.14H67.17V34Z"/><line class="cls-2" x1="41.47" x2="41.47" y2="73.75"/><path class="cls-1" d="M106.88,17.8a7.1,7.1,0,0,1,1.5-4.86,6.87,6.87,0,0,1,9.05,0,7.06,7.06,0,0,1,1.51,4.86v.82h-3.87V17.54a2.92,2.92,0,0,0-.54-2,2.29,2.29,0,0,0-3,0,2.92,2.92,0,0,0-.54,2,4.58,4.58,0,0,0,.6,2.36,9.57,9.57,0,0,0,1.49,1.94c.59.61,1.23,1.21,1.91,1.82a17.21,17.21,0,0,1,1.92,2,10.09,10.09,0,0,1,1.49,2.46,8.08,8.08,0,0,1,.6,3.24,7,7,0,0,1-1.55,4.86,7,7,0,0,1-9.12,0,7,7,0,0,1-1.54-4.86v-1.6h3.87v1.86a2.71,2.71,0,0,0,.57,2,2.15,2.15,0,0,0,1.55.56,2.13,2.13,0,0,0,1.54-.56,2.67,2.67,0,0,0,.58-2,4.67,4.67,0,0,0-.59-2.36,10,10,0,0,0-1.49-1.94c-.6-.61-1.24-1.22-1.92-1.82a19.16,19.16,0,0,1-1.92-2A10.54,10.54,0,0,1,107.47,21,8.26,8.26,0,0,1,106.88,17.8Z"/><path class="cls-1" d="M136.85,37.6h-4.14l-.7-4.72h-5l-.71,4.72h-3.76l4.17-26.06h6Zm-9.35-8.26h3.95l-2-13.18Z"/><path class="cls-1" d="M149.58,37.6l-.15-.48a4.28,4.28,0,0,1-.13-.56,7.69,7.69,0,0,1-.08-.86c0-.34,0-.78,0-1.3V30.31a4,4,0,0,0-.64-2.57,2.52,2.52,0,0,0-2-.75h-1.42V37.6H141V11.54h6.18q3.2,0,4.63,1.49a6.28,6.28,0,0,1,1.43,4.51v2q0,4-2.68,5.29a3.62,3.62,0,0,1,2.14,2.07,9.18,9.18,0,0,1,.58,3.48v4a16.52,16.52,0,0,0,.08,1.69,5,5,0,0,0,.37,1.47Zm-4.47-22.33v8h1.6a2.58,2.58,0,0,0,1.81-.6,2.85,2.85,0,0,0,.65-2.15V18a3.33,3.33,0,0,0-.5-2,1.93,1.93,0,0,0-1.59-.63Z"/><path class="cls-1" d="M157.73,17.8a7.06,7.06,0,0,1,1.51-4.86,6.87,6.87,0,0,1,9,0,7.1,7.1,0,0,1,1.5,4.86v.82h-3.87V17.54a2.92,2.92,0,0,0-.54-2,2.27,2.27,0,0,0-3,0,2.92,2.92,0,0,0-.54,2,4.57,4.57,0,0,0,.59,2.36,10.35,10.35,0,0,0,1.49,1.94c.6.61,1.24,1.21,1.92,1.82a19.05,19.05,0,0,1,1.92,2,10.41,10.41,0,0,1,1.49,2.46,8.26,8.26,0,0,1,.59,3.24,7,7,0,0,1-1.54,4.86,7,7,0,0,1-9.13,0,7,7,0,0,1-1.54-4.86v-1.6h3.87v1.86a2.67,2.67,0,0,0,.58,2,2.13,2.13,0,0,0,1.54.56,2.15,2.15,0,0,0,1.55-.56,2.71,2.71,0,0,0,.58-2,4.58,4.58,0,0,0-.6-2.36,9.66,9.66,0,0,0-1.49-1.94c-.59-.61-1.23-1.22-1.92-1.82a18.1,18.1,0,0,1-1.91-2A9.9,9.9,0,0,1,158.33,21,8.08,8.08,0,0,1,157.73,17.8Z"/><path class="cls-1" d="M174.11,17.8a6.84,6.84,0,0,1,1.6-4.86,7.13,7.13,0,0,1,9.24,0,6.84,6.84,0,0,1,1.6,4.86V31.35a6.84,6.84,0,0,1-1.6,4.86,7.16,7.16,0,0,1-9.24,0,6.84,6.84,0,0,1-1.6-4.86Zm4.1,13.81a2.78,2.78,0,0,0,.57,2,2.08,2.08,0,0,0,1.55.58,2.06,2.06,0,0,0,1.54-.58,2.74,2.74,0,0,0,.58-2V17.54a2.76,2.76,0,0,0-.58-2,2.09,2.09,0,0,0-1.54-.57,2.12,2.12,0,0,0-1.55.57,2.81,2.81,0,0,0-.57,2Z"/><path class="cls-1" d="M195.11,18.73V37.6h-3.69V11.54h5.14l4.21,15.6V11.54h3.65V37.6h-4.21Z"/><path class="cls-1" d="M221.77,23.12h5.28v3.72h-5.28V37.6h-4.1V11.54H228.5v3.73h-6.73Z"/><path class="cls-1" d="M236.66,11.54V31.65a2.71,2.71,0,0,0,.57,2,2.15,2.15,0,0,0,1.55.56,2.13,2.13,0,0,0,1.54-.56,2.67,2.67,0,0,0,.58-2V11.54h3.87V31.39a6.94,6.94,0,0,1-1.54,4.85,7,7,0,0,1-9.12,0,6.94,6.94,0,0,1-1.55-4.85V11.54Z"/><path class="cls-1" d="M253.48,18.73V37.6H249.8V11.54h5.14l4.2,15.6V11.54h3.65V37.6h-4.21Z"/><path class="cls-1" d="M268,11.54h6.48a6,6,0,0,1,4.6,1.64,6.87,6.87,0,0,1,1.51,4.8V31.16A6.92,6.92,0,0,1,279.08,36a6,6,0,0,1-4.6,1.63H268Zm4.1,3.73V33.88h2.31a2,2,0,0,0,1.52-.56,2.71,2.71,0,0,0,.56-2V17.8a2.74,2.74,0,0,0-.56-2,2.06,2.06,0,0,0-1.52-.55Z"/><path class="cls-1" d="M284.94,17.8a7.06,7.06,0,0,1,1.51-4.86,6.87,6.87,0,0,1,9.05,0A7.1,7.1,0,0,1,297,17.8v.82h-3.87V17.54a2.92,2.92,0,0,0-.54-2,2.27,2.27,0,0,0-3,0,2.92,2.92,0,0,0-.54,2,4.57,4.57,0,0,0,.59,2.36,10.35,10.35,0,0,0,1.49,1.94c.6.61,1.24,1.21,1.92,1.82a19.05,19.05,0,0,1,1.92,2,10.41,10.41,0,0,1,1.49,2.46,8.26,8.26,0,0,1,.59,3.24,7,7,0,0,1-1.54,4.86,7,7,0,0,1-9.13,0,7,7,0,0,1-1.54-4.86v-1.6h3.87v1.86a2.67,2.67,0,0,0,.58,2,2.13,2.13,0,0,0,1.54.56,2.15,2.15,0,0,0,1.55-.56,2.71,2.71,0,0,0,.58-2,4.58,4.58,0,0,0-.6-2.36,9.66,9.66,0,0,0-1.49-1.94c-.59-.61-1.23-1.22-1.92-1.82a18.1,18.1,0,0,1-1.91-2A9.9,9.9,0,0,1,285.54,21,8.08,8.08,0,0,1,284.94,17.8Z"/><path class="cls-1" d="M121.6,47.41c2.14,0,3.11,1.29,3.11,3.41v6.91c0,2.1-1,3.39-3.11,3.39h-3.21V47.41Zm0,12.32c1.1,0,1.63-.68,1.63-1.94v-7c0-1.25-.53-1.94-1.65-1.94h-1.64V59.73Z"/><path class="cls-1" d="M133.67,47.41V61.12h-1.53V47.41Z"/><path class="cls-1" d="M147.29,50.72V51.9h-1.45V50.64c0-1.23-.49-2-1.61-2s-1.61.75-1.61,2v7.25c0,1.24.51,2,1.61,2s1.61-.74,1.61-2V55.15h-1.41V53.78h2.86v4c0,2.08-1,3.45-3.1,3.45s-3.08-1.37-3.08-3.45V50.72c0-2.08,1-3.45,3.08-3.45S147.29,48.64,147.29,50.72Z"/><path class="cls-1" d="M156.26,47.41V61.12h-1.53V47.41Z"/><path class="cls-1" d="M165.8,61.12V48.8h-2.52V47.41h6.56V48.8h-2.53V61.12Z"/><path class="cls-1" d="M178.42,58.36l-.53,2.76h-1.41l2.63-13.71h2.21L184,61.12h-1.53l-.53-2.76Zm.2-1.31h3l-1.54-7.92Z"/><path class="cls-1" d="M191.14,61.12V47.41h1.53V59.73h3.91v1.39Z"/><path class="cls-1" d="M214.32,58.36l-.53,2.76h-1.41L215,47.41h2.22l2.62,13.71h-1.53l-.53-2.76Zm.19-1.31h3.06L216,49.13Z"/><path class="cls-1" d="M233,50.7v.37h-1.45v-.45c0-1.23-.47-2-1.57-2s-1.56.73-1.56,1.94c0,3.08,4.6,3.37,4.6,7.23,0,2.08-1,3.43-3.1,3.43s-3.07-1.35-3.07-3.43v-.78h1.43v.86c0,1.24.51,2,1.6,2s1.61-.72,1.61-2c0-3-4.58-3.35-4.58-7.21,0-2.11,1-3.43,3-3.43S233,48.62,233,50.7Z"/><path class="cls-1" d="M246.25,50.7v.37h-1.44v-.45c0-1.23-.48-2-1.57-2s-1.57.73-1.57,1.94c0,3.08,4.6,3.37,4.6,7.23,0,2.08-1,3.43-3.09,3.43s-3.08-1.35-3.08-3.43v-.78h1.43v.86c0,1.24.51,2,1.61,2s1.61-.72,1.61-2c0-3-4.59-3.35-4.59-7.21,0-2.11,1-3.43,3-3.43S246.25,48.62,246.25,50.7Z"/><path class="cls-1" d="M258.48,53.48v1.38h-3.35v4.87h4.12v1.39H253.6V47.41h5.65V48.8h-4.12v4.68Z"/><path class="cls-1" d="M268.63,61.12V48.8H266.1V47.41h6.57V48.8h-2.53V61.12Z"/><path class="cls-1" d="M285.64,50.7v.37h-1.45v-.45c0-1.23-.47-2-1.57-2s-1.57.73-1.57,1.94c0,3.08,4.61,3.37,4.61,7.23,0,2.08-1,3.43-3.1,3.43s-3.08-1.35-3.08-3.43v-.78h1.43v.86c0,1.24.51,2,1.61,2s1.61-.72,1.61-2c0-3-4.59-3.35-4.59-7.21,0-2.11,1-3.43,3-3.43S285.64,48.62,285.64,50.7Z"/></g></g></svg>