<svg width="57" height="23" viewBox="0 0 57 23" fill="none" xmlns="http://www.w3.org/2000/svg">
<path d="M2.07841 21.633C2.40243 21.6025 2.79259 21.4355 3.07954 21.2736C3.16953 21.2231 3.09098 21.1278 3.15177 21.088C3.27071 21.0104 3.40671 21.0308 3.52197 20.9456C3.56 20.9168 3.45988 20.7591 3.50085 20.7329C3.72565 20.5903 3.96985 20.5712 4.20852 20.4672C5.38431 19.9548 6.57087 19.5637 7.78942 19.1487C8.1908 19.0121 8.64585 18.7208 9.08633 18.6744C9.13789 18.6692 9.14978 18.8281 9.16257 18.838C9.3619 18.9886 9.22957 18.697 9.31458 18.6304C9.65221 18.3668 10.0719 18.2378 10.4549 18.1962C10.6179 18.1789 10.5436 18.5214 10.6546 18.3103C10.6624 18.296 10.5789 18.1464 10.617 18.1177C10.7035 18.0528 10.8953 18.0314 10.967 17.9982C11.1052 17.9334 11.1296 17.9285 11.2663 17.8893C11.4528 17.8343 11.6538 17.6939 11.8646 17.6755C11.9098 17.6721 11.898 17.8519 11.9742 17.8612C12.0505 17.8704 12.2281 17.8071 12.2785 17.7517C12.3291 17.6962 12.2676 17.5741 12.2703 17.5416C12.2907 17.2674 12.5953 17.5564 12.6246 17.5576C13.1563 17.5693 13.5242 17.257 13.986 17.1314C14.3373 17.0363 14.7286 16.9993 15.0604 16.8989C15.4549 16.7789 15.7664 16.5978 16.157 16.5072C16.1981 16.4975 16.2037 16.7037 16.254 16.6922C16.788 16.57 17.3079 16.4046 17.7976 16.1297C17.8468 16.1019 17.7318 15.9511 17.7781 15.9132C18.0629 15.685 18.4794 15.2101 18.8764 15.8952C19.0873 15.8061 19.344 15.7033 19.498 15.5007C19.5978 15.37 19.4239 15.2192 19.6008 15.2552C19.6407 15.2631 19.6401 15.4374 19.6964 15.437C19.9337 15.4353 20.1599 15.3162 20.4008 15.3396C20.4499 15.3448 20.4782 15.493 20.498 15.5156C20.6627 15.6976 20.7417 15.2996 20.7729 15.2636C21.0127 14.9935 21.2451 15.0094 21.5167 14.9291C21.5796 14.9105 21.5591 15.1257 21.6216 15.1148C21.9451 15.0552 22.2649 14.9484 22.5503 14.7761C22.6135 14.7373 22.504 14.5892 22.5319 14.5622C22.655 14.4452 22.7746 14.7493 22.8942 14.6431C22.9195 14.6212 22.8634 14.4839 22.8643 14.4668C22.8793 14.199 23.0485 14.5255 23.0721 14.5272C23.3724 14.5563 23.4456 14.146 23.7217 14.1242C23.7549 14.122 23.7345 14.3212 23.8246 14.3039C24.4257 14.1898 25.0329 13.9669 25.574 13.6605C25.658 13.6131 25.5556 13.4964 25.5566 13.4782C25.5759 13.1927 25.7338 13.5237 25.7669 13.5286C26.0256 13.5578 26.1613 13.2049 26.436 13.5748C27.3798 13.1545 28.424 13.1109 29.2944 12.4629C29.3055 12.4551 29.2345 12.2903 29.2569 12.2755C29.527 12.0949 29.5464 12.3769 29.8366 12.6461C29.9097 12.7136 29.9484 12.278 29.9534 12.2454C29.9717 12.1255 29.8484 11.8853 29.8588 11.8601C29.9473 11.6605 30.1664 12.5086 30.348 12.4571C30.3532 12.4541 30.285 12.306 30.2958 12.2862C30.3293 12.2243 30.3943 12.2724 30.4256 12.2058C30.4967 12.052 30.4173 11.6322 30.6479 11.8239C30.6772 11.849 30.783 12.3353 30.9389 12.2664C30.9788 12.2485 31.1127 12.2115 31.2217 12.1732C31.2826 12.1518 31.3357 12.13 31.3613 12.1108C31.4329 12.0569 31.3333 11.9189 31.3371 11.9106C31.4952 11.6452 31.3888 11.5844 31.4103 11.2523C31.4321 10.9213 31.6082 11.6453 31.6754 11.7125C31.7425 11.7795 31.8522 11.5664 31.8741 11.4969C31.896 11.4274 31.8194 11.3436 31.8443 11.3007C32.0114 11.0191 32.0477 11.6268 32.1562 11.7186C32.4127 11.936 32.3982 11.3656 32.5459 11.2668C32.5859 11.2401 32.585 11.3712 32.6274 11.3713C32.795 11.3697 32.8407 11.1773 33.0623 11.2778C33.0985 11.2941 33.3344 11.5716 33.359 11.3109C33.3623 11.2733 33.2867 11.1519 33.3444 11.1032C33.4307 11.0301 33.5993 10.9501 33.7193 10.9632C33.8077 10.9731 33.7807 11.2169 33.8602 11.1206C33.8955 11.0776 33.7768 10.9739 33.8462 10.9038C33.9152 10.8339 34.1269 10.7786 34.208 10.7599C34.2889 10.7412 34.2935 10.919 34.3031 10.9283C34.3607 10.9807 34.5366 11.016 34.55 11.0119C35.2405 10.8333 35.7863 10.3721 36.4782 10.2696C36.5325 10.2613 36.5489 10.4455 36.5577 10.446C36.7577 10.4666 36.4808 10.0452 36.5598 9.85391C36.6457 10.2122 36.7005 10.1268 36.8373 10.1287C36.9032 10.13 36.9106 10.2763 36.9203 10.2887C37.0709 10.4701 37.0545 10.1835 37.0545 10.1239C37.0547 9.90461 37.1899 10.124 37.1906 9.97722C37.1916 9.83146 37.0399 9.66037 37.1612 9.62749C37.2324 9.74391 37.2403 10.1004 37.3477 10.127C37.752 10.2283 38.3213 9.77898 38.5893 9.67055C38.8588 9.56171 38.9552 9.55854 39.1028 9.46522C39.3694 9.29655 39.3348 9.57317 39.5496 9.63149C39.7649 9.68963 39.4971 9.11348 39.4846 8.97624C39.4717 8.83921 39.5394 8.96415 39.5501 8.88355C39.5606 8.803 39.4657 8.73534 39.5324 8.68649C39.5991 8.63765 39.8717 8.80739 39.9385 8.93493C40.0799 9.20516 40.0779 9.53343 40.2435 9.36912C40.2529 9.35947 40.1688 9.21207 40.2076 9.18312C40.5184 8.95807 40.8726 8.8444 41.1868 8.63326C41.2298 8.60403 41.1345 8.44058 41.1589 8.42157C41.4127 8.22314 41.3989 8.55076 41.6553 8.8336C41.4885 8.40512 41.494 8.11091 41.7122 8.04287C41.843 8.00189 41.8779 8.20035 42.0034 8.31006C42.0411 8.34317 42.0944 8.18379 42.1383 8.2689C42.2823 8.54699 42.2942 8.90298 42.4794 8.70435C42.4874 8.69516 42.4075 8.54327 42.4386 8.52331C42.6393 8.39349 42.7593 8.69351 43.0088 8.65937C43.2045 8.63264 43.4797 8.34507 43.6835 8.25046C43.5301 7.75857 43.7649 7.81115 43.949 8.12672C44.0824 8.07141 44.2377 8.0456 44.3569 7.95841C44.398 7.92855 44.3246 7.79486 44.3257 7.77769C44.3413 7.50893 44.5013 7.82165 44.535 7.82564C44.8953 7.8546 45.0832 7.52422 45.4651 7.67625C45.4787 7.68178 45.6004 8.01889 45.6066 7.74399C45.6067 7.72514 45.4579 7.60003 45.5988 7.54426C45.7403 7.48829 45.9578 7.22203 46.2069 7.31986C46.2671 7.34334 46.4746 7.58406 46.5075 7.33687C46.5117 7.30339 46.4674 7.20957 46.4698 7.14916C46.4782 6.95641 46.6172 7.2923 46.5998 6.97641C46.5825 6.66054 46.6655 6.39487 46.9297 6.53624C46.9379 6.5402 47.0696 6.79987 47.1321 6.77615C47.2318 6.73805 47.3589 6.63701 47.4657 6.60652C47.5168 6.59201 47.5362 6.77219 47.546 6.77262C47.9167 6.76422 48.1147 6.53809 48.4605 6.36077C48.5236 6.32798 48.7881 6.50122 48.8619 6.27806C48.9431 6.03362 48.5407 5.24255 48.9295 5.34169C49.0859 5.38107 49.5788 6.39008 49.6481 5.7682C50.1508 5.76359 50.4912 5.35208 51.0133 5.40494C51.0368 5.40718 51.1934 5.68291 51.2411 5.66392C51.3117 5.63516 51.309 5.4847 51.358 5.45974C51.5623 5.35166 51.7975 5.40908 52.0012 5.32656C52.0786 5.29554 52.0068 5.16109 52.0992 5.12406C52.1915 5.08719 52.3126 5.25608 52.413 5.12583C52.4886 5.02682 52.4671 4.61236 52.582 4.52807C52.7037 4.90608 52.7897 4.87118 52.9777 4.92319C53.0138 4.93337 53.0221 5.07539 53.0413 5.08702C53.1204 5.13727 53.1405 5.01131 53.2185 5.06849C53.2375 5.08217 53.278 5.21158 53.2957 5.23008C53.4478 5.39232 53.5118 5.05363 53.5226 4.99477C53.5645 4.77095 53.6637 4.925 53.718 4.82527C53.7722 4.72559 53.627 4.66626 53.7034 4.59242C53.8617 4.4396 54.1092 4.38656 54.2981 4.32209C54.3737 4.29717 54.3751 4.48609 54.3871 4.48654C54.5581 4.48211 54.6602 4.24936 54.8536 4.56717C54.6881 3.64276 54.975 4.62449 55.1449 4.37712C55.1582 4.35725 55.0509 3.92902 54.9638 3.88804C54.8768 3.84712 54.8143 4.01046 54.6902 3.94298C54.6609 3.92721 54.4113 3.57166 54.3865 3.5531C54.1922 3.40814 54.3669 4.04369 54.3703 4.0805C54.4032 4.47888 54.1158 4.10153 54.0655 4.08477C53.8357 4.0079 53.703 4.14552 53.5158 4.09772C53.3936 4.0672 53.2565 3.65786 53.1795 3.6953C52.9234 3.8195 53.0067 4.42365 52.5997 4.00246C52.5126 3.91271 52.4278 3.44536 52.3422 3.85952C52.3369 3.88561 52.2921 4.25421 52.1455 4.07468C52.127 4.05203 52.0869 3.92055 52.0697 3.91375C51.955 3.87076 51.9254 3.99438 51.809 3.97518C51.6926 3.95599 51.5482 3.91844 51.4466 3.99831C51.3853 4.04624 51.3714 4.31835 51.3565 4.38847C51.3156 4.58989 51.1279 4.33763 51.134 4.56451C51.1399 4.79261 51.3527 5.07662 51.2406 5.25949C51.1299 4.91985 51.0092 4.57346 50.8945 4.23294C50.561 4.34815 50.2631 4.56 49.9201 4.64832C49.8775 4.65892 49.8641 4.46226 49.8169 4.4689C49.6181 4.49776 49.4927 4.67915 49.28 4.68711C49.1151 4.69254 48.8883 4.54923 48.7142 4.54877C48.7367 4.96916 48.4598 4.90855 48.299 4.9966C48.2425 5.02728 48.2785 5.13042 48.2461 5.17752C48.1232 5.35263 48.0933 4.98422 48.0324 4.94335C47.7719 4.76914 47.9947 5.55577 47.7649 5.60459C47.7528 5.60744 47.4804 5.23486 47.4525 5.21498C47.2739 5.08437 47.4757 5.36644 47.4058 5.42135C47.2783 5.52163 47.208 5.65175 47.0007 5.58136C46.94 5.56028 46.7418 5.33666 46.7067 5.56686C46.702 5.59702 46.751 5.73265 46.7433 5.74381C46.5998 5.9343 46.4631 5.50287 46.313 5.38825C46.163 5.27365 46.091 5.62189 46.084 5.71809C46.0651 5.96722 46.1796 5.79314 46.1909 5.81358C46.3254 6.05705 46.1928 6.0483 46.1086 6.09784C46.2247 6.52631 46.0897 6.53939 46.0208 6.1475C46.0134 6.10463 46.0963 6.12277 46.1086 6.09784C45.9018 5.70562 45.7465 5.69443 45.7108 6.1303C45.6941 6.33457 45.8271 6.5266 45.5841 6.51517C45.4738 6.51018 45.4235 6.20622 45.3114 6.15311C45.0552 6.03206 44.8782 6.38327 44.658 6.40286C44.5781 6.40994 44.6028 6.2278 44.5465 6.22713C44.3969 6.22489 44.3136 6.3811 44.1584 6.36077C44.1442 6.35872 44.1237 6.18206 44.0806 6.19273C43.7525 6.27041 43.5041 6.46232 43.1687 6.5664C43.0064 6.61671 42.6876 6.61165 42.5251 6.68067C42.2425 6.7995 41.9564 7.15094 41.6893 7.16629C41.5151 7.17708 41.5004 6.9987 41.3963 6.90531C41.1947 6.72423 41.0764 7.19184 41.0627 7.26288C41.0623 7.26521 41.214 7.26299 41.1652 7.37136C41.1757 7.56371 41.0645 7.26319 41.0627 7.26288C41.0536 7.30884 40.7852 7.43039 40.7199 7.41493C40.6844 7.40643 40.6537 7.24246 40.6361 7.24103C40.2195 7.21031 39.8324 7.2815 39.4755 7.46834C39.4698 7.47353 39.5329 7.64837 39.5188 7.65836C39.323 7.80256 39.1172 7.62678 38.8971 7.55143C38.6775 7.47598 38.5474 7.56154 38.5308 7.89866C38.3827 7.90062 38.2259 8.09382 38.1373 8.20907C38.049 8.32423 37.9305 7.98257 37.9186 7.97864C37.5448 7.85063 37.4223 8.10226 37.1111 8.22734C36.9632 8.28746 36.6449 8.32635 36.4675 8.33722C36.3281 8.34495 36.2734 8.44919 36.1377 8.43256C36.1193 8.4304 36.0904 8.27129 36.0836 8.26681C35.8948 8.1216 36.0705 8.47985 36.0625 8.55535C36.0339 8.82982 36.0099 8.97854 35.8031 8.91387C35.7551 8.89924 35.4805 8.38971 35.3988 8.37907C35.293 8.36622 35.3857 8.55056 35.2733 8.53216C35.2637 8.53077 35.2303 8.41013 35.171 8.43319C34.8948 8.53879 34.6074 8.69837 34.3104 8.77168C34.2699 8.78217 34.2657 8.57661 34.2062 8.58863C33.9266 8.64543 33.6321 8.73853 33.3927 8.90464C33.334 8.94612 33.4138 9.06775 33.4111 9.11149C33.3939 9.37654 33.1687 9.06389 33.1464 9.06315C32.6142 9.03553 32.3316 9.45892 31.7948 9.45063C31.7653 9.44956 31.4497 9.13548 31.4494 9.48273C31.4491 9.50591 31.4521 9.86024 31.3069 9.65908C31.2978 9.64649 31.3059 9.46132 31.2117 9.507C31.1174 9.55264 30.925 9.48573 30.8413 9.71054C30.8148 9.78142 30.8064 10.1381 30.6015 9.91434C30.5986 9.91106 30.5805 9.88558 30.5539 9.85105C30.4527 9.71887 30.2287 9.45415 30.265 9.7929C30.2727 9.86319 30.4086 10.2905 30.1909 10.1137C30.1491 10.0793 30.175 9.96791 30.0801 9.93009C29.9346 9.87159 29.8096 10.0321 29.608 9.88196C29.5728 9.85523 29.3808 9.59365 29.3574 9.84036C29.3537 9.879 29.4208 10.0155 29.3795 10.0446C29.1832 10.184 28.9255 10.1532 28.7318 10.3158C28.6633 10.3731 28.7698 10.5943 28.7057 10.6799C28.6416 10.7654 28.4934 10.8722 28.3771 10.7903C28.2608 10.7084 28.2491 10.311 28.1118 10.3179C27.5156 10.3475 27.0226 10.7217 26.4733 10.9108C26.3917 10.9389 26.4229 10.7868 26.2999 10.8187C25.8466 10.9357 25.0333 11.0297 24.7223 11.4211C24.4722 11.7349 24.9155 11.7964 24.7016 11.9555C24.5982 12.0317 24.3512 11.6355 24.3198 11.6296C24.0091 11.5677 23.8734 11.8117 23.6112 11.8217C23.557 11.8237 23.5577 11.6349 23.5121 11.6385C23.3556 11.6495 23.2237 11.7704 23.0789 11.7954C23.0139 11.8062 22.9881 11.6694 22.9329 11.6958C22.8004 11.7577 22.6931 11.8481 22.5923 12.0112C22.5831 12.026 22.7131 12.169 22.6117 12.2038C22.4478 12.2597 22.2763 12.4406 22.0488 12.3663C21.9812 12.3437 21.8937 12.039 21.8303 12.2839C21.8169 12.335 21.9521 12.6926 21.721 12.4154C21.682 12.3695 21.324 12.0084 21.2837 12.3164C21.273 12.3975 21.2777 12.7195 21.1962 12.6913C21.1848 12.6863 21.1762 12.512 21.1151 12.5117C20.9006 12.5135 20.695 12.5893 20.4763 12.5945C20.4177 12.5956 20.4519 12.4032 20.366 12.4103C20.1298 12.4295 19.8611 12.5504 19.656 12.6643C19.5807 12.7065 19.6757 12.8317 19.6741 12.8487C19.6487 13.1238 19.4993 12.8032 19.4624 12.7923C19.2344 12.7289 19.1293 12.9279 18.9372 12.9359C18.8843 12.9386 18.8751 12.7686 18.8612 12.757C18.7196 12.6458 18.8761 12.9124 18.8198 12.9621C18.6625 13.1022 18.4564 13.1452 18.2663 13.1755C18.1965 13.1864 18.2211 12.9796 18.159 12.9915C17.7899 13.0588 17.4223 13.179 17.0993 13.3781C17.0385 13.4159 17.1198 13.5476 17.115 13.5841C17.0832 13.8389 16.8577 13.5652 16.8176 13.5443C16.6348 13.4485 16.6133 13.5906 16.4783 13.6023C15.8173 13.6572 15.0652 13.9536 14.4871 14.1675C13.7324 14.4457 13.1706 14.7457 12.4238 14.9114C12.3764 14.9222 12.3713 14.7188 12.3298 14.7256C11.796 14.8219 11.3024 15.0364 10.7655 15.1235C10.7215 15.131 10.7338 14.9336 10.6615 14.9396C10.5128 14.9505 10.3367 15.0091 10.2096 15.1056C10.1475 15.1524 10.2835 15.2819 10.2201 15.3258C10.0731 15.4283 9.90176 15.4887 9.72623 15.5054C9.65142 15.5121 9.70845 15.2981 9.61515 15.3211C8.97836 15.4747 8.34945 15.6115 7.77687 16.024C7.73761 16.0523 7.80186 16.4382 7.6891 16.3915C7.6536 16.2892 7.62048 16.1665 7.58697 16.056C6.65119 16.2457 5.77625 16.6229 4.8596 16.8931C4.82093 16.9044 4.83383 16.6872 4.75869 16.7082C4.32353 16.8293 3.88572 16.8888 3.49372 17.2074C3.45476 17.2388 3.57293 17.5827 3.42818 17.565C3.40257 17.5616 3.19356 17.5681 3.12208 17.5059C3.11206 17.4963 3.1033 17.3232 3.03875 17.3356C2.66438 17.4104 2.28929 17.5521 1.94955 17.7513C1.8948 17.7838 2.00533 17.9407 1.96674 17.9653C1.69265 18.1388 1.3311 18.0947 1.08822 18.3301C0.92582 18.4883 1.0787 18.7699 1.05771 19.0935C1.05472 19.1392 0.937992 19.1779 0.978831 19.3519C1.0812 19.7893 1.26794 20.248 1.37028 20.7161C1.39241 20.8169 1.20447 20.7528 1.36398 20.9676C1.37493 20.9819 1.51176 21.0305 1.56234 21.1044C1.59745 21.1554 1.60965 21.3402 1.66959 21.4014C1.72951 21.4626 1.73371 21.3038 1.82358 21.3705C1.91371 21.4382 1.93872 21.6455 2.07841 21.633ZM37.7377 8.72514C37.6822 8.92234 37.4864 8.31767 37.6428 8.43005C37.6506 8.4362 37.7407 8.71538 37.7377 8.72514ZM50.4056 5.01754C50.3515 5.32714 50.1372 4.96175 50.1699 4.72544C50.2027 4.48935 50.4222 4.92364 50.4056 5.01754ZM51.8804 4.78021C51.7859 5.04023 51.496 4.18675 51.7203 4.30855C51.7332 4.31535 51.8859 4.76509 51.8804 4.78021ZM1.55239 19.0501C1.55315 19.0586 1.47012 19.0896 1.46588 19.0821C1.36743 18.8997 1.53351 18.8378 1.55239 19.0501ZM53.3497 4.56286C53.3357 4.6946 53.151 4.60409 53.1683 4.44028C53.1822 4.3085 53.367 4.39896 53.3497 4.56286ZM32.4641 10.9676C32.4651 10.9772 32.4068 11.0029 32.3931 10.9511C32.3493 10.7844 32.4473 10.8068 32.4641 10.9676ZM55.7385 3.84069C55.3959 3.98132 55.4015 4.75809 55.7606 4.56005C55.8256 4.52419 55.5408 4.37922 55.6095 4.28795C55.7354 4.12144 55.9806 4.53499 56.0722 4.24495C56.0886 4.19197 55.7575 3.83109 55.7375 3.83989C55.7379 3.84015 55.7382 3.84042 55.7385 3.84069ZM37.894 9.47466C37.8943 9.48333 37.8123 9.51578 37.8079 9.50839C37.7051 9.3284 37.8702 9.26294 37.894 9.47466ZM29.0215 12.3598C29.0218 12.3783 28.8307 12.4499 28.8198 12.4358C28.6273 12.1476 29.0132 12.002 29.0215 12.3598ZM43.6829 8.2363C43.8331 8.40301 43.9495 8.39294 43.9487 8.12709C43.8617 8.16738 43.7708 8.19683 43.6829 8.2363Z" fill="#B83337"/>
</svg>
