<svg width="1237" height="955" viewBox="0 0 1237 955" fill="none" xmlns="http://www.w3.org/2000/svg">
<g clip-path="url(#clip0_69_511)">
<path d="M42.6099 677.099C42.7337 672.415 42.4686 668.12 39.0398 664.126C34.0909 658.364 36.3002 651.223 37.6434 644.878C39.1281 637.897 38.969 631.004 38.9867 624.04C35.7169 621.318 36.4063 617.712 37.0426 614.266C38.1384 608.504 39.4462 602.777 41.3021 597.21C42.0974 594.841 42.6277 590.971 46.8519 593.569C47.3114 593.852 47.4881 594.665 47.6295 594.364C47.877 593.869 47.7886 593.216 47.6295 592.65C46.304 588.143 48.2128 583.972 48.9728 579.677C49.6798 575.665 50.9523 571.971 45.9151 569.16C42.8751 567.464 43.9532 563.381 44.1299 560.164C44.3067 556.947 45.3318 553.819 45.1374 550.567C45.8974 540.227 49.6444 530.383 50.2453 520.008C50.3867 517.692 50.4397 515.395 50.5458 513.079C50.1393 507.918 52.0128 503.27 54.1337 498.816C58.4817 489.608 61.7161 479.975 65.4807 470.537C66.6649 470.678 68.0082 466.702 68.9096 470.449C69.6342 473.436 66.117 476.37 68.4323 479.94C75.5551 477.872 80.9812 473.524 85.2408 467.515C87.1673 464.793 87.1673 461.983 85.3999 459.367C83.0138 455.867 80.9813 459.013 78.8073 459.95C75.5906 461.346 72.5329 464.775 68.7329 461.063C66.0994 454.276 70.2882 449.063 74.5831 445.952C88.4222 435.895 99.999 423.205 113.891 413.289C116.277 411.593 118.433 409.489 121.633 409.472C122.993 409.719 123.948 410.373 124.195 411.822C122.481 414.12 122.552 417.213 120.095 419.829C123.153 417.248 121.597 412.529 125.91 411.504C129.233 412.6 128.738 415.128 128.543 417.796C128.048 424.053 128.031 430.328 128.596 436.584C128.579 443.336 125.539 449.292 123.736 455.372C125.061 454.241 125.98 452.332 127.766 451.289C128.879 450.618 130.046 450.353 131.247 450.918C132.025 451.254 132.661 453.357 133.722 451.307C135.33 448.179 137.115 445.156 139.183 442.346C140.544 440.508 141.993 438.016 144.662 438.9C147.455 439.819 146.801 442.664 146.766 444.98C147.278 440.066 148.48 435.347 150.689 430.929C152.368 427.57 153.659 424.407 158.802 424.477C163.945 424.53 164.829 417.779 169.142 415.835C174.992 416.047 173.419 419.811 172.712 423.028C174.444 419.334 174.426 414.756 177.307 411.292C180.064 407.969 184.253 407.51 184.041 411.981C183.352 425.997 191.464 438.511 190.068 452.456C189.944 453.64 189.45 454.718 188.831 455.726C186.551 458.2 184.889 456.433 182.892 455.072C180.807 453.658 181.178 447.808 177.201 450.653C173.772 453.11 168.576 455.231 169.424 461.205C169.583 462.354 169.654 463.52 169.884 463.962C176.07 460.675 182.45 465.323 188.442 463.45C192.914 467.179 191.641 472.446 191.942 475.574C194.61 466.649 194.769 455.178 203.766 447.065C213.328 451.572 209.068 459.844 209.669 464.492C211.03 451.484 216.58 437.079 221.652 422.568C223.225 418.044 224.852 411.504 230.808 412.476C235.81 413.289 234.219 419.688 235.244 423.806C236.357 428.277 234.625 433.014 235.827 436.036C236.799 429.09 233.494 420.235 241.519 413.608C248.199 415.552 244.877 423.629 249.613 426.757C254.792 437.115 254.774 448.638 257.054 457.758C257.213 454.188 255.057 448.232 259.865 443.53C262.056 442.258 263.806 441.215 264.548 438.051C266.51 429.78 270.469 429.126 276.373 435.347C278.9 438.016 280.243 441.745 283.92 443.76C287.101 437.45 285.864 429.674 291.113 424.389C291.891 424.018 292.704 423.929 293.534 424.071C301.099 431.123 303.627 441.604 310.325 448.638C311.739 443.195 305.518 436.319 312.8 431.176C318.137 429.974 315.928 425.043 317.077 421.897C318.12 419.069 316.971 415.428 320.4 413.484C328.088 417.567 329.838 410.55 333.231 406.591C335.882 404.912 338.869 409.242 341.45 406.114C344.578 401.801 347.671 402.508 350.464 406.361C352.956 409.807 355.819 413.024 357.498 416.135C355.678 410.338 351.754 404.187 354.299 396.887C358.258 396.18 356.473 392.098 358.241 390.083C361.475 384.975 357.887 378.966 360.397 373.769C364.55 371.224 364.692 366.505 366.459 362.652C370.966 358.357 373.317 361.804 375.014 365.392C377.594 370.835 379.468 376.597 380.846 382.023C380.846 379.019 380.069 374.724 384.293 373.54C387.969 372.514 389.666 376.332 391.433 378.93C393.713 382.235 395.834 385.647 398.15 389.146C398.273 385.593 397.708 379.62 402.78 382.642C414.074 389.376 425.651 396.375 432.191 408.729C431.342 412.476 428.338 414.491 425.669 416.771C415.824 425.202 406.899 434.605 397.991 443.99C392.706 449.557 388.765 456.062 385.742 463.22C380.935 474.602 375.703 485.825 367.626 495.405C365.328 498.145 363.826 501.344 362.518 504.631C356.968 518.682 349.934 531.85 339.612 543.426C341.379 545.388 343.536 544.399 345.321 544.575C353.203 545.371 357.304 549.206 355.254 556.647C352.461 566.739 356.685 572.907 364.603 576.884C375.049 582.116 382.26 591.36 391.946 597.44C397.425 600.868 402.71 604.598 408.472 607.55C403.258 604.739 398.008 601.964 394.332 597.033C389.33 590.335 383.338 584.873 375.456 581.568C370.471 579.482 367.113 576.001 368.456 569.885C369.128 566.863 367.078 564.936 365.47 562.868C362.253 558.768 362.801 554.367 365.417 550.549C368.068 546.679 372.08 548.11 375.88 549.206C386.113 552.158 395.658 556.647 404.725 562.161C407.234 563.681 409.85 564.689 412.66 565.396C411.14 564.76 408.931 565.078 408.03 563.823C400.995 553.996 389.348 554.279 379.556 550.549C376.817 549.507 373.989 548.605 371.497 547.032C369.535 545.795 366.919 544.346 367.82 541.712C368.686 539.114 371.832 538.867 373.936 539.627C382.013 542.543 385.318 535.049 390.815 532.362C390.55 531.832 390.178 531.39 389.666 531.019C386.909 528.987 386.414 526.053 386.396 522.942C383.551 519.018 378.513 519.265 374.925 516.809C373.423 515.784 371.974 514.635 372.433 512.585C372.91 510.446 374.837 510.305 376.605 510.092C380.917 509.58 385.318 511.86 389.454 509.845C389.86 509.12 389.825 508.572 389.348 508.131C386.52 505.444 381.147 504.154 382.472 498.975C383.904 493.355 389.401 494.875 393.519 493.938C406.616 490.986 418.422 495.688 430.406 499.735C434.559 501.132 438.766 502.386 443.184 503.04C427.684 502.051 416.231 492.047 403.346 485.278C402.109 484.624 400.942 483.545 401.137 481.796C401.402 479.533 413.491 469.742 416.178 469.53C420.154 469.229 424.379 470.855 427.984 468.116C428.603 463.75 418.528 463.273 424.273 457.175C425.103 456.291 423.619 456.627 423.318 456.521C420.649 455.637 418.069 454.418 418.793 451.113C419.447 448.196 422.205 447.33 424.909 446.818C432.032 445.475 438.73 449.009 446.542 448.992C445.234 443.283 442.583 438.316 443.927 432.625C444.492 430.222 441.434 428.931 439.72 427.376C437.776 425.608 435.107 423.876 435.973 420.925C437.051 417.195 440.78 418.38 443.502 417.92C445.835 417.514 448.221 417.726 450.501 418.38C457.059 420.288 463.209 421.331 470.085 418.097C475.104 415.746 480.23 419.387 484.613 421.808C484.419 421.119 485.285 422.993 485.161 422.586C481.396 410.656 491.418 412.671 495.836 413.996C502.252 415.923 508.774 417.549 514.059 418.875C505.363 419.016 497.003 412.317 486.893 412.635C484.525 412.706 482.174 410.868 482.439 408.111C482.722 405.053 485.621 405.071 487.918 404.947C491.082 404.788 494.246 405.76 497.551 405.513C497.268 404.664 496.809 404.381 496.296 403.993C493.168 401.695 487.158 400.422 489.262 395.456C491.418 390.366 497.091 391.373 501.775 392.646C507.325 394.148 512.804 394.943 518.106 391.868C512.839 394.996 507.36 394.342 501.934 392.522C498.647 391.426 496.049 388.969 496.349 385.417C496.667 381.687 500.343 381.334 503.189 381.246C519.874 380.751 535.48 375.979 550.751 369.722C554.021 368.379 557.326 367.071 559.818 364.402C562.151 361.892 563.335 359.665 561.02 355.936C556.69 348.99 557.573 346.321 565.315 342.132C576.291 336.193 586.1 328.911 594.619 319.774C599.939 314.065 603.492 308.109 601.035 299.961C600.257 297.363 600.469 294.535 602.042 292.29C608.564 283.011 613.902 272.972 624.966 267.404C647.501 256.04 670.549 245.347 689.496 227.99C691.864 225.816 695.028 224.65 698.068 223.536C714.912 217.297 731.26 209.945 747.15 201.567C764.276 192.076 783.736 188.346 801.234 179.686C805.264 177.689 809.77 175.638 814.613 177.848C819.191 181.789 824.175 184.37 830.573 183.468C833.49 183.062 836.353 184.299 838.916 185.819C842.433 187.887 842.945 190.626 840.471 193.861C838.315 196.671 835.504 198.827 833.136 201.426C830.98 203.794 828.01 205.968 828.276 209.485C829.177 221.733 821.471 225.834 811.432 228.008C810 228.308 808.692 229.051 807.261 229.369C787.96 234.035 768.023 229.864 748.617 233.399C744.428 234.159 741.194 234.318 740.239 239.903C739.444 244.604 734 245.453 730.43 247.026C734.088 246.442 738.207 246.407 742.219 247.22C744.888 247.75 748.511 248.015 747.327 252.54C740.08 262.332 729.935 267.793 718.906 272.176C704.519 277.885 690.45 284.354 676.328 290.664C674.349 291.406 672.457 292.325 670.584 293.297C663.585 297.716 655.631 299.908 647.996 302.842C642.446 304.98 637.922 308.091 635.376 313.588C640.749 312.085 646.352 311.997 651.814 310.937C670.725 306.854 689.725 303.337 708.955 301.18C713.126 300.721 719.595 298.564 720.603 303.531C721.663 308.816 714.858 309.947 710.564 311.396C691.051 317.989 670.814 321.311 650.506 324.122C643.931 325.871 638.045 330.679 630.357 327.533C627.812 326.49 625.178 329.795 622.775 331.404C619.929 333.295 617.401 335.716 614.026 336.706C629.897 331.351 647.006 331.103 662.719 325.023C668.057 323.839 672.952 325.854 677.937 327.144C680.446 327.78 683.469 328.752 683.857 331.545C684.37 335.274 680.482 335.539 678.184 336.953C671.786 339.092 665.317 340.93 658.565 341.832C652.733 342.609 647.466 344.606 642.517 348.371C635.765 353.514 626.857 355.017 619.204 353.302C614.132 352.171 611.922 353.62 608.759 355.9C598.808 363.112 589.44 371.366 576.839 373.911C590.483 371.277 603.845 367.742 616.341 361.45C618.639 360.301 621.626 358.764 623.57 361.397C625.408 363.889 623.305 366.47 621.82 368.591C616.005 376.88 607.362 382.271 600.24 389.234C597.995 391.426 594.69 392.628 593.647 396.463C598.278 400.281 605.754 393.476 609.448 400.387C611.286 404.293 608.193 405.407 605.736 406.661C602.679 408.217 599.798 410.002 597.253 412.317C592.551 417.195 587.585 421.72 581.346 424.601C575.849 427.128 576.114 429.886 580.603 433.438C584.721 436.69 589.264 439.554 592.374 443.919C593.93 446.093 595.538 448.762 593.612 451.148C591.614 453.622 588.716 452.385 586.347 451.201C580.798 448.409 576.255 444.273 571.66 440.137C566.092 435.117 561.002 429.267 552.943 427.517C550.203 437.079 551.9 444.361 560.384 450.3C566.57 454.63 571.395 460.798 575.796 467.055C577.404 469.353 579.896 471.544 577.934 474.885C570.617 476.794 566.817 471.138 562.063 467.55C559.323 463.22 554.958 460.622 550.945 457.811C544.653 453.41 539.192 448.249 534.296 442.399C527.863 434.711 526.131 434.622 517.877 441.445C522.808 440.649 526.89 440.42 528.304 446.517C529.17 450.264 533.289 451.13 536.399 452.668C539.987 454.453 544.424 454.824 546.704 458.819C546.933 459.65 546.933 460.48 546.739 461.311C541.048 467.603 532.105 468.08 521.111 462.884C526.484 465.977 532.44 466.437 538.485 466.26C543.628 466.118 548.33 467.037 552.271 470.555C556.46 475.362 560.384 480.417 564.166 485.543C567.312 489.802 568.461 494.221 561.126 495.758C554.48 497.155 553.791 504.366 549.337 507.919C544.724 511.913 540.111 507.759 535.498 507.777C544.494 508.714 552.165 512.797 559.482 517.746C567.595 524.356 576.573 529.764 584.916 536.056C588.468 539.538 592.816 542.172 595.892 546.166C597.182 547.828 598.472 549.736 597.147 551.751C595.839 553.731 593.523 553.395 591.473 553.006C587.638 552.281 584.439 550.161 581.063 548.375C568.602 541.801 557.167 533.317 543.893 528.279C538.45 526.212 532.9 524.232 525.547 523.808C531.026 528.58 531.539 534.978 535.198 539.715C536.824 541.818 537.089 544.01 535.321 546.131C533.359 548.464 530.814 548.747 528.11 547.757C524.681 546.502 522.313 543.815 519.785 541.376C514.183 535.933 508.986 536.693 504.78 543.78C503.171 546.502 500.785 547.085 498.063 546.961C494.316 546.802 490.693 545.972 486.628 544.646C492.16 547.297 497.392 548.711 503.083 549.029C513.317 549.613 514.112 550.726 513.617 560.712C513.829 561.561 513.864 562.409 513.741 563.275C512.928 566.103 510.966 567.641 508.156 568.224C503.171 569.09 498.788 565.732 493.945 566.244C496.278 572.43 502.217 574.304 507.13 577.079C512.751 580.242 518.23 583.601 523.373 587.401C526.36 589.61 529.771 592.721 524.31 596.273C520.245 597.811 516.498 596.485 512.769 595.001C503.366 590.741 496.579 582.575 487.37 578.015C483.305 576.001 479.205 573.95 476.253 579.659C475.97 580.437 475.617 581.161 475.21 581.886C471.888 588.39 463.793 592.137 464.641 601.222C464.835 603.308 461.142 603.962 458.791 604.156C454.408 604.527 450.024 605.093 446.419 604.757C456.334 608.504 462.679 616.669 467.115 626.62C468.211 629.077 468.688 631.87 466.143 633.867C463.81 635.705 461.177 635.298 458.649 634.079C456.493 633.036 454.867 631.322 453.135 629.731C449.688 626.55 446.436 623.121 442.566 620.434C439.667 618.419 436.221 615.998 432.845 617.765C429.239 619.639 430.671 624.022 430.264 627.398C430.123 628.547 430.14 627.097 430.264 628.282C430.971 635.316 427.925 638.403 421.127 637.543C430.211 640.247 437.634 645.108 441.894 653.91C443.326 656.879 444.651 660.06 442.336 663.047C439.985 666.07 436.715 665.628 435.019 664.992C439.508 666.264 445.606 667.855 450.289 672.397C452.923 674.96 455.185 677.912 453.4 681.712C451.721 685.264 448.151 684.928 444.881 684.646C437.511 683.992 430.529 681.729 423.495 679.608C419.642 678.46 415.453 676.48 411.688 679.485C406.722 683.444 403.116 681.517 399.705 677.452C396.471 674.059 392.07 673.493 387.828 672.397C381.324 670.736 374.554 669.339 371.797 663.913C374.572 668.579 375.102 669.94 371.196 672.768C367.166 675.667 368.156 677.54 370.683 680.245C372.274 681.959 373.989 683.567 375.438 685.388C379.309 690.248 383.02 691.433 387.068 685.529C388.217 683.868 390.125 682.843 392.14 682.206C402.038 680.315 410.592 682.684 418.122 689.594C423.088 694.154 429.345 697.247 433.746 702.444C436.574 705.784 438.059 709.814 434.93 713.685C431.802 717.555 427.648 716.884 423.689 714.922C418.882 712.518 415.17 708.7 411.352 705.024C407.164 700.994 403.47 696.328 397.195 693.235C397.938 701.277 401.685 705.996 408.136 709.089C411.565 710.733 415.718 712.606 414.339 717.396C412.908 722.38 408.312 722.469 404.088 721.956C399.139 721.338 394.085 721.108 389.525 718.757C387.386 717.644 385.23 716.725 382.791 717.538C374.236 720.383 367.873 717.29 363.031 709.796C361.687 716.071 361.846 716.954 365.275 721.815C369.764 728.16 375.756 732.95 382.119 737.227C389.56 742.229 395.976 748.062 400.341 756.015C402.038 759.108 404.318 761.865 407.146 764.057C410.292 766.514 413.014 767.839 415.329 762.731C417.821 757.235 421.038 759.02 423.919 762.696C426.977 766.602 429.469 771.074 434.241 773.283C435.69 774.768 437.564 775.369 439.526 775.775C450.06 779.982 459.993 785.496 472.329 791.064C468.335 778.674 463.775 767.645 470.686 756.651C471.322 753.222 470.633 749.705 471.393 746.312C472.047 743.378 473.39 740.444 476.907 740.797C479.77 741.08 481.131 743.661 481.308 746.471C481.556 750.218 481.785 753.929 483.217 757.447C486.557 766.125 492.832 772.611 499.354 778.921C502.394 781.873 505.557 782.209 509.693 780.777C515.809 778.674 521.482 781.943 522.649 787.352C523.744 792.477 520.086 796.065 512.557 796.154C508.65 796.207 506.105 796.26 507.608 801.103C506.388 806.741 507.449 812.079 509.587 817.345C511.107 821.128 512.733 824.999 512.733 829.17C512.733 834.278 509.958 836.734 505.451 833.924C494.246 826.96 480.354 823.708 474.026 809.887C471.251 803.824 464.005 801.474 459.109 796.348C461.955 803.383 464.994 809.728 467.345 816.356C468.901 820.721 471.11 826.253 466.09 829.117C461.636 831.644 458.084 827.261 454.92 824.203C453.86 823.178 452.976 822.011 452.163 820.792C448.274 812.131 440.816 807.253 433.145 802.322C430.741 805.486 433.163 807.501 434.047 809.745C436.344 813.775 439.349 817.469 440.233 822.135C441.081 826.625 441.328 830.99 435.655 832.74C431.766 833.146 428.444 831.697 425.298 829.629C420.119 824.221 414.852 818.901 408.1 815.225C406.987 817.239 408.754 818.972 408.79 820.88C409.037 822.029 409.32 823.213 409.232 824.38C408.949 828.392 409.62 833.747 403.735 833.482C398.68 833.27 395.392 829.541 394.774 824.168C392.741 806.317 386.856 790.675 369.711 780.83C368.616 784.471 370.065 787.829 370.153 791.17C370.242 794.775 370.312 798.557 366.477 800.378C362.235 802.393 358.241 800.908 355.148 797.868C347.707 790.569 342.793 782.156 345.303 769.837C337.774 784.082 328.583 776.023 319.887 773.212C321.354 773.707 322.803 774.396 324.129 774.45C333.974 774.821 333.072 788.695 344.243 789.172C353.027 789.544 356.297 800.007 361.334 806.617C362.924 808.72 364.179 811.089 365.947 813.068C372.15 820.014 374.448 819.625 378.177 810.93C379.485 807.872 380.829 804.761 384.911 805.097C388.393 805.398 391.327 807.147 392.087 810.664C393.201 815.843 398.998 821.375 391.416 826.271C389.754 827.349 390.62 828.816 391.451 830.071C392.087 831.061 392.883 831.945 393.466 832.97C395.64 836.734 399.263 840.729 396.029 845.006C392.777 849.301 387.987 846.862 384.417 845.89C396.471 851.439 407.358 859.87 417.963 868.69C420.225 870.563 422.735 873.002 421.073 876.184C419.129 879.878 415.524 878.676 412.431 877.757C401.278 874.469 393.13 865.508 382.119 861.938C386.555 864.2 391.168 866.127 395.463 868.531C399.829 870.97 404.424 874.558 398.132 880.037C394.986 881.433 391.822 879.683 388.659 880.037C388.988 885.693 381.164 888.644 365.187 888.892C386.184 903.933 407.411 916.34 430.017 926.415C446.348 933.696 462.485 941.385 479.099 947.977C482.068 949.162 486.186 949.78 485.974 954.552H454.178C452.905 953.633 451.438 953.669 449.971 953.669C415.082 953.669 380.21 953.669 345.321 953.669C343.854 953.669 342.387 953.633 341.114 954.552H-180C-178.427 952.626 -176.076 950.823 -174.008 951.371C-165.313 953.651 -156.511 948.932 -147.992 952.025C-141.965 954.217 -136.45 950.876 -130.618 950.964C-118.864 951.159 -107.111 951.018 -95.357 951.018C-91.5393 951.018 -87.6332 951.512 -83.9039 950.929C-68.2973 948.455 -52.7615 950.204 -37.155 950.311C-20.9828 950.417 -4.43943 950.487 11.8564 947.871C19.2797 946.687 26.862 950.222 34.5327 949.268C36.795 948.985 39.7997 949.904 40.8602 947.359C42.0621 944.443 39.1281 942.746 37.5197 940.802C35.4518 938.292 28.8063 939.6 31.1923 933.414C33.2956 927.97 37.4843 925.177 43.2639 924.541C50.7932 923.71 58.1988 923.357 65.8165 924.488C78.4538 926.362 90.9674 928.571 104.206 933.325C97.0297 936.33 97.5422 942.94 95.3152 948.72C102.367 949.586 108.43 954.835 115.906 951.07C118.84 949.586 122.11 948.861 122.057 944.69C122.004 940.643 122.94 936.065 117.037 935.075C110.056 931.523 111.028 924.382 109.914 918.426C109.243 914.873 109.137 911.25 107.599 907.892C108.041 908.97 108.43 910.083 108.783 911.197C109.49 913.459 110.462 916.199 107.634 917.312C104.806 918.426 103.764 915.527 102.579 913.618C98.0901 906.319 95.1738 898.524 94.5376 889.846C94.0957 883.837 91.9925 878.022 91.9395 871.942C90.7376 865.897 87.0966 862.292 81.0696 861.054C78.8426 860.63 78.3831 859.481 79.6203 857.608C74.7598 852.323 70.4826 846.473 62.7412 844.759C56.8733 843.451 55.4593 838.343 57.0677 833.694C64.6147 811.919 57.6155 791.664 51.1997 771.356C49.3616 765.559 48.9021 759.638 49.9272 754.018C51.4826 745.605 49.4677 737.881 47.7179 729.963C45.0314 727.259 45.6499 724.537 47.6825 721.815C49.0258 715.24 45.9858 710.079 42.3449 705.095C37.237 695.745 37.0955 686.448 42.6099 677.205V677.099Z" fill="#121C40"/>
<path d="M54.7295 541.811C56.0904 547.891 53.2095 553.883 53.7574 559.804C57.1509 560.935 57.0449 556.127 60.403 557.259C61.2867 569.048 56.9742 580.006 54.3938 591.441C52.2375 589.85 54.3937 586.987 51.7072 585.644C50.3816 595.895 46.2634 605.422 45.9276 615.744C42.2867 627.426 40.3248 639.498 37.2318 651.481C33.8737 635.663 33.2197 619.897 34.0857 603.619C35.2699 581.243 43.736 561.112 49.8337 540.203C52.0254 539.036 53.2272 540.857 54.7119 541.829L54.7295 541.811Z" fill="#D41B23"/>
<path d="M49.5681 668.801C49.4797 678.098 49.3914 687.394 49.3031 696.691C47.4826 706.677 45.6621 716.663 43.7356 727.268C40.8016 725.554 40.8899 722.938 41.049 720.605C41.703 710.742 39.3346 700.739 42.6397 691C43.2937 689.056 43.2406 686.847 42.1448 685.008C36.6657 675.835 36.8778 670.197 43.276 659.292C45.6797 662.986 41.8797 666.662 43.3644 670.409C45.662 670.887 47.1114 667.705 49.5681 668.801Z" fill="#BE1D29"/>
<path d="M54.6423 713.411C54.6423 716.132 54.66 718.837 54.6777 721.559C52.5037 731.545 53.4051 742.008 49.8349 751.8C48.9865 754.115 50.4535 756.289 51.4786 758.445C58.6721 773.61 57.9121 790.171 59.8386 806.272C53.3521 797.718 53.087 787.749 52.7688 777.693C52.6274 773.097 55.1018 767.459 46.459 765.939C42.3232 765.215 42.8535 757.173 44.9921 754.256C49.4107 748.212 48.0674 741.955 47.9437 735.751C47.8023 728.893 48.686 722.319 50.6479 715.814C51.2488 713.835 51.673 711.484 54.66 713.393L54.6423 713.411Z" fill="#A2192D"/>
<path d="M98.8823 863.521C105.404 871.033 102.859 880.913 105.581 889.485C107.613 895.866 109.275 902.211 113.746 909.281C115.655 901.027 109.54 895.936 110.653 888.778C119.773 900.267 118.466 914.707 123.98 926.672C123.803 930.561 127.568 933.442 126.737 938.108C123.556 937.277 122.973 934.467 122.213 932.399C116.875 917.941 106.942 906.028 100.349 892.26C96.1781 883.547 99.3064 873.826 96.1603 864.971C95.7715 863.893 97.6981 863.575 98.8823 863.521Z" fill="#A61E26"/>
<path d="M54.7286 541.811C53.1026 541.263 51.4766 540.733 49.8506 540.185C51.3706 528.52 52.378 516.748 56.6198 505.613C56.7082 505.066 56.8143 504.518 56.9027 503.97C57.2208 504.429 57.5212 504.889 57.8394 505.348C61.9398 517.933 56.5668 529.721 54.7286 541.793V541.811Z" fill="#962236"/>
<path d="M86.5613 849.206C86.6497 850.514 86.7734 851.822 88.0106 852.653C89.8664 860.253 91.7399 867.87 93.8432 876.425C86.7557 870.84 82.0897 857.124 84.2813 850.108C84.4404 849.613 85.7836 849.489 86.579 849.188L86.5613 849.206Z" fill="#A41B2C"/>
<path d="M438.354 399.671C439.45 400.131 440.404 402.022 441.73 400.272C443.038 398.558 439.609 398.929 440.245 397.338C440.016 393.68 442.349 391.47 444.77 389.35C454.792 380.548 464.919 371.852 474.605 362.661C477.097 360.31 479.677 357.624 483.742 359.144C484.449 359.745 484.661 360.487 484.52 361.424C484.326 362.856 484.82 361.282 484.926 361.495C486.517 358.101 489.964 355.68 490.052 351.508C494.86 340.833 505.005 335.071 513.241 327.966C537.208 307.234 558.276 283.639 580.81 261.528C588.552 253.928 596.488 246.611 605.06 239.983C608.082 237.632 611.105 235.016 615.205 237.932C615.965 241.785 612.342 242.581 610.804 244.366C614.162 242.404 616.566 238.763 619.906 236.218C627.754 230.226 635.884 226.161 646.206 223.828C683.8 215.344 719.467 201.028 753.384 182.558C757.255 180.455 760.966 178.034 765.509 177.662C771.041 177.875 775.725 176.019 779.507 171.954C784.191 168.472 788.945 165.202 795.149 165.273C797.04 165.644 798.595 166.439 799.143 168.472C796.881 175.082 789.723 175.789 785.392 179.925C774.805 184.626 763.688 188.32 754.48 195.743C739.563 204.74 723.497 211.279 707.218 217.306C703.295 218.756 699.707 220.558 696.543 223.298C683.093 234.91 668.264 244.313 652.18 251.878C643.679 255.872 635 259.884 627.418 265.292C619.783 270.736 615.665 279.715 610.079 287.191C609.567 287.88 609.832 289.595 610.327 290.496C615.841 300.518 609.496 307.34 603.77 314.021C595.215 323.989 584.222 330.847 572.751 336.998C565.398 340.939 565.416 341.628 572.539 346.206C574.872 347.708 574.501 349.582 573.953 351.562C572.521 356.775 568.969 359.992 564.09 362.113C546.716 369.607 528.971 375.457 509.741 375.44C508.062 375.44 506.383 375.687 504.439 375.829C508.009 383.552 515.539 387.37 520.629 383.128C525.878 378.763 528.247 383.093 531.817 382.598C521.318 389.897 508.699 383.482 496.273 387.989C502.742 391.683 508.893 393.326 512.446 399.477H491.66C503.043 405.663 516.281 406.282 527.681 412.309C519.303 410.382 510.113 413.192 502.442 406.777C499.296 404.143 495.814 410.877 491.13 406.759C492.774 412.786 497.634 414.518 499.773 419.82C493.18 417.187 487.472 414.73 481.657 412.644C478.988 411.69 475.877 409.322 474.605 415.066C473.88 418.3 469.992 416.232 467.747 415.631C460.094 413.634 452.529 411.266 443.816 413.44C448.305 416.515 452.388 419.308 457.16 422.56C447.934 430.142 454.65 435.303 460.306 440.659C454.898 445.872 449.348 443.999 443.674 442.426C438.089 440.871 432.38 439.722 426.565 442.691C429.004 446.933 433.706 446.314 436.764 449.284C434.643 449.726 432.769 450.132 430.03 450.715C434.872 454.126 439.079 457.078 443.462 460.153C434.855 466.198 425.752 464.13 416.968 463.671C416.809 467.365 420.468 467.047 421.652 469.998C417.587 470.811 413.433 471.377 409.969 473.692C426.177 480.267 438.778 494.212 457.354 495.98C447.032 496.333 437.4 493.965 427.997 490.978C417.074 487.496 406.045 487.637 394.893 488.68C393.249 488.839 391.146 488.468 390.757 490.889C390.421 492.993 391.764 494.265 393.514 494.866C397.986 496.404 401.521 499.02 404.154 502.979C396.572 507.238 388.866 505.577 380.93 504.764C387.664 506.955 394.168 509.359 398.905 514.768C394.451 516.217 391.552 519.522 388.671 522.951C392.242 524.082 393.921 518.921 397.526 520.671C400.248 522.297 402.988 523.923 407.459 526.592C401.309 527.617 396.908 528.342 392.56 529.066C390.509 531.929 396.324 532.248 394.239 534.793C392.63 536.737 390.474 535.8 388.495 535.394C384.5 534.598 380.488 533.803 376.228 533.591C379.905 537.02 384.235 539.335 389.166 540.077C396.749 541.209 403.553 545.291 411.295 545.716C412.426 545.786 414.423 545.963 414.193 546.988C412.108 556.338 420.697 555.49 425.841 558.848C416.685 558.318 408.997 555.56 401.644 551.778C395.635 548.685 389.714 545.256 383.122 543.63C380.258 542.923 376.14 539.158 374.267 543.701C372.676 547.589 370.661 553.157 377.572 555.543C379.109 556.073 380.329 557.558 381.743 558.636C374.974 564.645 375.239 566.907 383.475 570.46C388.424 572.599 393.037 575.002 396.589 579.085C404.543 588.187 412.691 597.007 426.654 601.496C416.473 602.15 413.08 601.691 406.116 597.095C397.173 591.174 388.194 585.501 380.364 577.671C375.681 572.987 368.169 570.265 362.814 565.352C358.554 561.428 355.832 557.911 358.784 551.018C362.778 541.668 357.635 536.967 346.677 538.858C344.467 539.229 342.506 540.873 339.501 538.522C353.817 525.072 359.844 506.708 369.388 490.395C377.978 475.689 386.162 460.896 393.903 445.749C399.17 435.462 407.724 427.509 416.102 419.661C423.384 412.839 430.949 406.299 438.39 399.636L438.354 399.671Z" fill="#DD1D23"/>
<path d="M299.344 820.484C294.695 825.221 289.128 818.275 286.512 824.425C284.868 828.296 288.969 832.149 286.53 837.346C279.725 828.65 275.271 819.653 271.93 810.162C270.251 805.408 268.519 800.901 265.143 797.065C263.023 794.662 260.866 791.957 262.74 788.387C264.737 784.587 266.999 781.618 271.117 786.443C273.026 788.67 275.165 790.685 277.127 792.859C280.184 796.252 283.295 797.154 286.812 793.46C287.979 792.223 289.322 790.473 291.213 791.215C293.67 792.17 292.786 794.644 292.857 796.606C293.175 805.107 289.994 814.369 299.344 820.484Z" fill="#D01B26"/>
<path d="M427.714 650.703C427.413 654.379 425.08 654.909 422.659 654.909C417.357 654.909 412.231 655.369 407.194 657.331C403.588 658.745 401.202 656.429 399.329 653.46C395.299 647.08 391.958 640.275 385.437 635.662C382.167 633.364 384.429 631.738 387.345 631.473C393.178 630.943 399.488 632.746 403.429 625.711C404.702 623.449 408.449 625.252 410.198 627.408C415.695 634.213 421.015 641.159 426.335 648.087C427.024 648.971 427.396 650.084 427.714 650.685V650.703Z" fill="#DE1A1D"/>
<path d="M518.296 582.797C523.899 592.677 533.567 597.803 542.652 603.6C545.851 605.65 549.226 607.417 552.514 609.326C554.564 610.528 555.519 612.366 554.37 614.487C553.168 616.697 550.906 616.52 548.961 615.548C544.755 613.462 539.506 611.765 537.491 607.771C532.842 598.545 523.952 596.565 515.857 592.942C502.124 588.506 491.396 579.439 480.809 570.16C482.24 562.595 486.217 561.764 492.668 565.034C502.071 569.771 509.547 577.141 518.278 582.779L518.296 582.797Z" fill="#DD1C24"/>
<path d="M408.414 666.486C407.176 671.382 400.001 670.569 399.294 675.995C398.074 676.755 396.43 677.232 395.688 678.328C391.199 684.844 386.214 685.121 380.735 679.159C376.458 674.493 371.527 670.357 368.363 664.436C376.576 663.199 377.636 657.219 371.545 646.496C373.842 648.511 376.281 650.367 378.402 652.558C383.758 658.091 390.297 661.095 397.897 661.343C402.369 661.484 405.833 662.863 408.414 666.504V666.486Z" fill="#DD171E"/>
<path d="M346.41 711.805C361.663 713.449 370.394 719.935 373.417 732.184C374.972 738.493 377.835 742.399 383.88 744.927C387.539 746.464 393.707 748.267 387.821 754.825C384.834 758.147 389.766 760.215 391.197 763.803C385.206 762.707 380.805 759.314 376.227 756.733C374.23 755.602 371.649 751.855 372.215 750.388C375.891 740.862 367.248 738.9 362.971 734.481C356.608 727.959 351.695 720.518 346.41 711.787V711.805Z" fill="#C71925"/>
<path d="M303.163 642.873C305.637 645.736 308.111 648.582 310.568 651.463C315.605 657.384 321.191 661.219 329.692 658.939C335.931 657.26 339.554 662.103 338.123 666.787C335.949 673.945 337.469 680.396 339.201 688.173C333.969 686.016 330.859 680.626 325.185 683.754C323.435 684.709 321.915 682.623 321.35 680.997C316.754 667.653 309.596 655.705 300.741 644.658C301.554 644.057 302.35 643.474 303.163 642.873Z" fill="#CF1723"/>
<path d="M148.068 533.079C151.144 532.319 150.331 529.385 153.318 529.226C154.025 534.564 151.55 539.318 150.684 545.575C147.291 541.952 146.319 538.664 144.869 535.607C142.306 530.128 142.607 523.853 134.724 520.336C129.28 517.914 127 508.971 131.313 500.717C133.628 502.927 135.52 506.461 139.514 503.952C142.731 501.937 142.572 497.713 145.187 495.804C155.297 507.221 150.667 519.912 148.051 533.079H148.068Z" fill="#D81D26"/>
<path d="M343.883 568.94C354.064 574.826 357.776 586.032 366.896 593.031C363.785 595.541 360.003 593.066 357.829 595.594C357.458 596.954 358.394 597.732 359.101 598.651C360.798 600.896 366.312 601.85 363.431 605.491C361.169 608.354 357.67 604.625 354.859 603.459C346.411 599.942 341.763 592.041 335.4 586.12C332.996 583.875 333.597 580.022 337.15 580.729C350.494 583.398 344.979 575.356 343.883 568.958V568.94Z" fill="#D21C26"/>
<path d="M363.396 829.993C350.759 820.025 335.435 820.909 321.119 818.081C320.465 815.978 322.144 815.624 323.452 815.27C329.62 813.609 329.832 810.18 326.492 805.567C325.643 804.383 324.83 803.128 324.229 801.803C323.346 799.823 320.164 797.49 322.533 795.758C325.52 793.566 326.898 797.455 328.206 799.311C333.349 806.61 340.189 809.403 348.832 807.564C352.243 806.84 354.612 807.034 354.983 811.258C355.566 818.222 358.553 824.108 363.378 829.993H363.396Z" fill="#D41823"/>
<path d="M570.522 457.325C564.69 455.204 559.211 451.97 552.795 451.634C547.493 449.213 542.031 447.092 536.976 444.246C534.325 442.761 530.189 442.09 531.462 436.717C532.292 433.235 527.644 435.214 527.397 435.373C520.557 439.509 519.585 434.313 517.517 429.011C524.003 430.389 528.775 429.205 529.571 420.792C544.894 432.51 557.302 445.395 570.522 457.343V457.325Z" fill="#BF1E2A"/>
<path d="M487.613 477.283C483.937 473.712 478.387 474.172 474.357 470.549C467.924 464.734 465.538 458.053 466.333 449.657C466.828 444.39 469.302 443.542 473.191 446.193C479.235 450.311 485.192 454.765 489.504 460.651C491.325 463.143 495.849 467.173 489.275 470.266C486.075 471.768 490.441 475.356 487.631 477.283H487.613Z" fill="#D91C24"/>
<path d="M675.845 282.42C678.337 283.781 680.83 285.124 683.993 286.839C675.403 294.156 664.269 296.966 657.234 305.432C650.783 306.493 644.332 307.571 637.934 308.631C639.736 297.267 647.973 293.714 656.527 290.409C663.014 287.899 669.394 285.089 675.828 282.42H675.845Z" fill="#D71C24"/>
<path d="M320.783 721.259C326.05 730.184 332.943 732.8 340.932 734.479C346.11 735.558 349.292 740.595 351.819 745.331C352.65 746.887 353.392 748.584 351.961 750.21C350.476 751.906 348.726 751.146 347.135 750.492C338.316 746.851 329.408 743.971 319.652 746.162C318.185 746.498 316.523 746.374 316.011 744.677C315.71 743.688 315.852 741.673 316.364 741.461C325.785 737.466 320.27 729.654 320.783 721.276V721.259Z" fill="#D51820"/>
<path d="M654.938 313.722C658.632 317.681 664.235 317.539 668.583 320.12C650.325 326.359 630.83 327.119 612.219 332.739C620.084 327.084 626.641 319.978 635.319 315.79C637.546 314.711 637.9 314.959 640.622 317.981C641.7 319.183 642.548 318.211 643.45 317.857C647.25 316.391 650.678 313.951 654.92 313.722H654.938Z" fill="#C4222B"/>
<path d="M541.237 390.729C558.435 393.893 575.526 395.996 592.811 396.456C595.286 396.527 597.725 396.916 598.273 399.761C598.768 402.412 596.223 403.049 594.544 404.021C590.16 406.548 585.264 407.732 580.386 408.704C577.399 409.305 573.281 410.631 575.614 404.392C577.17 400.256 573.564 400.503 570.948 400.327C560.255 399.584 550.782 394.918 541.237 390.729Z" fill="#C11C29"/>
<path d="M285.433 598.67C292.803 599.165 296.373 602.523 300.721 604.007C305.21 605.545 309.028 606.694 312.033 601.551C312.81 600.225 314.755 599.306 316.345 598.829C318.502 598.175 321.259 597.132 322.849 599.412C324.511 601.78 322.938 603.848 320.746 605.174C316.168 607.967 317.936 612.332 317.901 616.256C317.883 618.501 317.317 621.346 314.719 619.579C305.422 613.269 294.782 608.727 285.433 598.67Z" fill="#C01B29"/>
<path d="M496.203 552.963C498.518 557.859 503.361 559.679 507.568 562.224C521.972 571.009 536.43 579.687 550.517 589.143C544.119 590.221 538.427 588.241 532.648 586.774C532.436 581.26 527.399 580.199 524.023 577.831C515.839 572.14 506.136 568.64 499.367 561.005C497.529 558.919 492.615 557.399 496.203 552.945V552.963Z" fill="#DD1A27"/>
<path d="M754.461 195.745C761.902 185.494 773.868 182.86 784.472 177.964C794.229 174.058 803.225 168.526 812.946 164.567C816.357 163.171 819.768 160.661 823.427 164.108C821.872 166.264 821.412 168.774 821.218 171.354C810.242 170.046 802.271 177.982 792.585 180.722C779.417 184.451 766.957 190.23 754.443 195.745H754.461Z" fill="#CD3B37"/>
<path d="M656.562 279.54C680.776 261.3 710.698 258.419 738.182 248.98C711.511 260.61 683.144 267.662 656.562 279.54Z" fill="#B21B2D"/>
<path d="M268.13 512.841C264.896 515.227 265.956 520.335 262.262 519.876C259.293 519.487 258.551 515.687 257.967 512.841C257.632 511.144 257.667 508.971 260.389 509.536C268.961 511.286 268.537 505.648 268.431 500.08C268.395 498.737 268.077 497.146 270.163 495.927C275.006 498.207 276.349 503.686 279.689 507.362C284.691 512.877 277.48 516.288 278.558 521.201C275.836 517.065 268.342 520.141 268.13 512.859V512.841Z" fill="#C21C2C"/>
<path d="M269.157 557.029C266.294 557.029 263.555 555.686 261.01 554.943C258.906 554.325 254.983 550.984 255.69 548.139C256.503 544.922 260.55 542.536 263.873 542.73C267.408 542.925 270.165 541.953 272.851 540.327C277.853 537.34 279.232 542.236 280.151 544.498C281.848 548.687 273.983 557.047 269.14 557.047L269.157 557.029Z" fill="#A91E30"/>
<path d="M301.076 739.005C296.764 732.13 291.762 728.489 287.502 724.123C284.922 721.472 282.713 717.743 284.993 714.756C286.848 712.352 290.896 711.539 294.113 710.355C294.696 710.143 296.322 711.327 296.693 712.211C300.033 720.111 304.328 727.888 301.076 739.023V739.005Z" fill="#D31A26"/>
<path d="M439.962 767.798C441.57 767.551 442.984 767.198 441.375 765.183C438.459 761.524 435.79 757.6 432.556 754.224C429.834 751.397 430.029 748.798 431.283 745.493C433.033 740.88 435.331 740.668 438.017 744.38C442.312 750.318 445.282 757.07 449.842 762.903C453.553 767.639 447.084 767.198 445.617 769.371C443.532 769.548 441.429 769.76 439.944 767.781L439.962 767.798Z" fill="#251D3A"/>
<path d="M188.101 682.57C192.449 692.716 183.029 697.134 181.951 704.434C181.65 706.502 178.557 704.31 177.567 702.507C174.898 697.576 173.626 692.15 172.459 686.742C171.752 683.489 173.502 682.199 176.436 683.507C180.448 685.292 184.284 685.663 188.084 682.553L188.101 682.57Z" fill="#C61A2C"/>
<path d="M239.41 584.742C234.797 572.476 231.121 562.455 234.055 551.443C246.056 557.364 246.215 557.523 243.634 569.082C242.609 573.642 241.213 578.114 239.41 584.724V584.742Z" fill="#C3192C"/>
<path d="M473.862 719.722C476.071 720.411 478.298 721.047 480.472 721.825C490.582 725.431 490.529 725.961 488.284 736.353C487.206 741.373 487.701 746.746 487.489 751.96C482.894 746.746 488.638 739.34 483.636 733.525C479.005 738.775 481.162 744.731 480.543 750.157C478.175 747.241 474.764 745.208 473.279 741.532C475.895 734.339 471.016 726.933 473.862 719.739V719.722Z" fill="#6D1F31"/>
<path d="M552.974 451.582C553.15 455.471 556.243 457.768 559.054 457.68C562.129 457.592 565.275 456.319 565.293 460.508C565.293 465.687 560.149 461.904 558.011 463.795C552.991 461.073 547.654 459.96 541.909 460.031C533.708 460.137 527.01 456.443 521.071 450.999C531.694 454.675 542.192 460.119 552.974 451.6V451.582Z" fill="#B9333C"/>
<path d="M240.54 651.712C242.237 651.482 258.462 669.316 258.144 670.818C257.313 674.671 255.475 673.894 253.354 671.826C250.898 669.44 248.936 667.655 244.446 668.361C239.162 669.192 238.614 663.784 238.844 659.542C238.985 656.855 237.5 653.621 240.558 651.712H240.54Z" fill="#A71C33"/>
<path d="M461.242 810.992C454.031 806.467 447.032 801.412 437.912 801.624C436.198 799.892 435.278 797.736 434.978 795.421C434.713 793.353 435.066 791.197 436.851 789.836C438.884 788.28 441.005 789.394 442.472 790.702C449.418 796.817 457.442 801.978 461.242 811.01V810.992Z" fill="#CB3E3C"/>
<path d="M224.246 807.017C220.552 810.181 221.436 806.434 220.818 804.578C219.598 800.937 215.338 797.986 218.184 793.496C219.138 791.976 220.994 792.507 222.002 793.496C225.766 797.226 230.379 799.594 234.816 802.334C237.661 804.083 237.378 807.883 235.894 810.216C233.755 813.575 231.475 810.977 229.637 809.156C228.17 807.689 226.827 806.151 224.246 807.017Z" fill="#93192F"/>
<path d="M507.338 467.578C508.858 467.454 519.197 479.19 518.526 479.738C514.284 483.238 518.897 484.28 520.081 486.295C520.788 487.497 521.725 488.894 520.558 490.201C520.099 490.714 518.968 490.838 518.172 490.802C512.658 490.555 503.096 473.782 505.676 468.851C506.012 468.197 506.949 467.861 507.355 467.578H507.338Z" fill="#CC1B26"/>
<path d="M556.031 499.357C562.623 501.266 567.873 504.942 571.708 510.81C569.693 513.037 567.342 511.464 565.257 511.764C556.932 507.575 549.314 502.043 540.53 497.854C545.691 498.349 550.852 498.862 556.013 499.357H556.031Z" fill="#D22C31"/>
<path d="M428.067 513.833C438.637 518.305 445.441 526.4 450.991 535.732C451.521 536.615 453.307 538.666 450.602 538.683C449.029 538.683 448.057 541.918 446.307 539.373C446.148 539.125 445.866 538.948 445.777 538.683C442.348 528.662 434.642 521.734 428.067 513.851V513.833Z" fill="#BB1A29"/>
<path d="M78.5004 615.354C79.773 617.847 83.5553 618.907 82.7069 622.124C81.399 627.179 79.826 632.322 77.3339 636.882C75.92 639.48 73.9051 637.395 73.1451 635.203C71.7665 631.12 74.6473 620.109 78.4827 615.372L78.5004 615.354Z" fill="#AC1E2F"/>
<path d="M433.404 819.034C426.211 817.885 420.785 811.381 412.937 812.247C411.877 808.482 410.816 804.735 409.226 799.079C419.689 804.859 426.511 811.999 433.422 819.034H433.404Z" fill="#EBBD7F"/>
<path d="M488.019 438.115C497.103 433.696 501.557 434.58 507.337 441.385C508.327 442.551 509.44 443.788 508.38 445.132C507.849 445.803 506.276 445.892 505.198 445.874C502.459 445.803 492.031 441.084 488.019 438.115Z" fill="#C61B27"/>
<path d="M224.262 544.816C224.262 539.778 224.138 535.713 224.315 531.666C224.439 528.944 223.873 524.578 227.814 525.109C231.933 525.657 234.566 530.676 232.834 533.787C230.801 537.428 229.547 542.394 224.28 544.833L224.262 544.816Z" fill="#C81828"/>
<path d="M397.491 520.689C393.956 528.89 387.399 525.886 379.834 525.55C385.313 518.339 391.959 516.341 398.869 514.786C399.028 516.907 393.196 517.614 397.491 520.707V520.689Z" fill="#6B1F3C"/>
<path d="M480.826 570.177C492.226 578.201 503.75 586.048 515.874 592.959C514.337 593.189 512.781 593.383 512.004 595.009C501.134 587.533 489.804 580.658 480.578 571.025C480.561 570.707 480.649 570.442 480.826 570.194V570.177Z" fill="#E59B7A"/>
<path d="M79.3679 779.797C83.1149 787.114 83.221 793.548 84.688 799.61C85.1652 801.537 84.9001 804.135 82.0899 804.135C79.9336 804.135 79.4034 801.908 79.6862 800.193C80.6936 793.937 76.0628 787.909 79.3679 779.797Z" fill="#182145"/>
<path d="M245.012 676.809C257.083 681.174 257.49 682.623 250.685 695.19C247.787 688.898 250.438 681.687 245.012 676.809Z" fill="#772240"/>
<path d="M161.624 493.611C160.016 487.99 150.807 483.978 159.096 477.032C158.496 482.688 170.956 486.152 161.624 493.611Z" fill="#D01B25"/>
<path d="M250.774 802.67C255.847 806.558 258.551 809.828 260.142 814.035C261.185 816.774 260.089 818.807 257.561 819.673C254.345 820.769 253.532 818.418 253.107 815.873C252.471 812.144 251.8 808.432 250.774 802.652V802.67Z" fill="#AD1F33"/>
<path d="M301.748 508.671C297.842 504.888 296.588 501 294.944 497.341C293.512 494.142 295.121 491.915 297.931 491.456C300.759 490.978 302.968 492.445 302.579 496.086C302.173 499.869 302.067 503.669 301.766 508.671H301.748Z" fill="#CA1B29"/>
<path d="M222.672 702.647C222.212 705.458 220.056 707.296 218.412 706.394C214.877 704.433 212.279 701.057 211.236 697.045C210.865 695.631 212.562 694.305 214.223 694.924C218.147 696.391 221.399 698.688 222.672 702.647Z" fill="#A11B35"/>
<path d="M519.692 553.493C523.828 554.96 527.628 557.01 532.878 561.199C524.747 561.623 518.897 560.757 513.4 557.452C515.946 556.834 518.844 556.781 519.692 553.493Z" fill="#DE1D21"/>
<path d="M232.994 735.063C233.595 733.084 232.128 729.531 235.416 729.567C238.332 729.602 240.824 732.359 240.806 735.399C240.806 738.404 237.696 739.747 235.168 739.783C232.022 739.836 233.524 736.813 233.012 735.063H232.994Z" fill="#AB1B32"/>
<path d="M86.2268 697.381C88.9663 703.373 89.5143 709.258 85.9794 716.999C83.8408 709.17 84.6538 703.231 86.2268 697.381Z" fill="#A81B31"/>
<path d="M71.5374 715.834C69.6992 709.719 70.2472 704.858 70.8482 700.033C71.0426 698.372 71.5021 696.215 73.8881 696.851C75.4788 697.276 75.4966 699.078 75.1607 700.545C74.0826 705.247 72.9514 709.931 71.5551 715.834H71.5374Z" fill="#9D1A2B"/>
<path d="M611.829 321.957C607.357 327.524 601.012 331.484 596.293 337.086C601.472 332.049 606.65 326.994 611.829 321.957Z" fill="#8A1831"/>
<path d="M468.63 524.842C462.621 522.314 459.722 516.959 456.965 511.444C462.267 514.537 466.085 519.08 468.63 524.842Z" fill="#941B2D"/>
<path d="M202.311 512.7C202.152 516.642 200.862 519.098 198.936 521.449C196.302 519.311 196.037 516.359 194.8 513.584C197.522 511.304 199.837 514.344 202.294 512.7H202.311Z" fill="#B21C32"/>
<path d="M537.243 410.117C534.928 409.887 533.443 408.456 533.284 406.264C533.108 403.772 534.928 402.641 537.226 402.747C539.117 402.835 540.496 404.037 540.725 405.981C541.026 408.456 539.559 409.658 537.226 410.117H537.243Z" fill="#C91D28"/>
<path d="M481.179 546.229C476.407 543.401 471.512 540.803 469.037 535.519C474.552 537.374 477.963 541.758 481.179 546.229Z" fill="#8B1A2F"/>
<path d="M139.46 478.979C139.036 478.431 138.665 478.166 138.718 477.989C139.513 474.313 140.468 470.672 144.745 469.558C145.646 469.328 146.548 470.106 146.3 471.043C145.328 474.825 142.801 477.264 139.46 478.979Z" fill="#BC1F2B"/>
<path d="M104.058 834.234C103.846 835.789 103.175 837.221 101.443 837.079C99.6928 836.92 99.2509 835.312 99.3039 833.792C99.357 832.219 100.152 830.805 101.867 830.946C103.617 831.105 103.935 832.732 104.041 834.252L104.058 834.234Z" fill="#182145"/>
<path d="M279.584 730.008C277.799 729.973 277.163 728.771 277.127 727.18C277.11 725.59 277.764 724.317 279.443 723.946C281.192 723.557 282.359 724.494 282.518 726.138C282.695 728.099 281.528 729.39 279.584 730.026V730.008Z" fill="#B6212E"/>
<path d="M473.863 719.722C477.274 725.749 477.203 732.359 477.168 738.987C477.168 742.009 475.577 742.239 473.262 741.515C468.49 737.078 465.237 731.475 461.667 726.138C460.571 724.494 459.016 721.896 459.582 720.553C463.258 712.034 458.203 706.996 452.494 701.57C463.7 702.401 472.13 707.668 478.723 712.67C479.925 719.651 469.002 709.913 473.845 719.704L473.863 719.722Z" fill="#1F2244"/>
<path d="M434.502 736C434.378 737.926 433.919 739.87 431.444 738.704C425.506 735.894 419.072 735.31 412.762 734.091C409.811 733.525 409.369 731.263 409.775 728.665C410.253 725.625 412.303 724.723 414.883 725.466C420.221 727.003 425.488 728.771 430.755 730.591C433.212 731.44 434.414 733.384 434.502 736Z" fill="#251D3A"/>
<path d="M406.028 733.457C405.71 736.09 404.331 737.416 401.981 737.433C399.082 737.469 398.958 735.242 398.976 733.156C398.976 731.424 399.082 729.25 401.415 729.339C403.925 729.427 405.639 731.018 406.028 733.474V733.457Z" fill="#351B33"/>
<path d="M823.427 164.108C813.37 166.017 804.71 171.584 795.254 175.048C791.719 176.339 788.361 178.071 784.473 177.982C789.139 174.995 793.823 172.008 798.489 169.021C804.692 161.775 813.353 157.94 821.112 152.849C833.396 148.254 844.318 140.937 856.107 135.369C860.685 133.213 865.21 129.926 870.865 131.817C879.226 135.405 874.171 138.833 870.371 141.326C858.917 148.82 846.404 154.352 834.014 160.043C830.585 161.616 826.98 162.765 823.463 164.126L823.427 164.108Z" fill="#F0C696"/>
<path d="M870.849 131.814C853.881 138.512 839.194 150.001 821.555 155.268C817.136 154.826 818.585 151.574 818.514 149.011C819.681 145.6 822.544 143.832 825.337 142.012C831.523 138.459 835.835 132.309 842.605 129.569C847.342 127.43 851.99 125.009 856.939 123.401C859.837 122.464 862.86 120.52 865.811 123.436C865.635 126.882 866.518 129.003 870.654 127.802C872.492 127.271 874.49 127.254 876.416 127.006C874.56 128.597 872.704 130.205 870.831 131.796L870.849 131.814Z" fill="#792C38"/>
<path d="M858.529 239.754C857.274 236.555 853.403 236.837 851.494 234.504C856.814 233.497 852.802 230.227 852.484 226.197C857.839 231.482 864.149 232.065 870.477 235.989C865.492 238.181 860.579 234.946 858.529 239.771V239.754Z" fill="#E0644F"/>
<path d="M860.35 245.074C856.232 245.957 852.786 247.742 850.912 251.825C850.276 253.204 848.986 254.247 847.483 253.239C845.875 252.161 846.653 250.588 847.66 249.545C850.788 246.275 853.316 242.175 858.282 241.238C858.972 242.529 859.679 243.801 860.368 245.091L860.35 245.074Z" fill="#E0644F"/>
<path d="M860.031 171.141C867.136 165.255 868.303 172.342 870.99 176.125C866.907 175.4 862.329 175.789 860.031 171.141Z" fill="#E6A97A"/>
<path d="M756.918 499.356C760.259 499.887 761.531 502.573 762.574 505.295C763.122 506.744 762.716 508.476 760.895 508.653C757.272 509.007 755.787 506.409 754.903 503.475C754.373 501.707 754.515 499.957 756.918 499.356Z" fill="#3F1D33"/>
<path d="M615.345 472.085C613.383 471.537 611.245 470.83 611.722 468.143C612.146 465.846 613.843 464.679 616.264 465.086C618.226 465.421 619.587 466.782 619.552 468.656C619.516 471.06 617.943 472.297 615.345 472.085Z" fill="#3B1C3D"/>
<path d="M620.773 441.261C622.982 442.162 623.742 443.877 623.53 446.157C623.371 447.818 622.346 449.161 620.844 449.055C618.758 448.914 618.175 447.023 618.14 445.167C618.104 443.311 618.546 441.667 620.773 441.261Z" fill="#201D40"/>
<path d="M642.954 455.009C640.956 454.938 640.002 453.913 640.002 452.322C640.002 450.608 641.239 449.83 642.848 449.812C644.279 449.812 645.976 449.901 645.994 451.827C646.011 453.825 644.615 454.814 642.954 455.026V455.009Z" fill="#4E2847"/>
<path d="M640.321 403.896C637.564 404.108 636.15 403.985 634.913 404.374C632.597 405.116 630.088 407.59 628.356 403.914C627.189 401.44 630.105 400.733 631.201 399.23C633.888 395.554 634.771 399.849 636.415 400.468C637.423 400.856 638.147 401.917 640.339 403.879L640.321 403.896Z" fill="#E15647"/>
<path d="M777.915 341.769C777.244 343.731 776.572 345.87 774.062 345.64C771.959 345.446 769.909 343.996 770.015 341.928C770.156 339.189 772.843 338.729 775.105 338.553C777.297 338.394 778.092 339.755 777.915 341.769Z" fill="#ED6C54"/>
<path d="M883.327 174.87C882.885 177.504 881.771 179.377 879.898 178.988C875.302 178.034 874.154 172.926 870.725 170.363C870.142 169.921 872.899 167.765 873.712 168.242C877.158 170.24 880.322 172.732 883.327 174.853V174.87Z" fill="#E6A97A"/>
<path d="M418.824 317.538C421.529 314.303 425.611 316.76 428.704 315.24C429.27 306.827 419.602 308.418 416.58 303.434C418.771 301.154 421.352 302.161 423.402 301.277C427.008 299.722 428.934 297.813 425.771 294.084C425.205 293.412 424.639 292.67 424.339 291.875C423.526 289.595 419.726 287.668 422.147 285.141C423.738 283.462 427.008 283.09 429.677 284.168C433.706 285.812 437.188 285.83 439.15 281.164C439.981 279.184 440.741 277.258 437.277 276.834C434.378 276.48 431.656 275.384 429.677 272.981C426.937 269.658 424.074 267.13 428.828 262.394C433.689 257.551 430.437 251.877 426.743 247.529C424.427 244.79 420.433 240.919 422.66 238.904C425.877 235.97 425.877 230.456 429.995 229.342C436.976 227.433 434.661 223.086 432.434 220.01C428.068 213.983 429.288 208.186 431.868 202.353C432.911 200.003 433.105 198.695 430.843 197.298C428.369 195.761 426.036 194.029 423.632 192.367C425.611 191.095 425.364 188.797 426.212 187.012C428.952 181.197 433.618 180.914 437.011 186.376C438.726 189.151 439.68 192.632 444.046 189.645C445.159 188.885 446.591 189.822 446.662 191.042C447.033 196.892 450.621 201.205 453.272 206.03C455.146 209.423 452.777 211.632 449.684 212.658C444.611 214.354 443.18 217.677 444.187 224.093C447.634 217.801 454.067 218.897 457.814 213.312C462.092 206.913 456.259 200.904 460.253 195.655C460.342 195.549 459.688 194.541 459.264 194.453C444.735 191.501 443.516 177.697 437.506 167.8C436.905 166.81 436.976 165.202 436.181 164.601C428.245 158.591 435.156 152.794 438.302 150.178C441.183 147.81 447.828 147.05 452.512 150.762C453.855 151.822 455.499 152.476 457.001 153.324C465.503 155.233 470.399 162.144 476.496 167.393C477.91 169.002 478.935 170.769 478.776 173.014C479.112 179.659 484.414 184.75 483.124 192.509C482.364 197.051 490.477 199.472 494.754 202.636C495.867 203.467 498.147 203.414 498.589 204.351C502.849 213.63 512.411 212.446 519.852 215.397C524.571 217.059 527.275 219.71 524.677 225.03C516.158 235.475 505.182 243.659 497.264 254.758C494.047 259.265 492.103 263.207 496.186 268.032C499.102 263.26 503.467 259.283 507.921 255.465C510.148 253.556 512.853 251.559 515.804 253.768C518.615 255.872 517.784 259.035 516.988 261.899C516.034 265.398 514.019 268.244 511.262 270.577C508.098 273.263 505.588 276.462 503.096 282.171C513.047 279.237 520.576 275.101 527.151 268.933C529.979 266.264 532.242 260.767 536.784 263.083C541.096 265.292 538.445 270.506 538.127 274.43C537.968 276.427 537.296 278.354 536.307 281.146C550.888 265.752 558.506 247.865 563.649 228.688C564.692 224.8 564.692 220.364 568.987 218.119C574.855 219.939 573.671 224.959 573.423 229.024C572.893 237.49 571.249 245.815 568.704 254.299C578.885 243.393 590.567 234.874 602.869 227.133C605.82 225.277 608.86 223.262 612.66 224.924C615.064 229.289 611.759 231.357 608.984 233.266C604.177 236.571 599.316 239.841 594.526 243.199C599.829 239.753 604.654 235.546 610.433 232.824C613.845 231.233 617.433 229.201 620.614 233.372C620.437 236.819 618.511 237.738 615.418 236.96C601.313 243.641 591.204 255.306 580.351 265.875C568.015 277.912 557.286 291.769 544.843 303.487C530.633 316.866 515.963 329.945 501.187 342.795C497.228 346.241 493.64 350.13 489.893 353.806C489.293 357.217 487.56 359.373 483.796 359.25C469.285 371.958 454.757 384.666 440.246 397.373C430.755 382.792 425.117 366.249 416.898 351.013C416.438 350.554 416.262 350.094 416.403 349.617C416.544 349.14 416.686 348.892 416.827 348.892C423.932 348.345 425.028 355.096 428.227 357.977C426.089 354.601 423.65 350.43 422.465 345.658C422.306 344.385 422.483 343.148 422.978 341.964C427.944 336.927 423.172 332.915 421.582 328.549C420.291 324.979 415.502 322.275 418.842 317.556L418.824 317.538Z" fill="#0F1C42"/>
<path d="M595.161 510.316C595.197 507.063 597.105 505.314 599.916 505.066C603.203 504.783 605.519 506.816 606.031 509.962C606.544 513.143 604.193 514.734 601.383 515.017C598.025 515.353 596.116 513.285 595.144 510.298L595.161 510.316Z" fill="#E1302E"/>
<path d="M623.442 492.586C625.121 493.187 626.765 493.965 626.199 496.139C625.757 497.818 624.166 498.101 622.735 497.782C621.286 497.464 620.066 496.51 620.313 494.795C620.561 493.134 621.78 492.498 623.442 492.586Z" fill="#D84E42"/>
<path d="M795.094 167.273C798.311 165.399 801.669 163.703 804.691 161.564C806.6 160.203 810.453 159.231 807.431 155.466C802.835 156.032 802.217 153.929 805.61 151.631C809.622 148.927 814.235 146.47 819.52 148.803C820.209 150.959 820.881 153.116 821.57 155.272C814.218 160.415 807.289 166.283 798.505 169.005C797.374 168.422 796.243 167.856 795.111 167.273H795.094Z" fill="#CD3B37"/>
<path d="M483.775 359.215C485.808 357.395 487.841 355.592 489.873 353.772C490.722 353.542 491.57 353.1 492.418 353.118C494.274 353.171 494.062 354.373 493.161 355.274C488.512 359.958 484.129 364.96 477.66 369.078C478.243 363.987 483.51 363.174 483.793 359.198L483.775 359.215Z" fill="#E27377"/>
<path d="M527.663 365.402C527.416 368.017 525.79 369.308 523.686 369.643C521.512 369.997 520.417 368.3 520.558 366.409C520.682 364.5 520.841 362.079 523.669 361.955C526.09 361.849 527.416 363.192 527.681 365.384L527.663 365.402Z" fill="#121C40"/>
<path d="M532.877 362.15C535.299 362.15 536.571 363.387 536.783 365.773C536.978 368.018 535.953 368.689 533.726 368.548C530.968 368.389 530.686 366.551 530.403 364.553C530.12 362.609 531.216 362.079 532.895 362.15H532.877Z" fill="#121C40"/>
<path d="M766.781 179.66C770.528 175.719 776.096 176.302 780.532 174.093C777.174 178.971 772.685 181.057 766.781 179.66Z" fill="#CD3B37"/>
<path d="M812.559 142.599C816.2 140.231 819.823 137.862 824.277 134.964C816.129 131.305 809.943 136.36 803.298 137.279C797.836 138.039 793.117 143.218 787.02 140.054C787.691 139.029 788.681 139.206 789.671 139.365C800.205 131.853 812.294 127.523 823.959 122.291C829.527 119.799 834.864 116.759 840.025 112.977C838.152 110.573 833.362 111.739 833.415 107.427C835.748 104.387 838.311 101.753 842.588 102.018C843.171 102.92 843.772 103.804 844.356 104.705C848.067 100.304 852.539 104.422 856.586 103.627C859.715 107.462 860.704 110.714 854.571 112.588C848.597 114.391 845.752 119.923 841.651 123.935C838.682 126.833 844.727 129.29 842.464 132.366C837.18 136.448 831.895 140.531 826.61 144.632C824.295 141.344 822.333 144.225 820.142 144.897C817.225 145.78 813.637 148.237 812.559 142.652V142.599Z" fill="#D87254"/>
<path d="M812.558 142.596C819.097 147.068 821.413 138.266 826.768 138.354C828.2 140.263 826.415 142.437 826.591 144.576C824.223 145.99 821.872 147.386 819.504 148.8C815.386 151.628 810.578 152.6 805.877 153.837C805.824 153.837 805.771 154.491 805.912 154.597C806.372 154.951 806.902 155.18 807.415 155.463C807.044 155.923 806.69 156.789 806.319 156.771C794.265 156.594 783.519 161.861 772.013 164.707C785.445 157.001 800.681 152.865 812.54 142.596H812.558Z" fill="#E8B084"/>
<path d="M654.318 174.43C646.824 179.272 639.348 184.133 631.642 189.117C634.876 191.273 636.909 188.039 639.454 188.322C636.927 194.879 637.846 202.78 631.094 207.764C627.789 210.203 626.958 213.649 632.349 215.417C634.276 216.053 636.308 216.548 637.51 218.439C632.738 224.802 625.385 228.266 620.083 234.01C614.498 231.253 610.857 235.848 606.58 237.722C600.941 240.214 596.099 244.085 590.885 247.514C596.434 238.058 606.208 232.861 613.861 225.527C613.755 216.053 606.208 210.468 601.489 203.699C599.899 201.419 593.2 203.08 589.188 205.095C580.846 209.266 572.203 212.889 565.045 219.111C559.035 221.638 556.914 218.863 556.95 213.154C560.82 203.186 568.809 197.212 577.629 192.086C583.32 188.286 586.413 182.701 588.446 176.392C587.12 172.892 590.054 171.354 592.104 170.771C601.631 167.979 608.4 159.424 618.669 158.364C626.834 156.066 635.088 155.465 645.198 156.366C641.398 160.449 640.285 164.338 635.053 164.938C631.342 165.38 628.673 168.88 626.145 171.708C624.378 173.687 620.454 175.419 622.858 178.725C624.873 181.499 628.107 183.267 632.102 181.676C638.058 179.29 644.049 177.028 650.094 174.854C651.402 174.377 652.922 174.553 654.354 174.412L654.318 174.43Z" fill="#E16A52"/>
<path d="M464.652 147.846C464.723 145.76 464.865 143.763 467.162 142.703C470.043 141.377 470.467 139.415 467.922 137.382C463.645 133.971 465.713 131.921 469.478 130.772C474.727 129.182 478.633 124.286 484.801 124.904C488.071 125.24 491.712 124.975 493.091 128.475C494.346 131.674 492.419 134.519 490.457 137.241C488.584 139.839 484.501 140.617 484.395 144.611C479.517 150.444 473.437 151.434 464.635 147.846H464.652Z" fill="#0F1C42"/>
<path d="M464.655 147.848C470.859 144.507 478.193 147.918 484.415 144.613C486.695 149.951 484.397 155.253 480.739 157.657C473.404 162.5 479.112 163.278 482.188 165.257C480.014 166.583 477.84 167.891 475.666 169.216C468.844 164.621 462.622 159.318 457.037 153.274C458.911 150.517 461.597 148.908 464.69 147.848H464.655Z" fill="#D61D25"/>
<path d="M443.444 123.207C443.462 122.624 443.48 122.041 443.48 121.458C444.116 120.503 444.611 119.39 445.424 118.612C447.545 116.58 448.075 110.765 452.9 114.6C456.046 117.11 458.98 120.592 456.223 125.046C453.254 129.853 449.577 128.457 446.06 125.434C445.194 124.692 444.31 123.95 443.427 123.207H443.444Z" fill="#0F1C42"/>
<path d="M447.138 139.857C447.42 136.782 447.739 133.618 451.309 132.593C451.857 132.434 453.235 133.229 453.306 133.724C453.978 138.001 449.913 138.231 447.138 139.857Z" fill="#173162"/>
<path d="M522.573 224.82C523.846 223.848 525.136 222.894 526.408 221.921C530.721 225.121 534.521 225.121 538.94 221.391C544.436 216.743 550.64 212.943 558.452 213.738L558.611 213.579C560.573 214.198 557.922 221.922 563.613 216.831C566.264 215.117 567.873 216.389 569.11 218.74C564.32 240.727 557.25 261.707 542.298 279.187C541.732 279.858 541.308 280.654 540.707 281.29C538.356 283.764 535.546 288.148 532.506 286.292C528.529 283.853 534.15 281.308 534.574 278.48C535.299 273.708 536.165 268.953 537.314 262.184C525.578 275.228 514.46 285.567 496.591 285.214C501.151 272.524 515.344 267.734 515.892 252.781C505.287 258.79 500.674 269.572 489.239 275.829C491.837 272.046 493.216 270.031 494.471 268.193C493.728 264.093 487.807 267.628 488.108 263.722C488.284 261.406 490.476 259.126 492.032 257.041C500.922 245.075 510.395 233.675 522.573 224.82Z" fill="#DE1E24"/>
<path d="M569.126 218.739L563.629 216.83C567.782 213.348 573.933 211.917 575.259 205.518C575.453 204.564 576.602 203.645 577.044 204.317C582.364 212.465 584.184 203.291 587.454 202.107C588.886 201.595 589.787 199.368 591.855 200.181C597.016 202.178 601.487 199.385 607.444 197.477C604.634 203.892 606.525 207.109 611.721 210.45C615.344 212.783 611.226 222.574 621.23 220.913C618.914 224.183 616.493 225.031 613.877 225.544C599.967 230.351 589.151 239.825 578.405 249.351C573.827 253.399 569.461 257.693 563.293 263.473C566.351 251.985 569.037 242.776 569.779 233.232C570.151 228.425 571.953 223.44 569.143 218.739H569.126Z" fill="#E33B34"/>
<path d="M637.493 218.438C632.402 218.314 625.456 220.24 624.467 213.118C623.636 207.144 629.345 203.962 635.213 201.311C624.025 192.562 638.624 193.039 639.455 188.303C643.555 184.414 648.451 181.798 653.612 179.624C654.425 179.183 655.362 179.041 656.157 179.377C661.83 181.692 667.027 181.851 672.789 178.599C675.97 176.814 681.396 179.324 679.629 183.318C677.26 188.621 679.823 194.347 676.642 199.102C672.612 200.834 668.706 202.937 664.535 204.21C654.584 207.232 645.711 212.163 637.493 218.42V218.438Z" fill="#E53332"/>
<path d="M676.641 199.121C677.507 193.837 673.902 188.499 677.56 183.002C679.045 180.758 675.952 179.626 673.778 180.581C670.596 181.96 666.708 182.649 664.994 186.007C663.597 188.729 662.378 190.92 659.249 188.534C655.167 185.406 661.918 184.893 660.964 182.56C658.454 181.571 656.033 180.616 653.611 179.644C658.878 175.491 664.623 172.327 671.303 170.754C671.604 175.243 666.107 173.653 665.718 176.48C676.623 177.046 687.493 173.776 699.052 175.756C695.27 184.787 685.054 184.964 678.797 191.451C684.789 192.458 690.197 193.377 696.702 194.473C689.278 196.187 682.969 197.654 676.641 199.121Z" fill="#E7775B"/>
<path d="M674.874 206.668C665.082 211.087 654.902 214.621 646.453 221.532C645.411 222.381 644.12 222.328 643.413 221.232C642.388 219.606 643.82 218.669 644.81 217.644C653.064 209.089 664.075 208.276 674.856 206.668H674.874Z" fill="#E85248"/>
<path d="M558.471 213.738C549.987 216.548 542.245 220.56 534.999 225.916C532.047 228.09 528.618 224.82 526.427 221.904C539.188 223.636 546.717 213.296 556.739 208.595C558.223 210.132 555.395 212.943 558.488 213.72L558.471 213.738Z" fill="#E16A52"/>
<path d="M1072.3 97.1214C1041.51 104.244 1010.72 111.367 979.918 118.49C961.855 120.558 944.781 126.797 927.213 130.95C921.645 132.276 915.848 133.142 910.776 136.164C906.587 137.702 905.933 135.74 906.87 132.205C908.69 131.109 910.528 130.014 912.349 128.918C913.851 127.734 916.75 126.302 912.967 124.888C910.758 124.057 907.806 123.827 905.403 125.454C859.643 133.566 819.257 155.094 778.695 176.197C776.874 177.134 774.947 177.876 773.074 178.707C768.691 179.431 763.123 186.36 760.755 176.391C761.391 172.697 764.396 171.372 767.277 169.852C786.489 159.689 805.241 148.784 822.686 135.74C831.7 130.668 840.378 124.959 850.082 121.194C866.713 113.912 883.539 107.072 900.578 100.762C906.127 98.6944 911.836 97.5102 917.686 96.9446C920.62 96.6618 924.085 96.3614 925.251 99.7549C926.647 103.802 922.6 104.562 920.196 105.623C911.642 109.405 902.875 112.728 894.639 117.217C907.276 110.36 921.398 106.453 933.205 97.8991C956.747 88.8321 981.332 83.3706 1005.65 77.0432C1008.48 76.3009 1011.29 75.6646 1013.98 74.4627C1038.42 67.0748 1063.66 63.1511 1088.42 57.0887C1092.12 56.1873 1095.76 55.1622 1099.36 53.9957C1122.41 48.3575 1145.48 42.8254 1168.35 36.5156C1172.84 35.2784 1177.34 33.6347 1182.11 35.2784C1183.46 36.0031 1184.71 36.8161 1184.29 38.6719C1142.4 54.9324 1098.18 64.6534 1056.55 81.7092C1056.84 82.593 1057.12 83.459 1057.39 84.3427C1061.08 83.6888 1064.77 83.0348 1068.47 82.3985C1070.48 82.0451 1073.17 81.0376 1074.39 82.6813C1079.21 89.2562 1085.56 86.446 1091.3 85.58C1120.84 81.1967 1148.76 70.8571 1177.02 61.8785C1197.19 55.4803 1217.32 48.9408 1237.47 42.4542V56.5761C1234.04 61.6487 1228.49 62.9213 1223.14 64.4236C1200.85 70.7334 1178.67 77.4143 1155.96 82.0627C1133.4 85.9158 1111.29 91.8544 1088.81 96.0609C1083.28 97.086 1077.83 97.7753 1072.25 97.086L1072.3 97.1214Z" fill="#141C41"/>
<path d="M767.507 183.511C750.539 190.21 735.852 201.698 718.213 206.965C713.794 206.523 715.243 203.271 715.173 200.708C716.339 197.297 719.202 195.53 721.995 193.709C728.181 190.157 732.494 184.006 739.263 181.266C744 179.128 748.648 176.706 753.597 175.098C756.496 174.161 759.518 172.217 762.47 175.133C762.293 178.58 763.177 180.701 767.312 179.499C769.15 178.969 771.148 178.951 773.074 178.703C771.218 180.294 769.363 181.903 767.489 183.493L767.507 183.511Z" fill="#792C38"/>
<path d="M882.443 146.644C881.188 148.482 879.933 150.303 878.696 152.141C874.242 160.801 865.476 160.713 857.646 162.516C854.27 163.859 850.877 165.202 847.501 166.528C844.991 163.17 842.393 165.45 839.671 166.245C831.099 168.737 822.456 171.017 813.318 171.689C818.656 169.55 823.958 167.323 829.349 165.291C833.52 163.7 837.78 162.392 838.593 157.054C838.769 155.852 839.83 154.491 840.908 154.88C855.136 159.9 864.097 148.076 875.515 144.205C876.611 143.834 877.689 143.392 878.785 142.985C878.997 145.23 881.241 145.407 882.479 146.609L882.443 146.644Z" fill="#A81723"/>
<path d="M753.225 155.286C791.367 131.019 828.253 104.879 865.741 79.604C873.5 74.3724 880.817 68.31 890.008 65.5352C891.952 73.8598 884.935 77.4301 880.959 82.6087C875.02 87.4338 869.93 93.1427 864.698 98.7101C862.719 100.725 860.562 102.545 858.388 104.348C847.784 112.814 837.762 121.952 827.387 130.683C825.213 132.468 822.403 133.988 824.524 137.576C805.4 152.67 784.827 165.361 762.487 175.135C754.692 178.104 746.916 181.056 739.121 184.025C733.112 179.341 734.968 175.028 739.262 170.186C743.787 165.095 751.051 162.55 753.243 155.304L753.225 155.286Z" fill="#D81B22"/>
<path d="M925.216 40.7385C944.252 29.7273 963.641 19.4231 983.754 10.4974C996.303 6.52069 1008.75 2.06671 1021.95 0.705773C1027.96 0.0871665 1034.09 -0.97329 1041.59 1.96067C1029.02 8.53558 1016.22 11.2398 1005.16 17.744C984.744 26.2984 965.249 36.5142 947.133 49.3106C929.387 59.5971 913.268 72.199 896.884 84.4297C884.053 90.1563 872.635 98.2335 860.987 105.922C856.622 107.619 856.657 105.215 857.452 102.122C858.849 100.036 860.492 98.2335 862.772 97.0847C869.277 93.0195 874.031 87.1339 879.015 81.4958C882.798 76.2641 887.322 71.5451 890.027 65.5534C901.762 57.2818 913.498 49.0278 925.234 40.7561L925.216 40.7385Z" fill="#141B41"/>
<path d="M413.751 186.607C414.352 187.225 415.518 187.914 415.465 188.462C414.264 198.13 418.629 195.868 423.631 192.333C433.476 193.747 434.925 195.674 433.44 205.465C433.228 206.932 432.698 208.505 433.14 209.831C436.745 220.382 436.922 230.086 427.767 238.357C425.31 240.584 427.537 243.289 429.075 245.445C433.087 251.083 434.784 257.022 431.62 263.65C430.118 266.813 431.054 269.358 433.582 271.479C436.975 274.325 442.985 275.562 441.076 281.872C439.096 288.447 432.963 287.51 427.237 288.093C427.961 293.343 432.062 299.105 425.363 303.134C423.56 304.23 425.292 304.849 425.893 305.733C432.822 315.913 431.761 317.857 418.488 319.536C413.751 319.006 411.807 315.347 409.774 311.777C408.979 309.55 409.244 307.341 409.933 305.132C408.166 299.493 406.416 293.838 404.649 288.199C399.24 276.799 395.175 265.47 407.353 255.007C402.369 257.198 398.286 260.362 393.903 257.852C394.627 259.249 397.102 261.758 394.168 264.781C389.961 265.293 388.512 261.971 387.275 259.196C383.775 251.419 378.649 244.72 373.877 237.757C368.822 230.369 366.861 221.973 366.454 213.154C371.509 214.02 372.145 219.092 374.956 222.097C379.074 227.947 386.25 231.73 387.116 239.842C395.546 229.856 408.325 225.066 416.473 215.787C412.655 217.06 408.926 221.39 403.411 219.269C402.439 218.403 402.068 217.307 402.227 216.017C401.503 217.749 403.624 218.916 403.111 220.63C398.675 228.23 391.004 228.689 383.581 229.008C379.445 229.184 377.589 226.215 377.836 222.097C384.27 216.6 390.544 210.909 397.19 205.713C400.371 203.221 401.131 200.181 399.258 197.441C396.66 193.606 394.344 197.724 392.029 198.767C389.484 199.933 387.646 202.708 383.563 202.072C385.348 197.512 382.944 190.194 392.223 192.05C395.228 193.959 396.748 192.174 398.321 189.823C403.712 181.817 405.479 181.499 413.733 186.607H413.751Z" fill="#D21D27"/>
<path d="M402.81 218.617C410.551 216.761 416.808 210.787 426.653 209.532C415.394 224.891 397.843 230.971 386.956 243.609C383.651 237.67 379.32 229.876 374.99 222.099C375.945 222.099 376.899 222.099 377.853 222.099C379.267 225.952 381.477 227.313 385.86 226.04C391.922 224.273 398.603 224.273 402.881 218.546L402.81 218.599V218.617Z" fill="#161B41"/>
<path d="M420.697 162.64C423.278 162.675 425.894 162.516 428.456 162.781C434.607 163.417 435.084 165.132 430.825 170.823C430.206 171.813 431.178 170.699 430.471 171.636C428.598 174.075 414.617 181.375 411.86 180.844C406.593 179.837 402.652 181.481 399.682 185.811C398.304 187.826 396.801 189.611 393.938 188.692C391.87 186.659 389.855 184.591 390.333 181.322C390.474 180.844 390.545 180.367 390.598 179.872C391.358 177.309 393.567 175.56 394.504 173.174C396.961 166.952 400.177 162.64 407.919 165.485C409.775 166.174 411.86 165.008 413.698 164.089C416.12 164.001 418.594 164.142 420.733 162.64H420.697Z" fill="#DA1F28"/>
<path d="M393.919 188.692C396.323 186.218 398.868 183.938 400.636 180.792C402.421 177.611 405.319 175.878 409.42 176.957C415.942 178.689 415.818 178.477 420.555 171.513C421.757 169.745 424.249 168.172 426.175 171.389C428.155 174.694 429.339 171.531 430.806 170.806C433.21 178.035 427.289 180.067 422.976 182.771C420.184 184.521 416.843 185.352 413.732 186.589C410.887 186.395 408.041 186.165 405.196 186.006C403.941 185.935 402.527 184.998 401.891 187.332C399.964 194.295 399.31 194.525 392.24 192.015C394.98 191.998 394.715 190.46 393.919 188.675V188.692Z" fill="#912038"/>
<path d="M413.662 164.108C411.913 166.175 408.961 168.668 407.158 167.589C399.593 163.012 398.604 170.647 397.985 173.475C396.925 178.282 393.761 178.636 390.562 179.873C389.996 177.611 385.065 175.331 388.441 173.581C393.814 170.806 393.425 160.997 401.538 162.764C405.62 163.648 409.668 163.383 413.662 164.108Z" fill="#6A2242"/>
<path d="M424.073 121.458C426.442 117.905 428.633 114.176 432.999 112.674C435.191 112.709 437.382 112.745 439.574 112.78C437.93 113.911 436.286 115.025 434.625 116.156C434.855 119.284 434.36 122.377 433.688 125.364C433.034 128.263 431.514 130.879 427.767 128.386C426.53 126.071 425.293 123.773 424.056 121.458H424.073Z" fill="#83233E"/>
<path d="M390.315 181.322C392.541 183.284 393.266 185.971 393.92 188.693C390.915 188.834 387.504 189.93 386.444 185.493C385.631 182.118 388.141 181.888 390.315 181.322Z" fill="#912038"/>
<path d="M395.616 271.656C393.654 270.012 394.184 267.697 393.972 265.576C394.891 260.627 390.72 256.95 390.49 251.136C400.388 264.427 405.125 247.972 414.439 248.113C407.157 253.716 411.275 265.151 400.635 267.732C398.073 268.35 400.264 271.249 400.6 273.087C401.519 278.231 404.753 282.755 404.683 288.181C400.759 283.162 400.794 275.968 395.616 271.638V271.656Z" fill="#161B41"/>
<path d="M427.801 128.388C431.106 128.264 433.086 126.992 431.23 123.492C429.038 119.339 431.601 117.713 434.659 116.175C439.13 115.415 441.039 118.879 443.478 121.477C443.903 122.078 443.867 122.661 443.443 123.227C439.678 125.189 441.463 131.569 435.896 132.435C434.5 132.648 434.659 135.582 435.56 137.172C439.767 144.578 436.249 146.54 429.321 146.222C429.003 145.727 428.791 145.073 428.349 144.772C418.487 138.392 418.398 136.218 427.801 128.388Z" fill="#173162"/>
<path d="M429.32 146.204C429.25 149.032 428.914 151.683 425.061 151.1C424.407 150.994 423.329 150.04 423.364 149.562C423.753 145.78 426.828 146.469 429.32 146.187V146.204Z" fill="#0F1C42"/>
<path d="M424.444 342.408C417.639 332.829 413.468 321.924 408.979 311.213C408.59 310.276 406.964 308.544 409.615 308.279C410.233 308.208 410.958 309.251 411.647 309.781C413.645 312.733 414.387 316.851 418.823 317.558C420.343 323.444 424.143 328.286 427.448 333.005C431.407 338.644 430.541 340.888 424.444 342.426V342.408Z" fill="#882436"/>
<path d="M402.864 218.544C395.777 218.933 403.006 212.287 399.259 211.032C402.67 212.482 407.053 213.471 402.794 218.597L402.864 218.544Z" fill="#161B41"/>
</g>
<defs>
<clipPath id="clip0_69_511">
<rect width="1237" height="955" fill="white"/>
</clipPath>
</defs>
</svg>
