<svg width="1237" height="955" viewBox="0 0 1237 955" fill="none" xmlns="http://www.w3.org/2000/svg">
<path d="M186.5 149.001C189.5 147.268 195 147.501 195 147.501C195 147.501 200.575 147.382 203 149.501C203.028 149.526 203.057 149.552 203.086 149.578C204.585 150.959 205.137 153.047 205.403 155.068L205.769 157.852C206.686 164.818 201.264 171.001 194.237 171.001V171.001C188.173 171.001 183.127 166.342 182.643 160.297L182.442 157.779C182.306 156.081 182.431 154.347 183.205 152.829C183.895 151.477 184.972 149.883 186.5 149.001Z" fill="#101C41"/>
<path d="M199.784 159.371C197.875 159.371 196.709 158.47 196.391 156.95C195.949 154.917 196.939 153.379 199.042 153.291C200.65 153.22 201.622 154.475 201.764 156.136C201.887 157.78 201.198 158.929 199.784 159.389V159.371Z" fill="#C6C4CC"/>
</svg>
