<svg width="308" height="68" viewBox="0 0 308 68" fill="none" xmlns="http://www.w3.org/2000/svg">
<path d="M265.113 31.8949V5.20361H271.998L283.227 25.1945V5.20361H288.454V31.8949H281.607L270.341 11.8672V31.8949H265.113Z" fill="#103F6E"/>
<path d="M236.145 31.8951L246.158 5.20374H252.122L262.21 31.8951H256.393L254.626 26.7777H243.544L241.777 31.8951H236.145ZM245.091 22.3598H253.08L249.067 10.8365L245.091 22.3598Z" fill="#103F6E"/>
<path d="M230.352 22.47H235.616C234.586 28.5446 229.726 32.3734 223.32 32.3734C215.257 32.3734 210.435 26.9247 210.435 18.5308C210.435 10.1368 215.515 4.76172 223.541 4.76172C229.836 4.76172 234.438 8.70099 235.432 14.6283H230.205C229.431 11.1308 226.818 9.17959 223.357 9.17959C219.234 9.17959 216.031 12.5298 216.031 18.5308C216.031 24.5685 219.197 27.9187 223.43 27.9187C226.707 27.9187 229.579 26.2989 230.352 22.47Z" fill="#103F6E"/>
<path d="M200.794 31.8949V5.20361H206.169V31.8949H200.794Z" fill="#103F6E"/>
<path d="M174.548 31.8951V5.20374H184.157C190.931 5.20374 195.901 6.71318 195.901 13.2664C195.901 16.9111 194.171 19.2305 190.673 20.519L197.079 31.8951H190.931L185.114 21.4026H179.923V31.8951H174.548ZM179.923 16.9111H184.378C187.691 16.9111 190.268 16.4325 190.268 13.34C190.268 10.2475 187.691 9.73205 184.378 9.73205H179.923V16.9111Z" fill="#103F6E"/>
<path d="M150.244 31.8951V5.20374H169.83V9.91613H155.619V15.8066H169.057V20.519H155.619V27.1827H169.83V31.8951H150.244Z" fill="#103F6E"/>
<path d="M115.981 31.8949V5.20361H124.596L130.303 25.489L136.12 5.20361H144.661V31.8949H139.396V9.80556L132.953 31.8949H127.726L121.209 9.84238V31.8949H115.981Z" fill="#103F6E"/>
<path d="M87.0127 31.8951L97.0265 5.20374H102.991L113.078 31.8951H107.261L105.494 26.7777H94.4126L92.6455 31.8951H87.0127ZM95.9589 22.3598H103.948L99.935 10.8365L95.9589 22.3598Z" fill="#103F6E"/>
<path d="M264.312 56.4584H269.51C269.51 58.5951 271.242 59.5769 277.826 59.5769C283.283 59.5769 284.929 58.9705 284.929 57.3824C284.929 55.7076 283.774 55.4189 277.22 55.1013C268.413 54.697 264.919 53.311 264.919 48.7776C264.919 44.3309 269.452 42.916 277.017 42.916C284.64 42.916 289.26 44.8218 289.26 49.8171H284.063C284.063 47.5938 281.84 47.0451 276.44 47.0451C271.329 47.0451 270.116 47.536 270.116 49.0375C270.116 50.5968 271.329 50.8855 277.22 51.232C285.189 51.6651 290.127 52.0983 290.127 57.2091C290.127 62.6088 285.016 63.706 277.537 63.706C269.25 63.706 264.312 62.2911 264.312 56.4584Z" fill="#F2172B"/>
<path d="M237.072 56.4585H242.27C242.27 58.5953 244.002 59.577 250.586 59.577C256.043 59.577 257.689 58.9706 257.689 57.3825C257.689 55.7078 256.534 55.419 249.979 55.1014C241.173 54.6971 237.679 53.3111 237.679 48.7778C237.679 44.331 242.212 42.9161 249.777 42.9161C257.4 42.9161 262.02 44.8219 262.02 49.8173H256.823C256.823 47.5939 254.599 47.0453 249.2 47.0453C244.089 47.0453 242.876 47.5361 242.876 49.0376C242.876 50.5969 244.089 50.8856 249.979 51.2321C257.949 51.6653 262.886 52.0984 262.886 57.2093C262.886 62.6089 257.776 63.7061 250.297 63.7061C242.01 63.7061 237.072 62.2913 237.072 56.4585Z" fill="#F2172B"/>
<path d="M235.465 47.3337H219.295V51.434H235.465V55.1877H219.295V59.288H235.465V63.4171H214.098V43.2046H235.465V47.3337Z" fill="#F2172B"/>
<path d="M212.395 50.6255C212.395 53.9172 210.72 56.3427 208.006 57.4111L211.731 63.4171H205.61L202.347 58.0175H193.973V63.4171H188.775V43.2046H204.657C209.248 43.2046 212.395 46.121 212.395 50.6255ZM193.973 47.5647V53.6573H203.213C204.772 53.6573 207.198 53.6573 207.198 50.6255C207.198 47.5647 204.772 47.5647 203.213 47.5647H193.973Z" fill="#F2172B"/>
<path d="M187.067 43.2046V47.5647H177.249V63.4171H172.052V47.5647H162.234V43.2046H187.067Z" fill="#F2172B"/>
<path d="M161.187 50.6255C161.187 53.9172 159.512 56.3427 156.798 57.4111L160.523 63.4171H154.402L151.139 58.0175H142.765V63.4171H137.567V43.2046H153.449C158.04 43.2046 161.187 46.121 161.187 50.6255ZM142.765 47.5647V53.6573H152.005C153.564 53.6573 155.99 53.6573 155.99 50.6255C155.99 47.5647 153.564 47.5647 152.005 47.5647H142.765Z" fill="#F2172B"/>
<path d="M122.97 63.7061C114.076 63.7061 110.265 60.0101 110.265 53.2823C110.265 46.5833 114.076 42.9161 122.97 42.9161C131.834 42.9161 135.675 46.6121 135.675 53.2823C135.675 59.9813 131.834 63.7061 122.97 63.7061ZM122.97 59.346C128.369 59.346 130.477 57.4114 130.477 53.2823C130.477 49.182 128.398 47.2763 122.97 47.2763C117.541 47.2763 115.462 49.1531 115.462 53.2823C115.462 57.4403 117.57 59.346 122.97 59.346Z" fill="#F2172B"/>
<path d="M109.475 47.5647H93.3049V52.7045H107.742V57.0935H93.3049V63.4171H88.1074V43.2046H109.475V47.5647Z" fill="#F2172B"/>
<path d="M298.433 62.2667H296.45V61.6445H301.086V62.2667H299.103V67.6083H298.436V62.2667H298.433Z" fill="#F2172B"/>
<path d="M302.343 61.6445H303.019L305.171 64.899L307.323 61.6445H308V67.6083H307.333V62.7784L305.181 65.9727H305.148L302.996 62.7884V67.6083H302.346V61.6445H302.343Z" fill="#F2172B"/>
<path fill-rule="evenodd" clip-rule="evenodd" d="M32.0285 66.6594L22.0389 60.1536V47.3407H10.4014V52.747L0 45.941V24.0215H32.0285V66.6594ZM10.2986 41.4049H22.0389V29.8968H10.2986V41.4049Z" fill="#F2172B"/>
<path d="M36.4326 24.0215V67.7604L47.1329 60.9543V45.0034H66.4798V38.9217H47.1329V30.0424H58.9139V33.3265H70.2627V24.0215H36.4326Z" fill="#F2172B"/>
<path d="M0 0H70.2625V19.4584H0V0Z" fill="#103F6E"/>
<path d="M33.1177 7.75446L34.0188 5.27835C34.5103 3.91446 34.9563 2.80225 34.9927 2.80225C35.0382 2.80225 35.0746 2.85096 35.0746 2.90779C35.0746 2.9565 35.4751 4.07683 36.8494 7.75446L43.439 7.79505L42.4651 8.4364C41.9281 8.79361 40.7995 9.5405 39.944 10.0926C39.0975 10.6446 38.333 11.1317 38.2602 11.1642C38.1418 11.221 38.2784 11.6675 39.1157 13.9407C39.6618 15.4263 40.1351 16.6928 40.1624 16.7577C40.1897 16.8227 39.052 16.0839 37.623 15.1178C36.1941 14.1517 34.9745 13.3805 34.9199 13.3967C34.8562 13.4211 34.2372 13.8189 33.5546 14.2898C32.8629 14.7606 31.7434 15.5238 31.0699 15.9865C30.3964 16.4492 29.8321 16.8227 29.823 16.8146C29.8139 16.8146 30.2689 15.5562 31.889 11.2454L31.4157 10.9693C31.1518 10.8232 30.005 10.0844 28.8673 9.32943C27.7387 8.57442 26.7284 7.91683 26.6374 7.86C26.51 7.78693 27.1926 7.76258 33.1177 7.75446Z" fill="#FDFAF4"/>
</svg>
