<svg width="307" height="105" viewBox="0 0 307 105" fill="none" xmlns="http://www.w3.org/2000/svg">
<path d="M134 46.6H141.6C142.4 46.6 143 46.0001 143 45.2001V37.6C143 36.8 142.4 36.2001 141.6 36.2001H134.6C133.7 36.2001 133.1 35.5001 133.1 34.7001V27.3C133.1 26.6 132.6 25.9 131.9 25.8H112.4C112 25.8 111.6 26.0001 111.3 26.2001L101.9 35.6C101.6 35.9 101.5 36.3001 101.5 36.7001V45.2001C101.5 45.6001 101.5 45.9001 101.1 46.2001C100.8 46.5001 100.5 46.6 100.1 46.6H92.4C92 46.6 91.7 46.6001 91.4 46.2001C91.2 45.9001 91 45.6001 91 45.2001V36.7001C91 36.3001 90.8 35.9 90.6 35.6L81 26.2001C80.7 25.9001 80.3 25.8 79.9 25.8H61.1C60.3 25.8 59.6 26.5 59.6 27.3V34.8C59.6 35.2 59.6 35.5 59.2 35.8C58.9 36.1 58.6 36.2001 58.2 36.2001H50.6C50.2 36.2001 49.9 36.2 49.6 35.8C49.3 35.5 49.2 35.2 49.2 34.8V27.2001C49.2 26.4001 48.6 25.8 47.8 25.8H40.2C39.4 25.8 38.8 26.4001 38.8 27.2001V34.8C38.8 35.2 38.7 35.5 38.4 35.8C38.1 36.1 37.8 36.2001 37.4 36.2001H29.8C29 36.2001 28.4 36.8 28.4 37.6V76.5C28.4 77.3 29 77.9001 29.8 77.9001H37.4C38.2 77.9001 38.8 77.3 38.8 76.5V37.6C38.8 37.2 38.9 36.9 39.2 36.6C39.5 36.3 39.8 36.2001 40.2 36.2001H47.8C48.2 36.2001 48.5 36.2 48.8 36.6C49.1 36.9 49.2 37.2 49.2 37.6V76.5C49.2 77.3 49.8 77.9001 50.6 77.9001H79.9C80.3 77.9001 80.7 77.7 81 77.5L90.4 68.1C90.7 67.8 90.8 67.4 90.8 67V58.5C90.8 58.1 90.8 57.8 91.2 57.5C91.4 57.2 91.8 57.1 92.2 57.1H99.9C100.3 57.1 100.6 57.1 100.9 57.5C101.2 57.8 101.3 58.1 101.3 58.5V66.9001C101.3 67.3001 101.5 67.7 101.7 68L111.2 77.5C111.5 77.8 111.9 77.9001 112.3 77.9001H141.5C142.3 77.9001 143 77.2001 143 76.4001V69C143 68.2 142.3 67.5 141.5 67.5H113.3C112.5 67.5 111.8 66.8 111.8 66V58.6C111.8 57.8 111.1 57.1 110.3 57.1H102.8C102.4 57.1 102.1 57.1001 101.8 56.7001C101.6 56.4001 101.4 56.1001 101.4 55.7001V48.1C101.4 47.7 101.4 47.4 101.8 47.1C102.2 46.8 102.4 46.7001 102.8 46.7001H110.3C111.1 46.7001 111.8 46.0001 111.8 45.2001V37.8C111.8 37 112.5 36.3 113.3 36.3H131.2C131.6 36.3 131.9 36.3001 132.2 36.7001C132.5 37.0001 132.6 37.3001 132.6 37.7001V45.3C132.6 46 133.2 46.6 134 46.6ZM80.5 65.9001C80.5 66.7001 79.8 67.4001 79 67.4001H61.1C60.3 67.4001 59.6 66.7001 59.6 65.9001V58.5C59.6 57.7 60.3 57 61.1 57H79C79.4 57 79.7 57.0001 80 57.4001C80.3 57.7001 80.4 58.0001 80.4 58.4001V65.9001H80.5ZM80.5 45.2001C80.5 45.6001 80.5 45.9001 80.1 46.2001C79.8 46.5001 79.5 46.6 79.1 46.6H61.1C60.3 46.6 59.6 45.9 59.6 45.1V37.6C59.6 37.2 59.6 36.9 60 36.6C60.3 36.3 60.6 36.2001 61 36.2001H79C79.8 36.2001 80.5 36.9001 80.5 37.7001V45.2001ZM90.9 55.6C90.9 56 90.9 56.3 90.5 56.6C90.2 56.9 89.9 57 89.5 57H81.9C81.5 57 81.2 57 80.9 56.6C80.6 56.3 80.5 56 80.5 55.6V48C80.5 47.6 80.5 47.3 80.9 47C81.2 46.7 81.5 46.6 81.9 46.6H89.5C89.9 46.6 90.2 46.6 90.5 47C90.8 47.3 90.9 47.6 90.9 48V55.6Z" fill="white"/>
<path d="M167.5 37.9999C167.5 38.2999 167.3 38.3999 167.1 38.3999H165.3C165 38.3999 164.8 38.1999 164.8 37.9999V26.2999C164.8 25.9999 165 25.8999 165.3 25.8999H167.1C167.4 25.8999 167.5 26.0999 167.5 26.2999V37.9999Z" fill="white"/>
<path d="M178.5 33.6999V26.2999C178.5 25.9999 178.7 25.8999 178.9 25.8999H180.7C181 25.8999 181.1 26.0999 181.1 26.2999V37.9999C181.1 38.2999 180.9 38.3999 180.7 38.3999H178.5C178.1 38.3999 178 38.1999 177.9 37.9999L174.2 30.5999H174V37.9999C174 38.2999 173.8 38.3999 173.6 38.3999H171.8C171.5 38.3999 171.3 38.1999 171.3 37.9999V26.2999C171.3 25.9999 171.5 25.8999 171.8 25.8999H174C174.4 25.8999 174.5 26.0999 174.6 26.2999L178.3 33.6999H178.5Z" fill="white"/>
<path d="M188.8 33.6999H189L191.3 26.2999C191.3 25.9999 191.6 25.8999 191.9 25.8999H193.9C194.1 25.8999 194.3 26.0999 194.2 26.2999L190.2 37.9999C190.2 38.2999 189.9 38.3999 189.6 38.3999H188.3C187.9 38.3999 187.8 38.1999 187.7 37.9999L183.7 26.2999C183.7 25.9999 183.7 25.8999 184 25.8999H186C186.4 25.8999 186.5 26.0999 186.6 26.2999L188.9 33.6999H188.8Z" fill="white"/>
<path d="M199.4 36H205.2C205.5 36 205.7 36.2001 205.7 36.4001V37.9001C205.7 38.2001 205.5 38.3 205.2 38.3H197.2C196.9 38.3 196.7 38.1001 196.7 37.9001V26.2001C196.7 25.9001 196.9 25.8 197.2 25.8H205C205.3 25.8 205.4 26.0001 205.4 26.2001V27.7001C205.4 28.0001 205.2 28.1 205 28.1H199.4V30.6H203.6C203.9 30.6 204 30.8 204 31V32.5C204 32.8 203.8 32.9001 203.6 32.9001H199.4V35.7001V36Z" fill="white"/>
<path d="M214.7 34.7999C214.7 34.3999 214.5 34.2 214.1 34L210.1 32.5C208.8 32 208.1 31.2999 208.1 29.7999V28.5C208.1 26.6 209 25.7 210.9 25.7H214.4C216.3 25.7 217.2 26.6 217.2 28.5V29.7C217.2 30 217 30.1 216.7 30.1H214.9C214.6 30.1 214.5 29.9 214.5 29.7V29.1C214.5 28.6 214.1 28.2 213.6 28.2H211.7C211.2 28.2 210.8 28.6 210.8 29.1V29.6C210.8 30 211 30.2 211.4 30.4L215.4 31.9C216.7 32.4 217.4 33.0999 217.4 34.5999V35.9C217.4 37.8 216.5 38.7 214.6 38.7H210.7C208.8 38.7 207.9 37.8 207.9 35.9V34.7C207.9 34.4 208.1 34.2999 208.3 34.2999H210.1C210.4 34.2999 210.5 34.5 210.5 34.7V35.2999C210.5 35.7999 210.9 36.2 211.4 36.2H213.6C214.1 36.2 214.5 35.7999 214.5 35.2999V34.7999H214.7Z" fill="white"/>
<path d="M225.4 38C225.4 38.3 225.2 38.4 225 38.4H223.2C222.9 38.4 222.8 38.2 222.8 38V28.3H219.9C219.6 28.3 219.5 28.1 219.5 27.9V26.4C219.5 26.1 219.7 26 219.9 26H228.3C228.6 26 228.7 26.2 228.7 26.4V27.9C228.7 28.2 228.5 28.3 228.3 28.3H225.4V38Z" fill="white"/>
<path d="M167.5 57.9999C167.5 58.2999 167.3 58.3999 167.1 58.3999H165.3C165 58.3999 164.8 58.1999 164.8 57.9999V46.2999C164.8 45.9999 165 45.8999 165.3 45.8999H167.1C167.4 45.8999 167.5 46.0999 167.5 46.2999V57.9999Z" fill="white"/>
<path d="M178.5 53.6V46.2001C178.5 45.9001 178.7 45.8 178.9 45.8H180.7C181 45.8 181.1 46.0001 181.1 46.2001V57.9001C181.1 58.2001 180.9 58.3 180.7 58.3H178.5C178.1 58.3 178 58.1001 177.9 57.9001L174.2 50.5H174V57.9001C174 58.2001 173.8 58.3 173.6 58.3H171.8C171.5 58.3 171.3 58.1001 171.3 57.9001V46.2001C171.3 45.9001 171.5 45.8 171.8 45.8H174C174.4 45.8 174.5 46.0001 174.6 46.2001L178.3 53.6H178.5Z" fill="white"/>
<path d="M194.6 49.5999C194.6 49.8999 194.4 50 194.2 50H192.4C192.1 50 192 49.7999 192 49.5999V49C192 48.5 191.6 48.0999 191.1 48.0999H188.5C188 48.0999 187.6 48.5 187.6 49V55.2999C187.6 55.7999 188 56.2 188.5 56.2H191.1C191.6 56.2 192 55.7999 192 55.2999V54.7C192 54.4 192.2 54.2999 192.4 54.2999H194.2C194.5 54.2999 194.6 54.5 194.6 54.7V55.9C194.6 57.8 193.7 58.7 191.8 58.7H187.6C185.7 58.7 184.8 57.8 184.8 55.9V48.5C184.8 46.6 185.7 45.7 187.6 45.7H191.8C193.7 45.7 194.6 46.6 194.6 48.5V49.7V49.5999Z" fill="white"/>
<path d="M197.9 46.2999C197.9 45.9999 198.1 45.8999 198.4 45.8999H200.2C200.5 45.8999 200.6 46.0999 200.6 46.2999V55.2999C200.6 55.7999 201 56.1999 201.5 56.1999H203.9C204.4 56.1999 204.8 55.7999 204.8 55.2999V46.2999C204.8 45.9999 205 45.8999 205.2 45.8999H207C207.3 45.8999 207.4 46.0999 207.4 46.2999V55.7999C207.4 57.6999 206.5 58.5999 204.6 58.5999H200.6C198.7 58.5999 197.8 57.6999 197.8 55.7999V46.2999H197.9Z" fill="white"/>
<path d="M211.3 46.2999C211.3 45.9999 211.5 45.8999 211.8 45.8999H217.4C219.3 45.8999 220.2 46.7999 220.2 48.6999V49.8999C220.2 51.3999 219 51.6999 219 51.6999V51.8999C219 51.8999 220.8 52.1999 220.8 54.0999V55.7999C220.8 57.6999 219.9 58.5999 218 58.5999H211.8C211.5 58.5999 211.3 58.3999 211.3 58.1999V46.4999V46.2999ZM214 48.2999V50.6999H216.5C217 50.6999 217.4 50.2999 217.4 49.7999V49.1999C217.4 48.6999 217 48.2999 216.5 48.2999H214ZM217.1 55.9999C217.6 55.9999 218 55.5999 218 55.0999V53.8999C218 53.3999 217.6 52.9999 217.1 52.9999H214V55.9999H217.1Z" fill="white"/>
<path d="M226.1 55.7999L225.5 57.9999C225.5 58.2999 225.2 58.3999 224.9 58.3999H222.9C222.7 58.3999 222.5 58.1999 222.6 57.9999L226.4 46.2999C226.4 45.9999 226.7 45.8999 227 45.8999H229.2C229.6 45.8999 229.7 46.0999 229.8 46.2999L233.6 57.9999C233.6 58.2999 233.6 58.3999 233.3 58.3999H231.3C230.9 58.3999 230.8 58.1999 230.7 57.9999L230.1 55.7999H226.1ZM229.4 53.3999L228.2 49.3999H228L226.8 53.3999H229.3H229.4Z" fill="white"/>
<path d="M240.9 58C240.9 58.3 240.7 58.4 240.5 58.4H238.7C238.4 58.4 238.3 58.2 238.3 58V48.3H235.4C235.1 48.3 235 48.1 235 47.9V46.4C235 46.1 235.2 46 235.4 46H243.8C244.1 46 244.2 46.2 244.2 46.4V47.9C244.2 48.2 244 48.3 243.8 48.3H240.9V58Z" fill="white"/>
<path d="M249.5 56H255.3C255.6 56 255.8 56.2001 255.8 56.4001V57.9001C255.8 58.2001 255.6 58.3 255.3 58.3H247.3C247 58.3 246.8 58.1001 246.8 57.9001V46.2001C246.8 45.9001 247 45.8 247.3 45.8H255.1C255.4 45.8 255.6 46.0001 255.6 46.2001V47.7001C255.6 48.0001 255.4 48.1 255.1 48.1H249.5V50.6H253.7C254 50.6 254.1 50.8 254.1 51V52.5C254.1 52.8 253.9 52.9001 253.7 52.9001H249.5V55.7001V56Z" fill="white"/>
<path d="M167 75.7999L166.4 77.9999C166.4 78.2999 166.1 78.3999 165.8 78.3999H163.8C163.6 78.3999 163.4 78.1999 163.5 77.9999L167.3 66.2999C167.3 65.9999 167.6 65.8999 167.9 65.8999H170.1C170.5 65.8999 170.6 66.0999 170.7 66.2999L174.5 77.9999C174.5 78.2999 174.5 78.3999 174.2 78.3999H172.2C171.8 78.3999 171.7 78.1999 171.6 77.9999L171 75.7999H167ZM170.2 73.2999L169 69.2999H168.8L167.6 73.2999H170.1H170.2Z" fill="white"/>
<path d="M186.5 69.6C186.5 69.9 186.3 70 186.1 70H184.3C184 70 183.9 69.8 183.9 69.6V69C183.9 68.5 183.5 68.1 183 68.1H180.4C179.9 68.1 179.5 68.5 179.5 69V75.3C179.5 75.8 179.9 76.2 180.4 76.2H183C183.5 76.2 183.9 75.8 183.9 75.3V74.7C183.9 74.4 184.1 74.3 184.3 74.3H186.1C186.4 74.3 186.5 74.5 186.5 74.7V75.9C186.5 77.8 185.6 78.7 183.7 78.7H179.5C177.6 78.7 176.7 77.8 176.7 75.9V68.5C176.7 66.6 177.6 65.7 179.5 65.7H183.7C185.6 65.7 186.5 66.6 186.5 68.5V69.7V69.6Z" fill="white"/>
<path d="M199.5 69.6C199.5 69.9 199.3 70 199.1 70H197.3C197 70 196.9 69.8 196.9 69.6V69C196.9 68.5 196.5 68.1 196 68.1H193.4C192.9 68.1 192.5 68.5 192.5 69V75.3C192.5 75.8 192.9 76.2 193.4 76.2H196C196.5 76.2 196.9 75.8 196.9 75.3V74.7C196.9 74.4 197.1 74.3 197.3 74.3H199.1C199.4 74.3 199.5 74.5 199.5 74.7V75.9C199.5 77.8 198.6 78.7 196.7 78.7H192.5C190.6 78.7 189.7 77.8 189.7 75.9V68.5C189.7 66.6 190.6 65.7 192.5 65.7H196.7C198.6 65.7 199.5 66.6 199.5 68.5V69.7V69.6Z" fill="white"/>
<path d="M205.5 76H211.3C211.6 76 211.8 76.2 211.8 76.4V77.9C211.8 78.2 211.6 78.3 211.3 78.3H203.3C203 78.3 202.8 78.1 202.8 77.9V66.2C202.8 65.9 203 65.8 203.3 65.8H211.1C211.4 65.8 211.6 66 211.6 66.2V67.7C211.6 68 211.4 68.1 211.1 68.1H205.5V70.6H209.7C210 70.6 210.1 70.8 210.1 71V72.5C210.1 72.8 209.9 72.9 209.7 72.9H205.5V75.7V76Z" fill="white"/>
<path d="M217.3 76H222.7C223 76 223.1 76.2 223.1 76.4V77.9C223.1 78.2 222.9 78.3 222.7 78.3H215.1C214.8 78.3 214.6 78.1 214.6 77.9V66.2C214.6 65.9 214.8 65.8 215.1 65.8H216.9C217.2 65.8 217.3 66 217.3 66.2V75.9V76Z" fill="white"/>
<path d="M228.2 76H234C234.3 76 234.5 76.2 234.5 76.4V77.9C234.5 78.2 234.3 78.3 234 78.3H226C225.7 78.3 225.5 78.1 225.5 77.9V66.2C225.5 65.9 225.7 65.8 226 65.8H233.8C234.1 65.8 234.2 66 234.2 66.2V67.7C234.2 68 234 68.1 233.8 68.1H228.2V70.6H232.4C232.7 70.6 232.8 70.8 232.8 71V72.5C232.8 72.8 232.6 72.9 232.4 72.9H228.2V75.7V76Z" fill="white"/>
<path d="M245 74.2L246.8 77.9C246.9 78.2 246.8 78.3 246.5 78.3H244.6C244.2 78.3 244.1 78.1 243.9 77.9L242.3 74.4H240V77.9C240 78.2 239.8 78.3 239.6 78.3H237.8C237.5 78.3 237.3 78.1 237.3 77.9V66.2C237.3 65.9 237.5 65.8 237.8 65.8H244C245.9 65.8 246.8 66.7 246.8 68.6V71.7C246.8 74.1 245.1 74.3 245.1 74.3L245 74.2ZM240 68.2V72H243.1C243.6 72 244 71.6 244 71.1V69.1C244 68.6 243.6 68.2 243.1 68.2H240Z" fill="white"/>
<path d="M252.4 75.7999L251.8 77.9999C251.8 78.2999 251.5 78.3999 251.2 78.3999H249.2C249 78.3999 248.8 78.1999 248.9 77.9999L252.7 66.2999C252.7 65.9999 253 65.8999 253.3 65.8999H255.5C255.9 65.8999 256 66.0999 256.1 66.2999L259.9 77.9999C259.9 78.2999 259.9 78.3999 259.6 78.3999H257.6C257.2 78.3999 257.1 78.1999 257 77.9999L256.4 75.7999H252.4ZM255.6 73.2999L254.4 69.2999H254.2L253 73.2999H255.5H255.6Z" fill="white"/>
<path d="M267.2 77.8999C267.2 78.1999 267 78.2999 266.8 78.2999H265C264.7 78.2999 264.6 78.0999 264.6 77.8999V68.1999H261.7C261.4 68.1999 261.3 67.9999 261.3 67.7999V66.2999C261.3 65.9999 261.5 65.8999 261.7 65.8999H270.1C270.4 65.8999 270.5 66.0999 270.5 66.2999V67.7999C270.5 68.0999 270.3 68.1999 270.1 68.1999H267.2V77.8999Z" fill="white"/>
<path d="M275.8 76H281.6C281.9 76 282.1 76.2 282.1 76.4V77.9C282.1 78.2 281.9 78.3 281.6 78.3H273.6C273.3 78.3 273.1 78.1 273.1 77.9V66.2C273.1 65.9 273.3 65.8 273.6 65.8H281.4C281.7 65.8 281.9 66 281.9 66.2V67.7C281.9 68 281.7 68.1 281.4 68.1H275.8V70.6H280C280.3 70.6 280.4 70.8 280.4 71V72.5C280.4 72.8 280.2 72.9 280 72.9H275.8V75.7V76Z" fill="white"/>
</svg>
