<svg width="108" height="39" viewBox="0 0 108 39" fill="none" xmlns="http://www.w3.org/2000/svg">
<mask id="mask0_1011_502" style="mask-type:luminance" maskUnits="userSpaceOnUse" x="0" y="0" width="108" height="39">
<path d="M107.453 0.68457H0.946289V38.249H107.453V0.68457Z" fill="white"/>
</mask>
<g mask="url(#mask0_1011_502)">
<path d="M46.8253 23.3646H50.3203C50.3365 23.3646 50.3525 23.3612 50.3674 23.3547C50.3822 23.3482 50.3955 23.3386 50.4065 23.3267C50.4185 23.3155 50.428 23.302 50.4345 23.287C50.4411 23.272 50.4444 23.2558 50.4444 23.2394L50.5435 22.4562C50.5603 22.3729 50.5277 22.3321 50.4444 22.3321H45.8669C45.8323 22.3307 45.7986 22.3429 45.7729 22.3661C45.7473 22.3893 45.7318 22.4217 45.7299 22.4562L44.6971 30.9129C44.6803 30.9962 44.7139 31.037 44.7972 31.037H45.7131C45.7476 31.0385 45.7814 31.0263 45.807 31.003C45.8326 30.9798 45.8481 30.9474 45.85 30.9129L46.2974 27.2294C46.2973 27.2223 46.299 27.2154 46.3023 27.2091C46.3057 27.2029 46.3105 27.1975 46.3164 27.1936C46.3292 27.1851 46.3443 27.1808 46.3597 27.1811H48.6484C48.683 27.1826 48.7167 27.1704 48.7424 27.1472C48.768 27.1239 48.7835 27.0916 48.7854 27.057L48.8716 26.2738C48.8884 26.1905 48.8558 26.1498 48.7725 26.1498H46.488C46.4813 26.1506 46.4744 26.1499 46.4679 26.1476C46.4615 26.1454 46.4557 26.1416 46.4509 26.1368C46.4461 26.1319 46.4425 26.126 46.4404 26.1195C46.4383 26.113 46.4377 26.1061 46.4387 26.0993L46.7745 23.4136C46.7736 23.4022 46.7772 23.391 46.7846 23.3823C46.792 23.3736 46.8025 23.3681 46.8138 23.3671C46.8172 23.3667 46.8205 23.3667 46.8239 23.3671" fill="white"/>
<path d="M54.1258 22.229C53.6391 22.2235 53.1585 22.3381 52.7267 22.5627C52.3114 22.7788 51.9582 23.0974 51.7004 23.4882C51.4313 23.8988 51.2652 24.3683 51.2162 24.8568L50.7666 28.5088C50.7509 28.7076 50.7423 28.8489 50.7423 28.9301C50.7286 29.2263 50.7762 29.5221 50.8821 29.7991C50.9881 30.076 51.1502 30.328 51.3581 30.5394C51.5824 30.7465 51.8459 30.9064 52.1331 31.0099C52.4202 31.1133 52.7252 31.1581 53.03 31.1416C53.758 31.1607 54.4658 30.9004 55.008 30.4142C55.5527 29.9187 55.8938 29.2385 55.965 28.5056L56.4135 24.8493C56.4292 24.6504 56.4378 24.5092 56.4378 24.428C56.4521 24.1322 56.4042 23.8367 56.2972 23.5605C56.1902 23.2844 56.0265 23.0337 55.8166 22.8248C55.3543 22.4096 54.7462 22.1949 54.1258 22.2279M55.2576 24.826L54.7977 28.5621C54.7583 28.9875 54.568 29.3848 54.2613 29.6822C53.9662 29.9617 53.5726 30.113 53.1663 30.1031C52.9987 30.1112 52.8312 30.085 52.6741 30.0261C52.517 29.9673 52.3736 29.877 52.2525 29.7608C52.1356 29.6378 52.0449 29.4922 51.986 29.333C51.9272 29.1737 51.9014 29.0041 51.9103 28.8346C51.9086 28.7436 51.9127 28.6526 51.9228 28.5621L52.3702 24.831C52.4183 24.404 52.6089 24.0056 52.9113 23.7002C53.0538 23.5577 53.2237 23.4455 53.4109 23.3706C53.598 23.2957 53.7984 23.2595 53.9999 23.2643C54.1709 23.2559 54.3418 23.2836 54.5014 23.3456C54.661 23.4077 54.8057 23.5027 54.9261 23.6244C55.1618 23.8863 55.2848 24.2305 55.2684 24.5825C55.2702 24.6642 55.2666 24.7459 55.2576 24.8271V24.826Z" fill="white"/>
<path d="M63.3533 22.332H62.4331C62.4168 22.3322 62.4006 22.3356 62.3856 22.3421C62.3706 22.3486 62.3571 22.3581 62.3459 22.3699C62.3219 22.3937 62.3049 22.4235 62.2965 22.4561L61.5502 28.5503C61.5114 28.9754 61.3252 29.3736 61.0237 29.6758C60.8804 29.8164 60.7102 29.9268 60.5235 30.0005C60.3367 30.0742 60.137 30.1097 59.9362 30.1049C59.7703 30.1125 59.6046 30.0849 59.4502 30.0237C59.2958 29.9625 59.1561 29.8693 59.0404 29.7502C58.8085 29.4907 58.6879 29.1504 58.7046 28.8028C58.7032 28.7198 58.7074 28.6367 58.7171 28.5543L59.4613 22.4622C59.477 22.3789 59.4445 22.3381 59.3562 22.3381H58.436C58.4014 22.3367 58.3677 22.3488 58.3421 22.3721C58.3164 22.3953 58.301 22.4277 58.299 22.4622L57.562 28.4817C57.5452 28.6805 57.5377 28.8218 57.5377 28.903C57.522 29.2027 57.5679 29.5025 57.6724 29.7839C57.777 30.0652 57.938 30.3223 58.1456 30.5391C58.3666 30.7459 58.6272 30.906 58.9116 31.0097C59.196 31.1133 59.4984 31.1585 59.8007 31.1424C60.5248 31.1625 61.2287 30.9019 61.7651 30.415C62.3065 29.9077 62.6435 29.2197 62.7124 28.481L63.4634 22.4626C63.4634 22.3742 63.4255 22.3331 63.3508 22.3331" fill="white"/>
<path d="M70.3811 22.3323H69.4871C69.4525 22.3309 69.4188 22.3431 69.3932 22.3663C69.3675 22.3895 69.3521 22.4219 69.3501 22.4564L68.6281 28.2646C68.6281 28.2889 68.6216 28.3003 68.6102 28.3003C68.5928 28.2983 68.5769 28.2896 68.5659 28.276L66.3558 22.4196C66.3452 22.3924 66.3262 22.3692 66.3016 22.3535C66.277 22.3378 66.2479 22.3304 66.2188 22.3323H65.3104C65.2759 22.3309 65.2421 22.3431 65.2165 22.3663C65.1909 22.3895 65.1754 22.4219 65.1735 22.4564L64.1364 30.9131C64.1196 30.9964 64.1521 31.0372 64.2354 31.0372H65.1566C65.1911 31.0381 65.2245 31.0257 65.25 31.0026C65.2755 30.9795 65.2912 30.9474 65.2936 30.9131L65.9896 25.081C65.9981 25.0556 66.0085 25.0431 66.0199 25.0431C66.027 25.044 66.0338 25.0468 66.0393 25.0513C66.0449 25.0558 66.0491 25.0617 66.0514 25.0685L68.2622 30.9503C68.2697 31.0093 68.3159 31.0375 68.3992 31.0375H69.3194C69.3356 31.0378 69.3517 31.0348 69.3667 31.0286C69.3817 31.0225 69.3953 31.0133 69.4066 31.0018C69.4181 30.9903 69.4271 30.9767 69.4333 30.9617C69.4394 30.9468 69.4425 30.9307 69.4424 30.9145L70.4931 22.4632C70.4974 22.4485 70.498 22.4329 70.4949 22.4179C70.4918 22.4029 70.485 22.3888 70.4752 22.377C70.464 22.3631 70.4497 22.3519 70.4334 22.3444C70.4172 22.3369 70.3994 22.3332 70.3815 22.3338" fill="white"/>
<path d="M77.034 24.3555C77.0474 24.0813 77.0021 23.8075 76.9011 23.5522C76.8002 23.2969 76.6459 23.0662 76.4486 22.8753C76.0053 22.4912 75.4299 22.2948 74.8443 22.3278H72.3946C72.36 22.3263 72.3263 22.3385 72.3007 22.3618C72.275 22.385 72.2596 22.4174 72.2576 22.4519L71.2259 30.9085C71.2091 30.9919 71.2427 31.0326 71.3249 31.0326H73.7746C74.459 31.0546 75.1268 30.8195 75.6464 30.3735C76.1539 29.923 76.4717 29.2968 76.5358 28.6212L77.0086 24.7417C77.0254 24.5669 77.034 24.4331 77.034 24.3566M75.8403 24.8662L75.3972 28.5003C75.3617 28.9073 75.1909 29.2905 74.9119 29.5889C74.7849 29.7205 74.6321 29.8243 74.463 29.8939C74.2939 29.9634 74.1123 29.9972 73.9295 29.993L72.5494 30.0055C72.5437 30.0063 72.5378 30.0059 72.5322 30.0044C72.5265 30.0029 72.5213 30.0003 72.5167 29.9967C72.512 29.9932 72.5082 29.9887 72.5053 29.9837C72.5024 29.9786 72.5005 29.9731 72.4997 29.9673C72.4991 29.9631 72.4991 29.9589 72.4997 29.9548L73.3083 23.4139C73.3073 23.4072 73.3078 23.4003 73.31 23.3938C73.3121 23.3874 73.3157 23.3815 73.3205 23.3767C73.3253 23.3719 73.3311 23.3683 73.3376 23.3662C73.3441 23.3641 73.3509 23.3635 73.3577 23.3645H74.7377C74.8904 23.3562 75.0431 23.3813 75.1852 23.438C75.3272 23.4947 75.4552 23.5816 75.5603 23.6928C75.7688 23.9408 75.8753 24.2587 75.8582 24.5822C75.8576 24.6778 75.8519 24.7733 75.8413 24.8683L75.8403 24.8662Z" fill="white"/>
<path d="M81.672 22.3301H80.5405C80.5072 22.331 80.4751 22.3422 80.4485 22.3622C80.4219 22.3822 80.4022 22.41 80.3921 22.4417L77.1199 30.899C77.1115 30.9144 77.1072 30.9316 77.1072 30.9491C77.1072 30.9666 77.1115 30.9838 77.1199 30.9992C77.1302 31.0121 77.1436 31.0221 77.1588 31.0284C77.1741 31.0346 77.1907 31.0369 77.2071 31.0349H78.1545C78.1885 31.0366 78.222 31.0263 78.2492 31.006C78.2765 30.9856 78.2959 30.9564 78.304 30.9233L78.8404 29.48L78.9065 29.3012L81.4953 28.4926L81.6259 29.4789L81.7997 30.9223C81.7997 30.997 81.8419 31.0339 81.9238 31.0339H82.8711C82.9545 31.0339 82.9963 30.9981 82.9963 30.9223V30.899L81.7886 22.4424C81.7909 22.4268 81.7895 22.4109 81.7844 22.396C81.7794 22.3811 81.7708 22.3676 81.7595 22.3567C81.7481 22.3458 81.7343 22.3377 81.7192 22.3332C81.7041 22.3287 81.6882 22.3279 81.6727 22.3308M80.8895 23.9719C80.8981 23.9562 80.9063 23.9476 80.9149 23.9476C80.9235 23.9476 80.9307 23.9562 80.9392 23.9719L81.3773 27.5513L79.316 28.1951L80.8895 23.9719Z" fill="white"/>
<path d="M89.0285 22.3701C89.0186 22.3582 89.0062 22.3486 88.9922 22.342C88.9781 22.3355 88.9628 22.3321 88.9473 22.3321H83.8859C83.8514 22.3307 83.8176 22.3429 83.792 22.3661C83.7664 22.3893 83.7509 22.4217 83.7489 22.4562L83.6438 23.2519C83.6438 23.3353 83.6817 23.376 83.7565 23.376H85.6093C85.6151 23.3753 85.6209 23.3757 85.6266 23.3772C85.6322 23.3787 85.6375 23.3813 85.6421 23.3849C85.6467 23.3884 85.6506 23.3929 85.6535 23.3979C85.6564 23.403 85.6582 23.4085 85.659 23.4143C85.6596 23.4185 85.6596 23.4227 85.659 23.4268L84.7388 30.9129C84.722 30.9962 84.7556 31.037 84.844 31.037H85.7645C85.799 31.0385 85.8328 31.0263 85.8584 31.003C85.8841 30.9798 85.8995 30.9474 85.9015 30.9129L86.8216 23.4268C86.8206 23.4201 86.8211 23.4131 86.8232 23.4066C86.8253 23.4001 86.8288 23.3941 86.8336 23.3892C86.8384 23.3843 86.8443 23.3806 86.8508 23.3784C86.8573 23.3762 86.8642 23.3755 86.871 23.3764H88.8111C88.8301 23.3782 88.8494 23.376 88.8675 23.3698C88.8856 23.3637 88.9022 23.3537 88.9162 23.3406C88.9277 23.3292 88.9367 23.3156 88.9429 23.3006C88.949 23.2856 88.9521 23.2696 88.952 23.2534L89.0521 22.4577C89.0553 22.4424 89.0547 22.4266 89.0505 22.4116C89.0463 22.3966 89.0385 22.3828 89.0278 22.3715" fill="white"/>
<path d="M91.5112 22.3324H90.591C90.5737 22.3311 90.5564 22.3333 90.54 22.3387C90.5235 22.3442 90.5083 22.3528 90.4953 22.3641C90.4822 22.3755 90.4714 22.3893 90.4637 22.4047C90.4559 22.4202 90.4513 22.4371 90.4501 22.4543C90.4501 22.4568 90.4501 22.4593 90.4501 22.4618L89.4173 30.9185C89.4005 31.0018 89.4341 31.0426 89.5174 31.0426H90.4376C90.4721 31.0441 90.5059 31.0319 90.5315 31.0086C90.5571 30.9854 90.5726 30.953 90.5746 30.9185L91.6084 22.4618C91.6274 22.3735 91.5938 22.3324 91.5115 22.3324" fill="white"/>
<path d="M95.8879 22.2281C95.4012 22.2228 94.9207 22.3374 94.4889 22.5618C94.0735 22.7779 93.7203 23.0965 93.4625 23.4873C93.1934 23.898 93.0273 24.3674 92.9783 24.8559L92.5309 28.5122C92.514 28.7108 92.5055 28.8513 92.5055 28.9335C92.4917 29.2297 92.5393 29.5256 92.6453 29.8025C92.7513 30.0794 92.9133 30.3315 93.1213 30.5428C93.3456 30.7499 93.6091 30.9099 93.8962 31.0133C94.1834 31.1168 94.4884 31.1616 94.7932 31.1451C95.5213 31.1644 96.2291 30.9041 96.7712 30.4176C97.3159 29.9222 97.657 29.2419 97.7282 28.509L98.1766 24.8527C98.1924 24.6539 98.201 24.5126 98.201 24.4318C98.2153 24.136 98.1674 23.8405 98.0604 23.5643C97.9534 23.2882 97.7897 23.0375 97.5798 22.8286C97.117 22.4131 96.509 22.1971 95.8879 22.2274M97.0197 24.8255L96.5609 28.5623C96.5217 28.9852 96.3332 29.3804 96.0291 29.677C95.7341 29.9565 95.3404 30.1078 94.9341 30.0979C94.7665 30.106 94.5991 30.0798 94.442 30.0209C94.2849 29.9621 94.1414 29.8718 94.0204 29.7557C93.9035 29.6326 93.8129 29.487 93.7541 29.3277C93.6952 29.1685 93.6694 28.999 93.6781 28.8295C93.6764 28.7381 93.6806 28.6467 93.6907 28.5559L94.1337 24.8259C94.1823 24.399 94.3729 24.0008 94.6748 23.6951C94.8173 23.5525 94.9873 23.4404 95.1744 23.3655C95.3615 23.2905 95.5619 23.2544 95.7634 23.2592C95.9345 23.2507 96.1055 23.2784 96.2651 23.3404C96.4248 23.4025 96.5695 23.4975 96.69 23.6193C96.9261 23.8809 97.0491 24.2253 97.0323 24.5773C97.0337 24.6605 97.0295 24.7437 97.0197 24.8262V24.8255Z" fill="white"/>
<path d="M105.352 22.3305H104.457C104.422 22.3293 104.389 22.3416 104.363 22.3648C104.337 22.3879 104.322 22.4201 104.32 22.4546L103.599 28.2627C103.599 28.287 103.599 28.2985 103.581 28.2985C103.563 28.2964 103.548 28.2877 103.536 28.2741L101.326 22.4167C101.315 22.3894 101.296 22.3663 101.272 22.3506C101.247 22.3349 101.218 22.3274 101.189 22.3294H100.28C100.246 22.3279 100.212 22.3401 100.186 22.3634C100.161 22.3866 100.145 22.419 100.143 22.4535L99.1116 30.9102C99.0948 30.9935 99.1284 31.0343 99.2107 31.0343H100.133C100.168 31.0357 100.201 31.0235 100.227 31.0003C100.253 30.9771 100.268 30.9447 100.27 30.9102L100.967 25.0781C100.975 25.0528 100.986 25.0402 100.998 25.0402C101.01 25.0402 101.021 25.0488 101.029 25.0656L103.24 30.9473C103.248 31.0064 103.293 31.0346 103.377 31.0346H104.297C104.313 31.0349 104.329 31.0318 104.344 31.0257C104.359 31.0195 104.373 31.0104 104.384 30.9988C104.395 30.9874 104.405 30.9738 104.411 30.9588C104.417 30.9438 104.42 30.9278 104.42 30.9116L105.463 22.4603C105.467 22.4456 105.468 22.43 105.465 22.415C105.462 22.3999 105.455 22.3859 105.445 22.3741C105.434 22.3602 105.42 22.349 105.403 22.3415C105.387 22.334 105.369 22.3303 105.351 22.3308" fill="white"/>
<path d="M46.0304 19.8783L47.6641 6.62847C47.6681 6.57538 47.692 6.52577 47.7311 6.48962C47.7701 6.45346 47.8214 6.43345 47.8747 6.43359H48.8294C48.9463 6.43359 49.0053 6.49903 49.0053 6.62847L47.5035 18.7877C47.5026 18.7983 47.5039 18.8089 47.5073 18.8189C47.5108 18.8288 47.5163 18.838 47.5236 18.8457C47.5282 18.8516 47.5342 18.8565 47.5409 18.8599C47.5476 18.8634 47.555 18.8653 47.5625 18.8657H53.0822C53.2117 18.8657 53.2632 18.9311 53.2381 19.0606L53.1402 19.8783C53.1364 19.9316 53.1126 19.9815 53.0735 20.0178C53.0344 20.0542 52.9829 20.0744 52.9295 20.0743H46.202C46.0851 20.0743 46.0293 20.0088 46.0293 19.8783" fill="white"/>
<path d="M54.3669 19.8783L56.0046 6.62847C56.0086 6.57538 56.0325 6.52577 56.0716 6.48962C56.1106 6.45346 56.162 6.43345 56.2152 6.43359H57.1699C57.2868 6.43359 57.3458 6.49903 57.3458 6.62847L55.7153 19.8783C55.7116 19.9316 55.6878 19.9815 55.6487 20.0178C55.6096 20.0542 55.5581 20.0744 55.5047 20.0743H54.55C54.427 20.0743 54.368 20.0088 54.368 19.8783" fill="white"/>
<path d="M66.7787 6.62437L66.6596 7.44319C66.6584 7.49429 66.6376 7.54297 66.6015 7.57922C66.5655 7.61547 66.5169 7.63652 66.4658 7.63806H63.3683C63.3573 7.63666 63.3463 7.63788 63.3359 7.64161C63.3256 7.64533 63.3163 7.65146 63.3088 7.6595C63.3013 7.66753 63.2958 7.67723 63.2927 7.6878C63.2897 7.69838 63.2893 7.70952 63.2914 7.7203L61.7896 19.8742C61.7897 19.8999 61.7845 19.9253 61.7743 19.9488C61.7642 19.9724 61.7493 19.9936 61.7306 20.0112C61.71 20.0311 61.6856 20.0466 61.6588 20.0567C61.632 20.0669 61.6034 20.0715 61.5747 20.0702H60.62C60.4895 20.0702 60.438 20.0047 60.4641 19.8742L61.9452 7.7203C61.9452 7.66881 61.9251 7.64235 61.8862 7.64235H58.9052C58.8808 7.64301 58.8567 7.63803 58.8346 7.62779C58.8125 7.61756 58.7931 7.60235 58.7779 7.58336C58.7621 7.5649 58.7513 7.5428 58.7463 7.51906C58.7413 7.49532 58.7423 7.47072 58.7493 7.44748L58.8462 6.62866C58.8501 6.57558 58.8741 6.52597 58.9131 6.48981C58.9522 6.45366 59.0035 6.43364 59.0568 6.43379H66.5974C66.7186 6.4295 66.7762 6.49494 66.7762 6.62437" fill="white"/>
<path d="M75.2544 7.64144H69.5824C69.5734 7.63956 69.5642 7.63946 69.5552 7.64116C69.5462 7.64286 69.5377 7.64632 69.53 7.65134C69.5224 7.65635 69.5158 7.66283 69.5107 7.6704C69.5056 7.67797 69.502 7.68648 69.5001 7.69543C69.4983 7.70476 69.4983 7.71436 69.5001 7.72368L68.8959 12.5561C68.8947 12.5652 68.8952 12.5744 68.8976 12.5832C68.8999 12.592 68.904 12.6003 68.9095 12.6075C68.9151 12.6147 68.922 12.6208 68.9299 12.6254C68.9378 12.6299 68.9465 12.6329 68.9556 12.6341C68.9615 12.6348 68.9675 12.6348 68.9734 12.6341H72.7933C72.9227 12.6341 72.9742 12.6995 72.9492 12.829L72.8512 13.6478C72.8472 13.7009 72.8233 13.7505 72.7842 13.7866C72.7452 13.8228 72.6938 13.8428 72.6406 13.8427H68.8218C68.8128 13.8414 68.8036 13.842 68.7947 13.8444C68.7859 13.8468 68.7776 13.8509 68.7704 13.8565C68.7631 13.8621 68.757 13.869 68.7525 13.8769C68.748 13.8849 68.745 13.8936 68.7439 13.9027C68.7432 13.9087 68.7432 13.9147 68.7439 13.9206L68.1396 18.792C68.1387 18.8026 68.14 18.8132 68.1434 18.8231C68.1469 18.8331 68.1524 18.8423 68.1596 18.85C68.1643 18.8559 68.1702 18.8608 68.1769 18.8642C68.1837 18.8677 68.1911 18.8696 68.1986 18.87H73.8688C73.8958 18.868 73.9229 18.8722 73.9481 18.8822C73.9732 18.8923 73.9958 18.9079 74.014 18.9279C74.03 18.9464 74.0412 18.9687 74.0463 18.9926C74.0514 19.0166 74.0504 19.0414 74.0433 19.0649L73.9464 19.8826C73.9427 19.9359 73.9189 19.9858 73.8798 20.0221C73.8407 20.0585 73.7892 20.0787 73.7358 20.0785H66.8349C66.7179 20.0785 66.6589 20.0131 66.6589 19.8826L68.2959 6.62847C68.2998 6.57538 68.3238 6.52577 68.3629 6.48962C68.4019 6.45346 68.4532 6.43345 68.5065 6.43359H75.4039C75.5333 6.43359 75.5858 6.49903 75.5597 6.62847L75.4628 7.44728C75.4589 7.50037 75.4349 7.54998 75.3959 7.58613C75.3568 7.62229 75.3055 7.6423 75.2522 7.64216" fill="white"/>
<path d="M76.5987 19.3623C76.2878 19.0546 76.0455 18.6846 75.8877 18.2767C75.7298 17.8688 75.6601 17.432 75.683 16.9952C75.683 16.8783 75.6955 16.6795 75.7219 16.391L76.5018 10.0978C76.5795 9.02993 77.0697 8.03414 77.8686 7.32117C78.6674 6.6082 79.7123 6.23396 80.7822 6.27765C81.6954 6.22775 82.5916 6.53937 83.2769 7.1451C83.5864 7.44967 83.828 7.81627 83.9859 8.22084C84.1437 8.6254 84.2141 9.05877 84.1926 9.4925C84.1926 9.61049 84.179 9.79893 84.1536 10.0578L84.1336 10.2337C84.1207 10.2857 84.0938 10.3331 84.0556 10.3707C84.0382 10.3891 84.0171 10.4038 83.9937 10.4138C83.9704 10.4237 83.9452 10.4288 83.9198 10.4286L82.9451 10.4676C82.9212 10.4709 82.8969 10.4687 82.8741 10.461C82.8513 10.4534 82.8305 10.4405 82.8136 10.4234C82.7966 10.4063 82.7838 10.3855 82.7763 10.3627C82.7688 10.3398 82.7667 10.3155 82.7702 10.2916L82.8081 10.0192C82.8241 9.88369 82.8308 9.74726 82.8281 9.61085C82.8422 9.32545 82.7966 9.04025 82.6942 8.77348C82.5918 8.50671 82.4349 8.26423 82.2335 8.06153C82.0166 7.86408 81.7628 7.71162 81.4866 7.61299C81.2104 7.51436 80.9173 7.47151 80.6245 7.48693C79.9274 7.46574 79.249 7.71333 78.7294 8.17845C78.2109 8.65738 77.894 9.31558 77.843 10.0195L77.0442 16.4914C77.0289 16.6206 77.0226 16.7507 77.0253 16.8808C77.0118 17.1667 77.0566 17.4524 77.1571 17.7204C77.2575 17.9884 77.4115 18.2332 77.6095 18.4398C77.8226 18.6403 78.0743 18.7952 78.3493 18.8952C78.6243 18.9952 78.9168 19.038 79.2089 19.0212C79.9072 19.0395 80.5858 18.7884 81.104 18.32C81.6216 17.8423 81.9441 17.1899 82.0093 16.4886L82.0483 16.215C82.0548 16.1647 82.0801 16.1186 82.1192 16.0862C82.1583 16.0538 82.2082 16.0373 82.2589 16.0402L83.2136 16.0981C83.3305 16.0981 83.3895 16.1507 83.3895 16.254L83.3505 16.4299C83.2669 17.494 82.7743 18.4843 81.976 19.1928C81.1777 19.9013 80.1359 20.2728 79.0694 20.2294C78.1639 20.2763 77.2764 19.9647 76.599 19.3619" fill="white"/>
<path d="M85.7849 19.3225C85.4721 19.0046 85.2284 18.6254 85.0692 18.2087C84.9099 17.7921 84.8385 17.347 84.8595 16.9015C84.8595 16.7718 84.8725 16.564 84.8985 16.2782L85.6355 10.2576C85.7317 9.15407 86.2353 8.12591 87.0482 7.37348C87.8495 6.64363 88.9013 6.25083 89.9849 6.27683C90.4438 6.25366 90.9027 6.32276 91.3345 6.48005C91.7662 6.63734 92.162 6.87961 92.4985 7.19255C92.8139 7.51209 93.0598 7.89345 93.2206 8.31263C93.3815 8.73182 93.4539 9.17976 93.4332 9.62827C93.4332 9.75878 93.4207 9.96617 93.3942 10.2526L92.6569 16.2743C92.5582 17.3734 92.0508 18.3954 91.2349 19.1384C90.4279 19.8653 89.3733 20.2559 88.2875 20.23C87.8309 20.2535 87.3743 20.1854 86.9444 20.0298C86.5146 19.8741 86.1202 19.634 85.7846 19.3236M90.3642 18.2806C90.9026 17.7651 91.2386 17.074 91.3114 16.3322L92.0716 10.2136C92.0861 10.0711 92.0924 9.92779 92.0905 9.78452C92.106 9.47912 92.0606 9.17369 91.9568 8.88602C91.8531 8.59836 91.6931 8.33422 91.4863 8.10899C91.2712 7.89717 91.0145 7.73239 90.7324 7.6251C90.4503 7.51781 90.149 7.47036 89.8475 7.48575C89.4909 7.47727 89.1361 7.53923 88.8034 7.66808C88.4707 7.79692 88.1667 7.99013 87.9088 8.23663C87.3707 8.76221 87.0418 9.46542 86.9835 10.2154L86.2236 16.3329C86.2085 16.4754 86.2022 16.6187 86.2047 16.762C86.19 17.0626 86.2358 17.3631 86.3394 17.6456C86.443 17.9282 86.6023 18.187 86.8079 18.4068C87.0208 18.6146 87.2742 18.7764 87.5523 18.8819C87.8304 18.9875 88.1273 19.0346 88.4245 19.0204C89.1431 19.0389 89.84 18.7726 90.3632 18.2795" fill="white"/>
<path d="M94.2141 19.8783L95.851 6.62847C95.855 6.57538 95.8789 6.52577 95.918 6.48962C95.9571 6.45346 96.0084 6.43345 96.0616 6.43359H97.0163C97.1332 6.43359 97.1912 6.49903 97.1912 6.62847L95.5585 19.8783C95.5548 19.9316 95.531 19.9815 95.4919 20.0178C95.4528 20.0542 95.4013 20.0744 95.3479 20.0743H94.3922C94.272 20.0743 94.2134 20.0088 94.2134 19.8783" fill="white"/>
<path d="M97.9155 19.8783L99.5525 6.62847C99.5564 6.57538 99.5804 6.52577 99.6194 6.48962C99.6585 6.45346 99.7098 6.43345 99.7631 6.43359H100.718C100.847 6.43359 100.919 6.48008 100.928 6.57054L104.748 16.8394C104.765 16.8605 104.789 16.8745 104.815 16.8784C104.835 16.8784 104.845 16.8583 104.845 16.8194L106.092 6.62882C106.105 6.57716 106.132 6.53011 106.17 6.49295C106.187 6.47428 106.209 6.45942 106.232 6.44927C106.256 6.43912 106.281 6.43391 106.307 6.43395H107.29C107.421 6.43395 107.472 6.49939 107.447 6.62882L105.827 19.8787C105.824 19.9319 105.8 19.9818 105.761 20.0182C105.722 20.0546 105.67 20.0747 105.617 20.0746H104.623C104.506 20.0746 104.441 20.0292 104.428 19.9377L100.605 9.62913C100.578 9.60267 100.555 9.59338 100.536 9.59981C100.518 9.60625 100.507 9.62913 100.507 9.66811L99.26 19.878C99.2562 19.9312 99.2324 19.9811 99.1933 20.0175C99.1542 20.0539 99.1028 20.074 99.0494 20.0739H98.0904C97.9735 20.0739 97.9155 20.0088 97.9155 19.8783Z" fill="white"/>
<path d="M9.59537 0.68457C7.30149 0.68457 5.10156 1.59581 3.47955 3.21783C1.85753 4.83985 0.946289 7.03977 0.946289 9.33365L0.946289 38.249H29.8606C32.1545 38.249 34.3544 37.3378 35.9764 35.7158C37.5984 34.0938 38.5097 31.8938 38.5097 29.5999V0.68457H9.59537ZM29.0268 27.3673L28.1289 30.501C28.0863 30.6504 27.9961 30.7818 27.8721 30.8754C27.7481 30.9691 27.597 31.0197 27.4417 31.0198L11.4804 31.0145L14.1761 21.898L11.189 22.8223L11.828 20.6552L14.8161 19.7298L18.6063 6.92297C18.6493 6.77366 18.7397 6.64241 18.8639 6.54906C18.9881 6.45571 19.1393 6.40534 19.2946 6.40557H23.3351C23.4182 6.40553 23.5003 6.42482 23.5747 6.46193C23.6491 6.49904 23.7139 6.55295 23.7639 6.6194C23.8139 6.68584 23.8478 6.76301 23.8629 6.8448C23.8779 6.92659 23.8737 7.01076 23.8507 7.09066L20.6612 17.9155L23.6483 16.9859L23.0115 19.1541L20.0212 20.0838L18.0771 26.6794H28.5101C28.5935 26.6791 28.6757 26.6983 28.7504 26.7354C28.8251 26.7725 28.8901 26.8265 28.9402 26.8931C28.9904 26.9597 29.0243 27.0371 29.0393 27.1191C29.0544 27.2011 29.05 27.2855 29.0268 27.3655" fill="white"/>
</g>
</svg>
