<svg width="383" height="89" viewBox="0 0 383 89" fill="none" xmlns="http://www.w3.org/2000/svg">
<g filter="url(#filter0_d_3_74)">
<path d="M8 4H349.242L376 36.7338L349.242 69H8V4Z" fill="#B83337"/>
<path d="M341.32 7.95932C336.66 8.06353 330.55 7.95211 325.908 7.79917C324.452 7.75173 325.189 7.5397 324.185 7.49741C322.22 7.41497 320.39 7.51896 318.449 7.42075C317.805 7.38716 318.606 7.0513 317.932 7.02378C314.235 6.87535 310.737 6.96089 306.992 6.8895C288.546 6.53726 270.413 6.41118 251.741 6.25815C245.585 6.20798 238.1 5.90318 231.741 6.03648C230.999 6.05234 231.441 6.34714 231.3 6.37144C229.085 6.7434 229.821 6.14826 228.375 6.06919C222.634 5.75698 216.251 5.72983 210.726 5.8436C208.375 5.89287 210.732 6.47842 208.365 6.14976C208.201 6.12755 208.797 5.81449 208.153 5.7811C206.691 5.70601 203.918 5.76196 202.785 5.73716C200.601 5.68777 200.24 5.69092 198.175 5.68736C195.352 5.67975 191.994 5.52414 188.965 5.59507C188.318 5.61114 189.174 5.93206 188.143 5.98667C187.111 6.04119 184.381 6.01398 183.46 5.93833C182.54 5.86264 182.932 5.61041 182.769 5.55259C181.428 5.0646 178.27 5.74046 177.864 5.75718C170.455 6.04197 164.101 5.65696 157.147 5.65806C151.867 5.65971 146.222 5.78682 141.198 5.76939C135.213 5.74738 130.14 5.57348 124.326 5.60337C123.712 5.60616 124.431 5.98348 123.682 5.98765C115.719 6.03156 107.812 5.99042 99.8841 5.73569C99.089 5.70982 100.114 5.37853 99.3193 5.33286C94.4559 5.0606 86.7604 4.40657 83.8719 5.84898C80.5775 5.79265 76.5779 5.73446 73.6307 5.4437C71.7304 5.25657 73.5761 4.89566 71.2417 5.04966C70.7152 5.08397 71.3999 5.40004 70.6103 5.42759C67.2863 5.5433 63.6544 5.44056 60.366 5.60386C59.6971 5.63782 59.8797 5.92102 59.6902 5.97202C58.0974 6.38503 55.4459 5.7023 54.8678 5.65269C50.4662 5.28274 47.2518 5.42832 43.1514 5.41929C42.1997 5.41703 43.3246 5.79744 42.409 5.80894C37.6602 5.86346 32.7408 5.83076 28.091 5.66196C27.0566 5.6235 28.0077 5.29946 27.5136 5.26451C25.3341 5.1143 24.8511 5.72633 22.761 5.59409C22.3203 5.567 22.5685 5.2896 22.4881 5.25913C21.2302 4.78089 20.1372 5.45853 19.8136 5.47349C15.7206 5.67791 13.1044 4.97049 9.15045 5.07066C8.6774 5.08336 9.74406 5.43435 8.4144 5.44859C8.27634 5.4501 8.13828 5.45156 8 5.45297L9.45297 4C9.54243 12.7358 9.44469 21.9495 9.16831 30.5814C9.12514 31.9447 8.86146 30.9715 8.82896 31.0573C8.32109 32.4555 9.00158 33.3603 9.0272 33.8048C9.21167 37.3117 8.64101 40.5877 9.45152 42.9705C9.28677 51.6694 9.37466 60.3451 9.32986 69L8 67.6701C14.1221 67.7018 20.2339 67.7999 26.3363 68.1007C26.5236 68.1091 26.188 68.4443 26.5616 68.4596C31.0605 68.6478 30.1965 68.1269 33.1733 67.4899C33.9232 67.3299 36.2044 68.099 36.4062 68.1554C37.1416 68.3632 36.3789 68.8618 36.6251 68.902C38.6627 69.2179 38.3307 67.569 41.0795 67.5685C41.1655 67.5713 40.8044 67.8748 41.0351 67.9049C41.7518 67.9997 42.4625 67.8791 43.1639 67.9835C44.7691 68.2253 45.3409 69.0265 47.7927 68.5602C48.103 68.4997 47.6292 67.5644 50.0834 67.6085C51.0617 67.6269 55.3925 67.6109 56.6063 67.6715C57.8186 67.7321 56.9862 68.0335 57.0726 68.0465C60.339 68.4451 59.1005 68.6103 60.737 69.2003C62.3733 69.7882 61.9196 68.3861 62.5866 68.2296C63.2549 68.0736 65.6497 68.4024 66.2383 68.5167C66.8265 68.6311 66.0929 68.8226 66.6159 68.8873C70.084 69.3102 68.1381 68.1914 69.2809 67.9689C71.975 67.442 74.0734 68.4818 76.5398 68.5836C77.2072 68.6112 76.6626 68.3743 77.2568 68.3522C79.6104 68.2676 81.0259 68.5921 83.7036 68.2946C84.1416 68.2461 86.3063 67.621 87.7074 68.0797C87.9059 68.1459 87.342 68.405 88.3451 68.463C89.8435 68.5501 92.5434 68.6068 94.1542 68.5202C95.3434 68.4561 93.9803 68.0291 95.4772 68.1618C96.1423 68.221 94.9095 68.4708 96.1593 68.5612C97.4024 68.6516 100.581 68.6406 101.791 68.632C102.998 68.6232 102.337 68.2993 102.435 68.2775C103.025 68.1525 105.342 67.9963 105.547 67.9967C115.875 67.9572 125.399 68.5031 135.455 68.3224C136.244 68.3087 135.719 67.9672 135.839 67.9616C138.541 67.8185 136.411 68.7265 138.298 69.0304C138.025 68.3374 139.139 68.4629 141.042 68.3869C141.959 68.3497 141.46 68.0813 141.544 68.0539C142.903 67.6463 143.85 68.1727 144.094 68.2804C144.995 68.6766 145.975 68.2085 146.588 68.4733C147.2 68.7361 145.791 69.1257 147.616 69.1207C148.128 68.8727 146.773 68.2244 148.158 68.1193C153.387 67.7218 163.146 68.2305 167.35 68.2833C171.545 68.3361 172.9 68.2904 175.345 68.38C179.76 68.5421 178.142 68.0611 180.884 67.841C183.634 67.6208 182.297 68.8043 182.692 69.0587C183.08 69.313 183.504 69.0513 183.987 69.1911C184.468 69.3308 183.426 69.5038 184.558 69.5563C185.69 69.6087 188.785 69.1563 189.187 68.8903C190.035 68.3267 188.64 67.7352 191.636 67.943C191.808 67.9553 191.249 68.2665 191.909 68.298C197.149 68.5376 202.592 68.5524 207.826 68.7643C208.545 68.7939 207.902 69.1401 208.321 69.1613C212.683 69.3827 211.124 68.799 213.514 68.1505C212.977 69.0135 214.3 69.5414 217.61 69.5465C219.6 69.5499 219.258 69.173 220.545 68.9074C220.931 68.8273 222.339 69.0861 222.594 68.9088C223.436 68.3294 222.109 67.6808 225.523 67.9391C225.672 67.9514 225.196 68.2685 225.713 68.2877C229.058 68.4135 229.458 67.8074 233.073 67.734C235.907 67.6764 240.948 68.046 244.174 68.1061C244.107 69.0763 247.155 68.8541 248.391 68.1852C250.485 68.2126 252.747 68.1748 254.771 68.2672C255.468 68.2988 255.01 68.5797 255.098 68.61C256.445 69.0861 257.355 68.4353 257.807 68.4098C262.706 68.1618 266.698 68.655 271.373 68.173C271.539 68.1556 271.808 67.4817 273.058 67.9738C273.139 68.0077 271.595 68.3143 273.794 68.338C275.994 68.3618 280.141 68.7231 283.194 68.4108C283.933 68.3356 285.803 67.7885 287.303 68.216C287.503 68.274 287.284 68.4673 287.573 68.5748C288.505 68.9176 289.015 68.2364 290.111 68.8151C291.207 69.3937 293.487 69.8271 296.567 69.4279C296.665 69.4163 297.394 68.8764 298.363 68.8849C299.909 68.899 302.104 69.0115 303.718 69.008C304.491 69.0061 303.996 68.6708 304.131 68.6647C309.328 68.4768 313.027 68.7757 318.595 68.9054C319.615 68.9299 322.548 68.4727 324.524 68.8341C326.694 69.2298 324.464 70.8757 329.451 70.4835C331.463 70.3267 334.009 68.2386 337.624 69.3205C341.601 69.1684 345.408 69.2808 349.242 69.3366L349.397 69.3381L349.501 69.2149C351.4 66.9912 353.284 64.7347 355.099 62.2875C355.287 62.0333 355.477 60.8918 355.957 60.3248C356.672 59.4837 357.268 59.1913 357.785 58.5964C359.955 56.1076 361.704 53.6334 363.764 51.2065C364.546 50.2848 364.493 50.7898 365.425 49.6904C366.356 48.5915 366.684 47.6155 368.068 46.2273C369.114 45.1797 370.638 44.529 371.955 43.0792C371.427 42.5445 372.297 41.5198 373.67 39.5552C373.934 39.1773 373.419 39.3902 373.533 39.2029C373.994 38.4369 374.683 37.9449 375.106 37.2056C375.209 37.026 375.019 36.8556 375.092 36.6997C375.167 36.5377 375.262 36.3742 375.37 36.2116L375.367 37.2516C374.364 36.2553 373.546 34.5378 373.391 34.209C372.711 32.7769 371.998 32.4302 371.367 31.4215C370.737 30.4143 371.997 31.6605 371.196 30.537C369.535 28.2086 367.182 25.3956 365.357 23.144C364.627 22.2466 364.863 23.0732 364.752 22.9498C363.172 21.1529 361.922 19.0511 360.557 18.4541C360.867 16.0593 359.512 17.4454 357.621 14.5764C357.473 14.3499 357.898 13.5593 358.647 14.2825C359.396 15.0058 360.187 16.3837 361.242 17.3739C361.491 17.6087 363.325 18.6227 363.529 18.7985C365.131 20.1754 364.357 21.1887 364.373 21.317C364.594 22.7483 366.747 24.0587 367.188 24.5068C369.207 26.5566 370.612 28.5511 372.275 30.2861C373.361 31.4218 374.087 31.0262 374.847 31.9945C375.993 33.4553 376.624 34.6285 377.271 35.6952L378.126 36.7618L377.263 37.7814C376.153 38.7917 375.198 39.7945 374.268 41.7575C373.902 42.5275 375.11 42.4623 372.682 44.2959C372.529 44.411 370.634 45.6955 370.134 46.9312C370.072 47.0866 370.274 47.2479 370.156 47.4237C369.365 48.5989 368.606 49.1911 367.701 50.4365C366.797 51.6818 365.731 53.1975 364.544 54.4913C363.829 55.2712 362.592 56.0072 362.178 56.3213C361.005 57.2038 360.456 58.7388 359.574 59.1571C358.686 59.5798 359.316 57.8355 357.616 59.4662C358.078 59.9621 358.482 60.556 358.914 61.095C356.277 64.2451 353.578 67.2751 350.932 70.4017L350.252 71.2055L349.242 71.1958C348.224 71.1856 347.204 71.1817 346.18 71.1876C345.542 71.192 346.195 71.5535 345.511 71.5675C342.626 71.6249 340.105 71.3672 337.113 71.4699C334.797 71.5507 332.257 71.9335 329.835 72.0299C328.356 71.2604 324.762 71.5216 322.151 71.4513C321.236 71.427 321.298 71.2215 320.647 71.1544C318.194 70.9064 319.343 71.5865 318.671 71.6935C315.785 72.1502 315.538 70.611 312.135 70.6491C311.955 70.6506 309.751 71.471 309.448 71.5221C307.52 71.8553 309.129 71.2365 307.922 71.1759C305.718 71.0651 304.187 70.8692 301.602 71.1095C300.848 71.1807 299.04 71.6921 297.576 71.2965C297.383 71.2447 297.49 70.9735 297.335 70.9577C294.529 70.6929 294.455 71.545 292.852 71.8336C291.248 72.1222 288.771 71.5339 288.267 71.3644C286.949 70.9258 289.278 71.177 289.349 71.1339C290.188 70.6217 288.382 70.7099 287.002 70.6666C286.802 69.8311 284.872 69.8813 285.571 70.6251C285.65 70.7064 286.724 70.6285 287.002 70.6666C285.79 71.4864 283.669 71.5914 281.326 70.8253C280.229 70.4663 281.266 70.0477 277.934 70.2008C276.422 70.2699 277.007 70.8452 275.672 71.0021C272.624 71.3599 268.663 70.8233 265.52 70.9078C264.379 70.9385 265.49 71.2535 264.711 71.2853C262.642 71.3707 260.818 71.1345 258.74 71.2555C258.552 71.2669 259.012 71.5965 258.366 71.6007C253.468 71.639 249.203 71.4279 244.089 71.422C241.618 71.4193 237.2 71.6011 234.641 71.5646C230.205 71.5032 224.747 71.0238 220.957 71.1403C218.486 71.2148 219.028 71.5445 217.969 71.7692C215.925 72.2046 212.307 71.4246 211.82 71.3038C211.805 71.2998 213.932 71.2221 212.797 71.0529C212.137 70.7002 211.844 71.3023 211.82 71.3038C211.5 71.2258 207.251 71.151 206.408 71.214C205.949 71.2484 206.206 71.5608 205.967 71.5729C200.285 71.8524 194.594 71.9318 188.831 71.7858C188.73 71.7795 188.883 71.43 188.644 71.4196C185.308 71.2642 183.172 71.6917 180.421 71.9454C177.67 72.1991 175.488 72.1142 173.86 71.5143C171.784 71.5898 168.806 71.3246 167.093 71.1637C165.379 71.0028 165.14 71.683 164.989 71.6964C160.286 72.1268 157.568 71.7375 152.689 71.6769C150.369 71.6469 145.768 71.7456 143.257 71.82C141.272 71.8799 140.076 71.7205 138.247 71.8224C138 71.836 138.25 72.1389 138.174 72.1505C136.133 72.5129 137.114 71.7725 136.693 71.6403C135.165 71.1594 134.221 70.9033 131.607 71.1295C131.004 71.1813 129.248 72.2474 128.149 72.3097C126.72 72.3888 127.259 72.0067 125.763 72.0993C125.635 72.1068 125.662 72.3426 124.738 72.3322C120.452 72.287 115.779 72.1498 111.324 72.1735C110.716 72.1758 111.496 72.5497 110.617 72.5592C106.492 72.6035 101.97 72.5897 97.9518 72.4147C96.9626 72.3704 97.5827 72.1086 97.368 72.0309C96.0497 71.5606 94.1802 72.2439 93.8718 72.257C86.5138 72.5854 80.8825 71.9669 73.3831 72.2614C72.9748 72.2786 69.8325 73.0113 68.4306 72.3829C68.3346 72.3411 66.9476 71.6983 65.7212 72.1378C65.645 72.1653 66.5093 72.4963 65.001 72.4625C63.4927 72.4289 61.0653 72.6499 58.9921 72.2863C58.3357 72.1717 56.7843 71.5305 54.8264 72.0416C54.6988 72.0773 51.6762 73.2331 50.5973 72.4357C50.4224 72.3044 50.6055 71.4605 48.2686 71.8932C47.8222 71.9771 48.6327 72.1653 47.4564 72.2828C45.6543 72.464 43.2664 72.238 41.0509 72.6139C40.6646 72.6804 39.0199 73.2532 37.7006 72.8185C37.494 72.7504 37.8866 72.4687 37.1899 72.4371C33.8768 72.2859 30.4077 72.4744 27.0438 72.2794C25.8524 72.2109 26.4615 71.7555 25.2196 71.6334C23.9773 71.5114 21.4748 71.3941 20.1751 71.6022C18.8751 71.8104 20.2952 72.5363 18.3477 72.5944C14.8885 72.6974 11.4426 72.6873 8 72.635L4.33033 72.5997L4.36496 69C4.44063 64.0165 4.60463 59.0398 4.64147 54.0397C4.65078 52.7858 4.39103 53.8253 4.3861 51.9775C4.36678 45.1649 4.12324 33.4028 4.67516 27.4913C5.11722 22.7547 5.45377 28.7154 5.63366 25.0959C5.71947 23.3494 4.87556 21.4598 4.84899 21.0382C4.57911 16.9193 4.95295 14.0568 4.83825 10.3496C4.81445 9.58408 4.4724 10.3349 4.45593 9.68337C4.40585 7.80445 4.50687 5.84462 4.52275 4L4.55651 0.489623L8 0.522746C8.34026 0.525674 8.67651 0.525705 9.00766 0.521356C9.96169 0.508041 9.78592 0.246799 10.6638 0.266962C12.7643 0.312198 14.6218 0.422012 16.6695 0.666863C16.8561 0.689175 15.5977 1.01415 17.1518 1.02624C19.667 1.04488 22.7891 1.28642 25.6829 1.03698C26.5416 0.961942 26.5753 0.36488 28.4209 0.777215C28.808 0.863335 28.3142 1.58028 30.4641 0.960808C30.8256 0.857866 34.4372 0.0223178 36.2097 0.560907C36.6773 0.702657 37.8706 1.28933 38.9032 1.19714C39.0432 1.18242 38.4823 0.861719 39.3379 0.830437C42.3532 0.725771 45.5136 0.759987 48.6114 0.659539C49.4388 0.632082 48.2065 0.300218 49.4395 0.269892C52.83 0.18601 57.0631 0.270509 60.3787 0.374384C61.601 0.413311 60.7561 0.688217 60.845 0.718133C62.2754 1.20473 63.121 0.547935 63.5957 0.509637C66.5481 0.280316 68.7963 0.58884 71.5177 0.507196C72.2687 0.485497 71.7362 0.172329 71.8857 0.144404C73.4362 -0.128438 72.2812 0.433972 73.2627 0.495966C76.012 0.671504 79.077 0.646335 81.8573 0.606317C82.8785 0.591157 81.7307 0.228031 82.6472 0.218623C88.0719 0.15605 93.7112 0.190797 99.0053 0.390985C100.002 0.429338 99.3749 0.708955 99.5827 0.77282C101.015 1.21964 103.113 0.610174 103.596 0.552118C105.792 0.287035 106.644 0.534306 108.583 0.488153C118.055 0.25836 129.751 0.422132 138.691 0.523309C150.343 0.653525 159.383 0.91953 170.494 0.850457C171.2 0.846417 170.488 0.474439 171.097 0.46618C178.956 0.376508 186.693 0.521862 194.568 0.414423C195.214 0.406266 194.282 0.053628 195.32 0.0286819C197.447 -0.0249589 200.142 -0.00579175 202.293 0.106807C203.342 0.161059 201.935 0.463654 202.991 0.512079C205.45 0.625527 208.086 0.650643 210.612 0.59411C211.686 0.569284 210.065 0.208625 211.462 0.204463C220.979 0.168682 230.325 0.106568 239.942 0.573602C240.602 0.605678 241.18 1.33868 242.582 1.19811C242.688 0.994684 242.682 0.75539 242.728 0.537958C256.582 0.42083 270.295 0.674938 284.188 0.714227C284.773 0.7158 283.761 0.327419 284.895 0.328486C291.459 0.334227 297.832 0.226635 304.546 0.612664C305.212 0.650417 304.871 1.33367 306.834 1.23034C307.18 1.21148 310.137 1.12036 310.901 0.972038C311.005 0.949666 310.465 0.630748 311.418 0.621453C316.955 0.573025 322.757 0.645833 328.284 0.840691C329.176 0.87275 328.226 1.21237 328.861 1.23815C333.368 1.41844 338.27 1.16026 342.576 1.46862C345.459 1.67624 344.392 2.26331 345.924 2.84117C346.14 2.9227 347.925 2.93562 348.018 3.27184C348.254 4.11728 347.39 5.04303 347.745 5.94419C347.82 6.13829 350.21 5.92923 348.795 6.39829C348.696 6.42968 346.963 6.58536 346.536 6.74448C346.239 6.85449 346.774 7.19642 346.168 7.33725C345.562 7.47795 344.895 7.19132 343.89 7.35678C342.885 7.52429 343.327 7.91327 341.32 7.95932ZM159.377 70.4445C157.79 70.1178 157.556 71.3142 159.272 71.028C159.355 71.0127 159.459 70.4605 159.377 70.4445ZM351.557 68.1749C350.825 68.7082 350.347 69.3002 350.134 69.74L349.775 70.1644L349.242 70.1593C348.617 70.3132 348.489 70.6522 349.242 70.887L350.11 70.8953L350.694 70.2045C350.718 70.1894 350.741 70.1734 350.766 70.1565C352.013 69.2901 352.084 67.7906 351.557 68.1749ZM364.992 51.3715C363.124 52.972 364.186 54.3488 365.58 52.1311C365.661 52.0025 365.101 51.2778 364.992 51.3715ZM338.82 3.00572C338.842 3.02161 340.125 3.03709 340.156 3.02135C340.839 2.64138 338.273 2.61068 338.82 3.00572ZM374.418 34.0864C374.719 34.8176 376.304 36.3371 375.929 35.4284C375.628 34.697 374.043 33.1759 374.418 34.0864ZM76.6064 69.1676C76.5814 69.1498 75.6615 69.1337 75.68 69.2345C75.7425 69.5591 77.0227 69.4675 76.6064 69.1676ZM351.442 6.01029C354.785 10.2007 355.757 13.6037 352.185 8.98442C351.538 8.14792 353.973 10.4654 353.219 9.34379C351.84 7.29215 350.124 6.58341 348.899 4.34C348.678 3.9333 351.254 5.7693 351.45 6.01643C351.447 6.01438 351.445 6.01234 351.442 6.01029ZM158.463 69.0075C158.431 68.9916 157.158 68.9766 157.127 68.9923C156.438 69.3721 159.003 69.4026 158.463 69.0075ZM22.9289 68.4279C22.8586 68.3942 19.9035 68.3626 19.8071 68.3937C18.2654 69.0148 24.2401 69.0804 22.9289 68.4279ZM244.225 68.132C245.615 67.7499 247.277 67.7049 248.385 68.1847C247.004 68.1592 245.614 68.1555 244.225 68.132Z" fill="#B83337"/>
</g>
<defs>
<filter id="filter0_d_3_74" x="0.316071" y="0" width="381.809" height="88.98" filterUnits="userSpaceOnUse" color-interpolation-filters="sRGB">
<feFlood flood-opacity="0" result="BackgroundImageFix"/>
<feColorMatrix in="SourceAlpha" type="matrix" values="0 0 0 0 0 0 0 0 0 0 0 0 0 0 0 0 0 0 127 0" result="hardAlpha"/>
<feOffset dy="12"/>
<feGaussianBlur stdDeviation="2"/>
<feComposite in2="hardAlpha" operator="out"/>
<feColorMatrix type="matrix" values="0 0 0 0 0 0 0 0 0 0 0 0 0 0 0 0 0 0 0.25 0"/>
<feBlend mode="normal" in2="BackgroundImageFix" result="effect1_dropShadow_3_74"/>
<feBlend mode="normal" in="SourceGraphic" in2="effect1_dropShadow_3_74" result="shape"/>
</filter>
</defs>
</svg>
