<svg width="375" height="73" viewBox="0 0 375 73" fill="none" xmlns="http://www.w3.org/2000/svg">
<path d="M4 4H345.242L372 36.7338L345.242 69H4V4Z" fill="#1F4167"/>
<path d="M337.32 7.95932C332.66 8.06353 326.55 7.95211 321.908 7.79917C320.452 7.75173 321.189 7.5397 320.185 7.49741C318.22 7.41497 316.39 7.51896 314.449 7.42075C313.805 7.38716 314.606 7.0513 313.932 7.02378C310.235 6.87535 306.737 6.96089 302.992 6.8895C284.546 6.53726 266.413 6.41118 247.741 6.25815C241.585 6.20798 234.1 5.90318 227.741 6.03648C226.999 6.05234 227.441 6.34714 227.3 6.37144C225.085 6.7434 225.821 6.14826 224.375 6.06919C218.634 5.75698 212.251 5.72983 206.726 5.8436C204.375 5.89287 206.732 6.47842 204.365 6.14976C204.201 6.12755 204.797 5.81449 204.153 5.7811C202.691 5.70601 199.918 5.76196 198.785 5.73716C196.601 5.68777 196.24 5.69092 194.175 5.68736C191.352 5.67975 187.994 5.52414 184.965 5.59507C184.318 5.61114 185.174 5.93206 184.143 5.98667C183.111 6.04119 180.381 6.01398 179.46 5.93833C178.54 5.86264 178.932 5.61041 178.769 5.55259C177.428 5.0646 174.27 5.74046 173.864 5.75718C166.455 6.04197 160.101 5.65696 153.147 5.65806C147.867 5.65971 142.222 5.78682 137.198 5.76939C131.213 5.74738 126.14 5.57348 120.326 5.60337C119.712 5.60616 120.431 5.98348 119.682 5.98765C111.719 6.03156 103.812 5.99042 95.8841 5.73569C95.089 5.70982 96.1136 5.37853 95.3193 5.33286C90.4559 5.0606 82.7604 4.40657 79.8719 5.84898C76.5775 5.79265 72.5779 5.73446 69.6307 5.4437C67.7304 5.25657 69.5761 4.89566 67.2417 5.04966C66.7152 5.08397 67.3999 5.40004 66.6103 5.42759C63.2863 5.5433 59.6544 5.44056 56.366 5.60386C55.6971 5.63782 55.8797 5.92102 55.6902 5.97202C54.0974 6.38503 51.4459 5.7023 50.8678 5.65269C46.4662 5.28274 43.2518 5.42832 39.1514 5.41929C38.1997 5.41703 39.3246 5.79744 38.409 5.80894C33.6602 5.86346 28.7408 5.83076 24.091 5.66196C23.0566 5.6235 24.0077 5.29946 23.5136 5.26451C21.3341 5.1143 20.8511 5.72633 18.761 5.59409C18.3203 5.567 18.5685 5.2896 18.4881 5.25913C17.2302 4.78089 16.1372 5.45853 15.8136 5.47349C11.7206 5.67791 9.10445 4.97049 5.15045 5.07066C4.6774 5.08336 5.74406 5.43435 4.4144 5.44859C4.27634 5.4501 4.13828 5.45156 4 5.45297L5.45297 4C5.54243 12.7358 5.44469 21.9495 5.16831 30.5814C5.12514 31.9447 4.86146 30.9715 4.82896 31.0573C4.32109 32.4555 5.00158 33.3603 5.0272 33.8048C5.21167 37.3117 4.64101 40.5877 5.45152 42.9705C5.28677 51.6694 5.37466 60.3451 5.32986 69L4 67.6701C10.1221 67.7018 16.2339 67.7999 22.3363 68.1007C22.5236 68.1091 22.188 68.4443 22.5616 68.4596C27.0605 68.6478 26.1965 68.1269 29.1733 67.4899C29.9232 67.3299 32.2044 68.099 32.4062 68.1554C33.1416 68.3632 32.3789 68.8618 32.6251 68.902C34.6627 69.2179 34.3307 67.569 37.0795 67.5685C37.1655 67.5713 36.8044 67.8748 37.0351 67.9049C37.7518 67.9997 38.4625 67.8791 39.1639 67.9835C40.7691 68.2253 41.3409 69.0265 43.7927 68.5602C44.103 68.4997 43.6292 67.5644 46.0834 67.6085C47.0617 67.6269 51.3925 67.6109 52.6063 67.6715C53.8186 67.7321 52.9862 68.0335 53.0726 68.0465C56.339 68.4451 55.1005 68.6103 56.737 69.2003C58.3733 69.7882 57.9196 68.3861 58.5866 68.2296C59.2549 68.0736 61.6497 68.4024 62.2383 68.5167C62.8265 68.6311 62.0929 68.8226 62.6159 68.8873C66.084 69.3102 64.1381 68.1914 65.2809 67.9689C67.975 67.442 70.0734 68.4818 72.5398 68.5836C73.2072 68.6112 72.6626 68.3743 73.2568 68.3522C75.6104 68.2676 77.0259 68.5921 79.7036 68.2946C80.1416 68.2461 82.3063 67.621 83.7074 68.0797C83.9059 68.1459 83.342 68.405 84.3451 68.463C85.8435 68.5501 88.5434 68.6068 90.1542 68.5202C91.3434 68.4561 89.9803 68.0291 91.4772 68.1618C92.1423 68.221 90.9095 68.4708 92.1593 68.5612C93.4024 68.6516 96.5811 68.6406 97.7906 68.632C98.998 68.6232 98.3371 68.2993 98.4347 68.2775C99.0252 68.1525 101.342 67.9963 101.547 67.9967C111.875 67.9572 121.399 68.5031 131.455 68.3224C132.244 68.3087 131.719 67.9672 131.839 67.9616C134.541 67.8185 132.411 68.7265 134.298 69.0304C134.025 68.3374 135.139 68.4629 137.042 68.3869C137.959 68.3497 137.46 68.0813 137.544 68.0539C138.903 67.6463 139.85 68.1727 140.094 68.2804C140.995 68.6766 141.975 68.2085 142.588 68.4733C143.2 68.7361 141.791 69.1257 143.616 69.1207C144.128 68.8727 142.773 68.2244 144.158 68.1193C149.387 67.7218 159.146 68.2305 163.35 68.2833C167.545 68.3361 168.9 68.2904 171.345 68.38C175.76 68.5421 174.142 68.0611 176.884 67.841C179.634 67.6208 178.297 68.8043 178.692 69.0587C179.08 69.313 179.504 69.0513 179.987 69.1911C180.468 69.3308 179.426 69.5038 180.558 69.5563C181.69 69.6087 184.785 69.1563 185.187 68.8903C186.035 68.3267 184.64 67.7352 187.636 67.943C187.808 67.9553 187.249 68.2665 187.909 68.298C193.149 68.5376 198.592 68.5524 203.826 68.7643C204.545 68.7939 203.902 69.1401 204.321 69.1613C208.683 69.3827 207.124 68.799 209.514 68.1505C208.977 69.0135 210.3 69.5414 213.61 69.5465C215.6 69.5499 215.258 69.173 216.545 68.9074C216.931 68.8273 218.339 69.0861 218.594 68.9088C219.436 68.3294 218.109 67.6808 221.523 67.9391C221.672 67.9514 221.196 68.2685 221.713 68.2877C225.058 68.4135 225.458 67.8074 229.073 67.734C231.907 67.6764 236.948 68.046 240.174 68.1061C240.107 69.0763 243.155 68.8541 244.391 68.1852C246.485 68.2126 248.747 68.1748 250.771 68.2672C251.468 68.2988 251.01 68.5797 251.098 68.61C252.445 69.0861 253.355 68.4353 253.807 68.4098C258.706 68.1618 262.698 68.655 267.373 68.173C267.539 68.1556 267.808 67.4817 269.058 67.9738C269.139 68.0077 267.595 68.3143 269.794 68.338C271.994 68.3618 276.141 68.7231 279.194 68.4108C279.933 68.3356 281.803 67.7885 283.303 68.216C283.503 68.274 283.284 68.4673 283.573 68.5748C284.505 68.9176 285.015 68.2364 286.111 68.8151C287.207 69.3937 289.487 69.8271 292.567 69.4279C292.665 69.4163 293.394 68.8764 294.363 68.8849C295.909 68.899 298.104 69.0115 299.718 69.008C300.491 69.0061 299.996 68.6708 300.131 68.6647C305.328 68.4768 309.027 68.7757 314.595 68.9054C315.615 68.9299 318.548 68.4727 320.524 68.8341C322.694 69.2298 320.464 70.8757 325.451 70.4835C327.463 70.3267 330.009 68.2386 333.624 69.3205C337.601 69.1684 341.408 69.2808 345.242 69.3366L345.397 69.3381L345.501 69.2149C347.4 66.9912 349.284 64.7347 351.099 62.2875C351.287 62.0333 351.477 60.8918 351.957 60.3248C352.672 59.4837 353.268 59.1913 353.785 58.5964C355.955 56.1076 357.704 53.6334 359.764 51.2065C360.546 50.2848 360.493 50.7898 361.425 49.6904C362.356 48.5915 362.684 47.6155 364.068 46.2273C365.114 45.1797 366.638 44.529 367.955 43.0792C367.427 42.5445 368.297 41.5198 369.67 39.5552C369.934 39.1773 369.419 39.3902 369.533 39.2029C369.994 38.4369 370.683 37.9449 371.106 37.2056C371.209 37.026 371.019 36.8556 371.092 36.6997C371.167 36.5377 371.262 36.3742 371.37 36.2116L371.367 37.2516C370.364 36.2553 369.546 34.5378 369.391 34.209C368.711 32.7769 367.998 32.4302 367.367 31.4215C366.737 30.4143 367.997 31.6605 367.196 30.537C365.535 28.2086 363.182 25.3956 361.357 23.144C360.627 22.2466 360.863 23.0732 360.752 22.9498C359.172 21.1529 357.922 19.0511 356.557 18.4541C356.867 16.0593 355.512 17.4454 353.621 14.5764C353.473 14.3499 353.898 13.5593 354.647 14.2825C355.396 15.0058 356.187 16.3837 357.242 17.3739C357.491 17.6087 359.325 18.6227 359.529 18.7985C361.131 20.1754 360.357 21.1887 360.373 21.317C360.594 22.7483 362.747 24.0587 363.188 24.5068C365.207 26.5566 366.612 28.5511 368.275 30.2861C369.361 31.4218 370.087 31.0262 370.847 31.9945C371.993 33.4553 372.624 34.6285 373.271 35.6952L374.126 36.7618L373.263 37.7814C372.153 38.7917 371.198 39.7945 370.268 41.7575C369.902 42.5275 371.11 42.4623 368.682 44.2959C368.529 44.411 366.634 45.6955 366.134 46.9312C366.072 47.0866 366.274 47.2479 366.156 47.4237C365.365 48.5989 364.606 49.1911 363.701 50.4365C362.797 51.6818 361.731 53.1975 360.544 54.4913C359.829 55.2712 358.592 56.0072 358.178 56.3213C357.005 57.2038 356.456 58.7388 355.574 59.1571C354.686 59.5798 355.316 57.8355 353.616 59.4662C354.078 59.9621 354.482 60.556 354.914 61.095C352.277 64.2451 349.578 67.2751 346.932 70.4017L346.252 71.2055L345.242 71.1958C344.224 71.1856 343.204 71.1817 342.18 71.1876C341.542 71.192 342.195 71.5535 341.511 71.5675C338.626 71.6249 336.105 71.3672 333.113 71.4699C330.797 71.5507 328.257 71.9335 325.835 72.0299C324.356 71.2604 320.762 71.5216 318.151 71.4513C317.236 71.427 317.298 71.2215 316.647 71.1544C314.194 70.9064 315.343 71.5865 314.671 71.6935C311.785 72.1502 311.538 70.611 308.135 70.6491C307.955 70.6506 305.751 71.471 305.448 71.5221C303.52 71.8553 305.129 71.2365 303.922 71.1759C301.718 71.0651 300.187 70.8692 297.602 71.1095C296.848 71.1807 295.04 71.6921 293.576 71.2965C293.383 71.2447 293.49 70.9735 293.335 70.9577C290.529 70.6929 290.455 71.545 288.852 71.8336C287.248 72.1222 284.771 71.5339 284.267 71.3644C282.949 70.9258 285.278 71.177 285.349 71.1339C286.188 70.6217 284.382 70.7099 283.002 70.6666C282.802 69.8311 280.872 69.8813 281.571 70.6251C281.65 70.7064 282.724 70.6285 283.002 70.6666C281.79 71.4864 279.669 71.5914 277.326 70.8253C276.229 70.4663 277.266 70.0477 273.934 70.2008C272.422 70.2699 273.007 70.8452 271.672 71.0021C268.624 71.3599 264.663 70.8233 261.52 70.9078C260.379 70.9385 261.49 71.2535 260.711 71.2853C258.642 71.3707 256.818 71.1345 254.74 71.2555C254.552 71.2669 255.012 71.5965 254.366 71.6007C249.468 71.639 245.203 71.4279 240.089 71.422C237.618 71.4193 233.2 71.6011 230.641 71.5646C226.205 71.5032 220.747 71.0238 216.957 71.1403C214.486 71.2148 215.028 71.5445 213.969 71.7692C211.925 72.2046 208.307 71.4246 207.82 71.3038C207.805 71.2998 209.932 71.2221 208.797 71.0529C208.137 70.7002 207.844 71.3023 207.82 71.3038C207.5 71.2258 203.251 71.151 202.408 71.214C201.949 71.2484 202.206 71.5608 201.967 71.5729C196.285 71.8524 190.594 71.9318 184.831 71.7858C184.73 71.7795 184.883 71.43 184.644 71.4196C181.308 71.2642 179.172 71.6917 176.421 71.9454C173.67 72.1991 171.488 72.1142 169.86 71.5143C167.784 71.5898 164.806 71.3246 163.093 71.1637C161.379 71.0028 161.14 71.683 160.989 71.6964C156.286 72.1268 153.568 71.7375 148.689 71.6769C146.369 71.6469 141.768 71.7456 139.257 71.82C137.272 71.8799 136.076 71.7205 134.247 71.8224C134 71.836 134.25 72.1389 134.174 72.1505C132.133 72.5129 133.114 71.7725 132.693 71.6403C131.165 71.1594 130.221 70.9033 127.607 71.1295C127.004 71.1813 125.248 72.2474 124.149 72.3097C122.72 72.3888 123.259 72.0067 121.763 72.0993C121.635 72.1068 121.662 72.3426 120.738 72.3322C116.452 72.287 111.779 72.1498 107.324 72.1735C106.716 72.1758 107.496 72.5497 106.617 72.5592C102.492 72.6035 97.9705 72.5897 93.9518 72.4147C92.9626 72.3704 93.5827 72.1086 93.368 72.0309C92.0497 71.5606 90.1802 72.2439 89.8718 72.257C82.5138 72.5854 76.8825 71.9669 69.3831 72.2614C68.9748 72.2786 65.8325 73.0113 64.4306 72.3829C64.3346 72.3411 62.9476 71.6983 61.7212 72.1378C61.645 72.1653 62.5093 72.4963 61.001 72.4625C59.4927 72.4289 57.0653 72.6499 54.9921 72.2863C54.3357 72.1717 52.7843 71.5305 50.8264 72.0416C50.6988 72.0773 47.6762 73.2331 46.5973 72.4357C46.4224 72.3044 46.6055 71.4605 44.2686 71.8932C43.8222 71.9771 44.6327 72.1653 43.4564 72.2828C41.6543 72.464 39.2664 72.238 37.0509 72.6139C36.6646 72.6804 35.0199 73.2532 33.7006 72.8185C33.494 72.7504 33.8866 72.4687 33.1899 72.4371C29.8768 72.2859 26.4077 72.4744 23.0438 72.2794C21.8524 72.2109 22.4615 71.7555 21.2196 71.6334C19.9773 71.5114 17.4748 71.3941 16.1751 71.6022C14.8751 71.8104 16.2952 72.5363 14.3477 72.5944C10.8885 72.6974 7.44263 72.6873 4 72.635L0.330334 72.5997L0.36496 69C0.440631 64.0165 0.604633 59.0398 0.641473 54.0397C0.650776 52.7858 0.391034 53.8253 0.386103 51.9775C0.366779 45.1649 0.123243 33.4028 0.675164 27.4913C1.11722 22.7547 1.45377 28.7154 1.63366 25.0959C1.71947 23.3494 0.87556 21.4598 0.848992 21.0382C0.579111 16.9193 0.952945 14.0568 0.83825 10.3496C0.814449 9.58408 0.472404 10.3349 0.455927 9.68337C0.405846 7.80445 0.506874 5.84462 0.522746 4L0.556513 0.489623L4 0.522746C4.34026 0.525674 4.67651 0.525705 5.00766 0.521356C5.96169 0.508041 5.78592 0.246799 6.6638 0.266962C8.76428 0.312198 10.6218 0.422012 12.6695 0.666863C12.8561 0.689175 11.5977 1.01415 13.1518 1.02624C15.667 1.04488 18.7891 1.28642 21.6829 1.03698C22.5416 0.961942 22.5753 0.36488 24.4209 0.777215C24.808 0.863335 24.3142 1.58028 26.4641 0.960808C26.8256 0.857866 30.4372 0.0223178 32.2097 0.560907C32.6773 0.702657 33.8706 1.28933 34.9032 1.19714C35.0432 1.18242 34.4823 0.861719 35.3379 0.830437C38.3532 0.725771 41.5136 0.759987 44.6114 0.659539C45.4388 0.632082 44.2065 0.300218 45.4395 0.269892C48.83 0.18601 53.0631 0.270509 56.3787 0.374384C57.601 0.413311 56.7561 0.688217 56.845 0.718133C58.2754 1.20473 59.121 0.547935 59.5957 0.509637C62.5481 0.280316 64.7963 0.58884 67.5177 0.507196C68.2687 0.485497 67.7362 0.172329 67.8857 0.144404C69.4362 -0.128438 68.2812 0.433972 69.2627 0.495966C72.012 0.671504 75.077 0.646335 77.8573 0.606317C78.8785 0.591157 77.7307 0.228031 78.6472 0.218623C84.0719 0.15605 89.7112 0.190797 95.0053 0.390985C96.0021 0.429338 95.3749 0.708955 95.5827 0.77282C97.0146 1.21964 99.1131 0.610174 99.596 0.552118C101.792 0.287035 102.644 0.534306 104.583 0.488153C114.055 0.25836 125.751 0.422132 134.691 0.523309C146.343 0.653525 155.383 0.91953 166.494 0.850457C167.2 0.846417 166.488 0.474439 167.097 0.46618C174.956 0.376508 182.693 0.521862 190.568 0.414423C191.214 0.406266 190.282 0.053628 191.32 0.0286819C193.447 -0.0249589 196.142 -0.00579175 198.293 0.106807C199.342 0.161059 197.935 0.463654 198.991 0.512079C201.45 0.625527 204.086 0.650643 206.612 0.59411C207.686 0.569284 206.065 0.208625 207.462 0.204463C216.979 0.168682 226.325 0.106568 235.942 0.573602C236.602 0.605678 237.18 1.33868 238.582 1.19811C238.688 0.994684 238.682 0.75539 238.728 0.537958C252.582 0.42083 266.295 0.674938 280.188 0.714227C280.773 0.7158 279.761 0.327419 280.895 0.328486C287.459 0.334227 293.832 0.226635 300.546 0.612664C301.212 0.650417 300.871 1.33367 302.834 1.23034C303.18 1.21148 306.137 1.12036 306.901 0.972038C307.005 0.949666 306.465 0.630748 307.418 0.621453C312.955 0.573025 318.757 0.645833 324.284 0.840691C325.176 0.87275 324.226 1.21237 324.861 1.23815C329.368 1.41844 334.27 1.16026 338.576 1.46862C341.459 1.67624 340.392 2.26331 341.924 2.84117C342.14 2.9227 343.925 2.93562 344.018 3.27184C344.254 4.11728 343.39 5.04303 343.745 5.94419C343.82 6.13829 346.21 5.92923 344.795 6.39829C344.696 6.42968 342.963 6.58536 342.536 6.74448C342.239 6.85449 342.774 7.19642 342.168 7.33725C341.562 7.47795 340.895 7.19132 339.89 7.35678C338.885 7.52429 339.327 7.91327 337.32 7.95932ZM155.377 70.4445C153.79 70.1178 153.556 71.3142 155.272 71.028C155.355 71.0127 155.459 70.4605 155.377 70.4445ZM347.557 68.1749C346.825 68.7082 346.347 69.3002 346.134 69.74L345.775 70.1644L345.242 70.1593C344.617 70.3132 344.489 70.6522 345.242 70.887L346.11 70.8953L346.694 70.2045C346.718 70.1894 346.741 70.1734 346.766 70.1565C348.013 69.2901 348.084 67.7906 347.557 68.1749ZM360.992 51.3715C359.124 52.972 360.186 54.3488 361.58 52.1311C361.661 52.0025 361.101 51.2778 360.992 51.3715ZM334.82 3.00572C334.842 3.02161 336.125 3.03709 336.156 3.02135C336.839 2.64138 334.273 2.61068 334.82 3.00572ZM370.418 34.0864C370.719 34.8176 372.304 36.3371 371.929 35.4284C371.628 34.697 370.043 33.1759 370.418 34.0864ZM72.6064 69.1676C72.5814 69.1498 71.6615 69.1337 71.68 69.2345C71.7425 69.5591 73.0227 69.4675 72.6064 69.1676ZM347.442 6.01029C350.785 10.2007 351.757 13.6037 348.185 8.98442C347.538 8.14792 349.973 10.4654 349.219 9.34379C347.84 7.29215 346.124 6.58341 344.899 4.34C344.678 3.9333 347.254 5.7693 347.45 6.01643C347.447 6.01438 347.445 6.01234 347.442 6.01029ZM154.463 69.0075C154.431 68.9916 153.158 68.9766 153.127 68.9923C152.438 69.3721 155.003 69.4026 154.463 69.0075ZM18.9289 68.4279C18.8586 68.3942 15.9035 68.3626 15.8071 68.3937C14.2654 69.0148 20.2401 69.0804 18.9289 68.4279ZM240.225 68.132C241.615 67.7499 243.277 67.7049 244.385 68.1847C243.004 68.1592 241.614 68.1555 240.225 68.132Z" fill="#1F4167"/>
</svg>
