<svg width="1062" height="214" viewBox="0 0 1062 214" fill="none" xmlns="http://www.w3.org/2000/svg">
<g clip-path="url(#clip0_24_26311)">
<path fill-rule="evenodd" clip-rule="evenodd" d="M304.13 195.16C303.93 196.84 303.35 198.48 302.37 199.94C302.22 200.17 302.06 200.4 301.89 200.62L292.14 213.08H214.62L228.13 195.83L249.58 168.44C249.85 168.09 250.11 167.74 250.34 167.38C254.62 160.82 253.25 151.97 246.97 147.06C240.59 142.07 231.49 142.96 226.2 148.95L226.11 148.84L209.08 170.61L189.61 195.49L175.85 213.08H127.87L118.44 200.61C115.47 196.67 115.51 191.23 118.54 187.33L125.05 178.98L135.1 166.09L151.53 145.08L171 120.2L188.03 98.4396V98.4196L192.27 92.9896C192.33 92.9196 192.39 92.8496 192.44 92.7696C197.42 86.1596 196.22 76.7496 189.67 71.6196C183.36 66.6696 174.37 67.4996 169.05 73.3296L168.98 73.2396L151.95 94.9996L132.49 119.88L94.18 168.85L93.56 169.64L74.09 194.52L59.57 213.08H11.62L2.19 200.61C-0.780001 196.67 -0.740001 191.23 2.29 187.33L8.8 178.98L27.54 154.93L144.68 5.22959C144.68 5.22959 144.68 5.22959 144.69 5.21959L145.03 4.77959C150.07 -1.67041 159.87 -1.58041 164.79 4.96959L186.95 34.4196L193.03 42.5096L209.62 64.6596L212 67.7596L212.02 67.7896L212.04 67.7596L250.02 118.24L250.04 118.26L269.02 143.48L269.04 143.51L295.64 178.88L302 187.34C303.73 189.64 304.43 192.44 304.12 195.16H304.13Z" fill="white"/>
</g>
<g clip-path="url(#clip1_24_26311)">
<path d="M363.2 146.845V66.3547C363.2 64.5847 363.77 63.0847 364.92 61.8747C366.07 60.6647 367.47 60.0547 369.12 60.0547H395.03C396.69 60.0547 398.26 60.6647 399.74 61.8747C401.22 63.0847 402.22 64.5347 402.73 66.2247L421.51 121.615L440.29 66.2247C440.8 64.5347 441.8 63.0847 443.28 61.8747C444.77 60.6647 446.34 60.0547 447.99 60.0547H473.9C475.55 60.0547 476.94 60.6647 478.07 61.8747C479.19 63.0847 479.76 64.5747 479.76 66.3547V146.855C479.76 148.625 479.18 150.105 478.01 151.295C476.84 152.485 475.43 153.075 473.78 153.075H462.32C460.67 153.075 459.25 152.485 458.09 151.295C456.92 150.105 456.34 148.625 456.34 146.855V83.4747L433.87 147.235C433.28 148.835 432.24 150.205 430.75 151.355C429.26 152.505 427.69 153.075 426.04 153.075H416.94C415.28 153.075 413.72 152.505 412.26 151.355C410.8 150.215 409.75 148.835 409.11 147.235L386.69 83.4747V146.855C386.69 148.625 386.11 150.105 384.94 151.295C383.77 152.485 382.36 153.075 380.71 153.075H369.25C367.59 153.075 366.17 152.485 364.98 151.295C363.79 150.105 363.2 148.625 363.2 146.855V146.845Z" fill="white"/>
<path d="M488.14 148.425L500.59 100.325C503.96 87.2252 514.94 80.6552 533.52 80.6152H560.25C561.47 80.6152 562.49 81.0852 563.3 82.0252C564.11 82.9652 564.51 84.0652 564.51 85.3152V148.425C564.51 149.735 564.05 150.845 563.12 151.735C562.19 152.625 561.09 153.075 559.8 153.075H550.48C549.12 153.075 548.01 152.625 547.13 151.735C546.25 150.845 545.82 149.705 545.82 148.325V135.595H510.56L507.24 148.325C506.91 149.705 506.17 150.845 505.01 151.735C503.85 152.625 502.63 153.075 501.34 153.075H491.57C490.28 153.075 489.35 152.695 488.79 151.935C488.23 151.175 487.96 150.515 487.97 149.935C487.99 149.365 488.05 148.855 488.14 148.415V148.425ZM514.22 121.285H545.81V94.9052H531.68C528.51 94.9052 525.74 95.8252 523.37 97.6552C521.01 99.4952 519.41 101.955 518.58 105.055L514.22 121.275V121.285Z" fill="white"/>
<path d="M572.59 90.1652V85.4152C572.59 84.0352 573.04 82.8852 573.93 81.9752C574.82 81.0652 575.95 80.6152 577.3 80.6152H640.23C641.59 80.6152 642.71 81.0652 643.6 81.9752C644.49 82.8852 644.94 84.0252 644.94 85.4152V90.1652C644.94 91.5452 644.49 92.6852 643.6 93.5752C642.71 94.4652 641.58 94.9152 640.23 94.9152H618.11V148.425C618.11 149.735 617.66 150.845 616.75 151.735C615.84 152.625 614.74 153.075 613.45 153.075H604.08C602.79 153.075 601.69 152.625 600.78 151.735C599.87 150.845 599.42 149.735 599.42 148.425V94.9152H577.3C575.94 94.9152 574.82 94.4652 573.93 93.5752C573.04 92.6852 572.59 91.5452 572.59 90.1652Z" fill="white"/>
<path d="M646.93 90.1652V85.4152C646.93 84.0352 647.38 82.8852 648.27 81.9752C649.16 81.0652 650.29 80.6152 651.64 80.6152H714.57C715.93 80.6152 717.05 81.0652 717.94 81.9752C718.83 82.8852 719.28 84.0252 719.28 85.4152V90.1652C719.28 91.5452 718.83 92.6852 717.94 93.5752C717.05 94.4652 715.92 94.9152 714.57 94.9152H692.45V148.425C692.45 149.735 692 150.845 691.09 151.735C690.18 152.625 689.08 153.075 687.79 153.075H678.42C677.13 153.075 676.03 152.625 675.12 151.735C674.21 150.845 673.76 149.735 673.76 148.425V94.9152H651.64C650.28 94.9152 649.16 94.4652 648.27 93.5752C647.38 92.6852 646.93 91.5452 646.93 90.1652Z" fill="white"/>
<path d="M727.36 148.225V85.3152C727.36 83.9952 727.82 82.8852 728.75 81.9752C729.68 81.0652 730.78 80.6152 732.07 80.6152H789.25C790.54 80.6152 791.64 81.0852 792.55 82.0252C793.46 82.9652 793.91 84.0952 793.91 85.4152V90.1652C793.91 91.4752 793.46 92.5952 792.55 93.5252C791.64 94.4552 790.54 94.9152 789.25 94.9152H746.06V109.625H783.25C784.54 109.625 785.64 110.085 786.55 111.015C787.46 111.945 787.91 113.065 787.91 114.375V119.125C787.91 120.435 787.46 121.555 786.55 122.485C785.64 123.415 784.54 123.875 783.25 123.875H746.06V138.785H789.15C790.41 138.785 791.48 139.235 792.37 140.145C793.26 141.055 793.71 142.165 793.71 143.475V148.325C793.71 149.635 793.25 150.755 792.32 151.685C791.39 152.615 790.29 153.075 789 153.075H732.07C730.78 153.075 729.67 152.615 728.75 151.685C727.82 150.755 727.36 149.605 727.36 148.225Z" fill="white"/>
<path d="M876.87 150.905C876.87 152.355 876.03 153.075 874.34 153.075H862.44C861.18 153.075 859.8 152.615 858.3 151.685C856.8 150.755 855.65 149.635 854.85 148.325L846.42 134.885C842.95 129.355 838.75 126.595 833.82 126.595H821.72V148.325C821.72 149.635 821.27 150.755 820.36 151.685C819.45 152.615 818.35 153.075 817.06 153.075H807.74C806.45 153.075 805.34 152.615 804.42 151.685C803.5 150.755 803.03 149.635 803.03 148.325V85.4152C803.03 84.0952 803.48 82.9752 804.37 82.0252C805.26 81.0752 806.35 80.6152 807.64 80.6152H848.55C856.12 80.6152 862.33 82.6852 867.17 86.8352C872.01 90.9752 874.44 96.5752 874.44 103.615C874.44 113.415 868.21 119.565 855.74 122.055C857.72 122.795 859.56 124.065 861.24 125.865C862.93 127.665 864.86 130.285 867.04 133.725L876.06 148.325C876.59 149.265 876.85 150.125 876.85 150.905H876.87ZM821.73 112.295H842.86C846.26 112.295 849.27 111.605 851.86 110.225C854.45 108.845 855.75 106.635 855.75 103.605C855.75 100.575 854.45 98.3652 851.86 96.9852C849.26 95.6052 846.26 94.9152 842.86 94.9152H821.73V112.295Z" fill="white"/>
<path d="M885.1 146.845V66.0446C885.1 64.3546 885.69 62.9246 886.88 61.7646C888.07 60.5946 889.49 60.0146 891.15 60.0146H964.59C966.25 60.0146 967.66 60.6246 968.83 61.8346C970 63.0446 970.58 64.4946 970.58 66.1846V72.2846C970.58 73.9746 970 75.4146 968.83 76.6046C967.66 77.7946 966.25 78.3846 964.59 78.3846H909.11V101.235H954.27C955.93 101.235 957.34 101.845 958.51 103.055C959.68 104.265 960.26 105.695 960.26 107.335V113.505C960.26 115.195 959.68 116.635 958.51 117.815C957.34 119.005 955.93 119.605 954.27 119.605H909.11V146.865C909.11 148.635 908.53 150.125 907.36 151.315C906.19 152.505 904.78 153.095 903.12 153.095H891.15C889.49 153.095 888.07 152.505 886.88 151.315C885.69 150.125 885.1 148.645 885.1 146.865V146.845Z" fill="white"/>
<path d="M982.94 148.395V84.9648C982.94 83.6448 983.4 82.5048 984.33 81.5548C985.26 80.6048 986.36 80.1348 987.65 80.1348H996.87C998.23 80.1348 999.36 80.6048 1000.27 81.5548C1001.18 82.5048 1001.63 83.6348 1001.63 84.9648V148.285C1001.63 149.605 1001.16 150.735 1000.22 151.665C999.28 152.595 998.16 153.065 996.87 153.065H987.65C986.36 153.065 985.25 152.615 984.33 151.715C983.41 150.815 982.94 149.705 982.94 148.385V148.395Z" fill="white"/>
<path d="M1037.12 133.695V136.905H1030.92V153.075H1027.07V136.905H1020.87V133.695H1037.12ZM1058.06 153.075L1057.35 141.675C1057.28 140.175 1057.28 138.325 1057.21 136.265H1057C1056.5 137.975 1055.93 140.245 1055.36 142.035L1051.87 152.795H1047.88L1044.39 141.755C1044.04 140.255 1043.47 137.975 1043.04 136.275H1042.83C1042.83 138.055 1042.76 139.905 1042.69 141.685L1041.98 153.085H1038.27L1039.7 133.705H1045.47L1048.82 143.185C1049.24 144.685 1049.6 146.105 1050.1 148.095H1050.17C1050.67 146.315 1051.1 144.675 1051.52 143.255L1054.87 133.705H1060.43L1061.92 153.085H1058.07L1058.06 153.075Z" fill="white"/>
</g>
<defs>
<clipPath id="clip0_24_26311">
<rect width="304.2" height="213.08" fill="white"/>
</clipPath>
<clipPath id="clip1_24_26311">
<rect width="698.7" height="93.07" fill="white" transform="translate(363.2 60.0049)"/>
</clipPath>
</defs>
</svg>
