<svg width="92" height="73" viewBox="0 0 92 73" fill="none" xmlns="http://www.w3.org/2000/svg">
<path opacity="0.2" d="M6.0611 72.7395V57.4679H14.8198C21.707 57.4679 25.1506 54.0243 25.1506 47.1371V39.9504H21.3327C15.3439 39.9504 10.3282 38.1538 6.28569 34.5604C2.39292 30.9671 0.446533 26.4006 0.446533 20.8609C0.446533 14.872 2.39292 10.0061 6.28569 6.26301C10.3282 2.51996 15.3439 0.648438 21.3327 0.648438C27.4713 0.648438 32.487 2.59482 36.3798 6.48759C40.2725 10.2306 42.2189 15.3212 42.2189 21.7592V47.5862C42.2189 64.3551 33.8345 72.7395 17.0657 72.7395H6.0611ZM55.4693 72.7395V57.4679H64.228C71.1152 57.4679 74.5588 54.0243 74.5588 47.1371V39.9504H70.7409C64.7521 39.9504 59.7364 38.1538 55.6939 34.5604C51.8011 30.9671 49.8547 26.4006 49.8547 20.8609C49.8547 14.872 51.8011 10.0061 55.6939 6.26301C59.7364 2.51996 64.7521 0.648438 70.7409 0.648438C76.8795 0.648438 81.8952 2.59482 85.788 6.48759C89.6807 10.2306 91.6271 15.3212 91.6271 21.7592V47.5862C91.6271 64.3551 83.2427 72.7395 66.4739 72.7395H55.4693Z" fill="#103F6E"/>
</svg>
