<svg width="1280" height="2" viewBox="0 0 1280 2" fill="none" xmlns="http://www.w3.org/2000/svg">
<path d="M716.98 0.379787C745.233 0.512771 767.473 -0.0749943 801.908 0.00808328C836.344 0.0911622 841.501 0.40294 880.938 0.33279C920.373 0.262654 959.831 0.4759 977.39 0.347805C994.949 0.219672 996.802 0.607064 1021.74 0.521023C1046.67 0.434993 1061.78 0.485559 1083.59 0.611477C1105.4 0.737396 1172.39 0.844896 1196.75 0.690212C1221.12 0.535528 1248.9 0.803925 1265.61 0.86758C1270.82 0.887408 1274.91 0.914543 1278.05 0.942775C1279.39 0.954746 1280 0.979788 1280 1.00451C1280 1.00452 1280 1.00454 1280 1.00456C1280 1.03533 1279.05 1.0656 1277.34 1.06948C1269.04 1.08836 1256.63 1.13817 1241.98 1.24978C1214.66 1.45791 1211.67 1.22792 1174.78 1.33487C1137.88 1.44181 1115.72 1.65562 1072.3 1.51736C1028.89 1.37911 1018.92 1.95767 957.644 1.62979C896.367 1.30193 889.917 1.90699 828.852 1.98745C767.787 2.06791 690.704 1.73406 653.893 1.76174C617.082 1.78943 567.642 1.85991 515.458 1.78006C463.274 1.70021 398.854 1.90178 341.251 1.7593C283.648 1.61683 202.211 1.43689 164.587 1.31631C126.966 1.19573 117.796 1.16854 81.5829 1.24221C60.7674 1.28456 32.092 1.24464 7.87063 1.08889C-4.31912 1.01051 -1.55692 0.901368 10.7125 0.849148C28.6543 0.772789 43.3826 0.823801 52.6273 0.687404C71.1 0.41481 78.9512 0.310238 102.272 0.468899C125.591 0.62754 136.579 0.267002 150.173 0.308498C163.767 0.350015 163.544 0.562676 232.665 0.39883C301.787 0.234979 339.68 0.193171 365.856 0.153835C392.032 0.1145 446.689 0.299067 489.349 0.232448C532.01 0.165834 618.737 0.226887 653.698 0.117824C688.657 0.00877088 688.729 0.246803 716.98 0.379787Z" fill="#85BAFF"/>
</svg>
